<?xml version="1.0" standalone="no"?>
<!DOCTYPE svg PUBLIC "-//W3C//DTD SVG 1.1//EN" "http://www.w3.org/Graphics/SVG/1.1/DTD/svg11.dtd" >
<svg xmlns="http://www.w3.org/2000/svg" xmlns:xlink="http://www.w3.org/1999/xlink" version="1.1">
<metadata>
Created by FontForge 20170731 at Thu Jun  3 15:38:29 2021
 By Aleksey,,,
Copyright 2021 The Azeret Project Authors (https://github.com/displaay/azeret)
</metadata>
<defs>
<font id="AzeretMono-BlackItalic" horiz-adv-x="650" >
  <font-face 
    font-family="Azeret Mono Black"
    font-weight="900"
    font-style="italic"
    font-stretch="normal"
    units-per-em="1000"
    panose-1="0 0 0 0 0 0 0 0 0 0"
    ascent="800"
    descent="-200"
    x-height="563"
    cap-height="698"
    bbox="-71 -229 1960 1111"
    underline-thickness="50"
    underline-position="-175"
    slope="-12"
    unicode-range="U+000D-FEFF"
  />
<missing-glyph horiz-adv-x="1300" 
d="M145 309q0 101 37.5 190t103.5 158t153.5 109.5t187.5 44.5v-1001q-100 3 -187.5 43.5t-154 109t-103.5 157.5t-37 189zM663 807q31 -10 58 -53.5t47.5 -111.5t32 -153t11.5 -180q0 -94 -11.5 -179t-32 -152.5t-47.5 -110.5t-58 -54v994zM987 309q0 -112 -32 -210.5
t-87.5 -169t-128.5 -100.5q34 44 58.5 116.5t38 165.5t13.5 198t-13.5 198.5t-38 167t-58.5 117.5q54 -23 99.5 -69.5t78.5 -111t51.5 -141.5t18.5 -161zM1145 309q0 -101 -38 -191.5t-106.5 -160t-159.5 -107.5q56 48 97 119t63.5 158t22.5 182t-22.5 182.5t-63.5 159
t-97 119.5q91 -38 159.5 -108t106.5 -160.5t38 -192.5z" />
    <glyph glyph-name="f_f.dlig" unicode="ff" horiz-adv-x="1300" 
d="M123 0l130 609q15 70 55 122t99 81t129 29h186l-37 -172h-144q-27 0 -47 -16.5t-25 -43.5l-130 -609h-216zM72 391l37 172h714l-37 -172h-714zM-2 0l37 172h535l-37 -172h-535zM773 0l134 628q24 112 93.5 162t195.5 50h176l-37 -172h-144q-33 0 -49.5 -16.5t-22.5 -43.5
l-130 -608h-216zM746 391l37 172h466l-37 -172h-466zM648 0l37 172h535l-37 -172h-535z" />
    <glyph glyph-name="f_f_i.dlig" unicode="ffi" horiz-adv-x="1950" 
d="M148 0l130 609q15 70 55 122t99 81t129 29h186l-37 -172h-144q-27 0 -47 -16.5t-25 -43.5l-130 -609h-216zM97 391l37 172h714l-37 -172h-714zM23 0l37 172h535l-37 -172h-535zM1200 391l37 172h233l-37 -172h-233zM1448 0l120 563h216l-120 -563h-216zM1323 0l37 172
h493l-37 -172h-493zM1421 391l37 172h218l-37 -172h-218zM798 0l134 628q24 112 93.5 162t195.5 50h176l-37 -172h-144q-33 0 -49.5 -16.5t-22.5 -43.5l-130 -608h-216zM771 391l37 172h466l-37 -172h-466zM673 0l37 172h535l-37 -172h-535z" />
    <glyph glyph-name="f_f_t.dlig" unicode="fft" horiz-adv-x="1950" 
d="M112 0l130 609q15 70 55 122t99 81t129 29h186l-37 -172h-144q-27 0 -47 -16.5t-25 -43.5l-130 -609h-216zM61 391l37 172h694l-37 -172h-694zM-13 0l37 172h535l-37 -172h-535zM762 0l130 609q15 70 55 122t99 81t129 29h186l-37 -172h-144q-27 0 -47 -16.5t-25 -43.5
l-130 -609h-216zM711 391l37 172h710l-37 -172h-710zM637 0l37 172h535l-37 -172h-535zM1631 0q-64 0 -108.5 20t-62.5 67t-1 128l97 459l234 86l-112 -527q-6 -31 2 -43.5t28 -15t49 -2.5h132l-37 -172h-221zM1385 391l37 172h466l-37 -172h-466z" />
    <glyph glyph-name="f_i.dlig" unicode="fi" horiz-adv-x="1300" 
d="M545 391l37 172h233l-37 -172h-233zM793 0l120 563h216l-120 -563h-216zM668 0l37 172h493l-37 -172h-493zM766 391l37 172h218l-37 -172h-218zM143 0l134 628q24 112 93.5 162t195.5 50h176l-37 -172h-144q-33 0 -49.5 -16.5t-22.5 -43.5l-130 -608h-216zM116 391
l37 172h466l-37 -172h-466zM18 0l37 172h535l-37 -172h-535z" />
    <glyph glyph-name="f_j.dlig" unicode="fj" horiz-adv-x="1300" 
d="M621 391l37 172h397l-37 -172h-397zM1205 563l-116 -547q-13 -59 -49 -102.5t-89 -67.5t-118 -24h-112l37 172h70q18 0 31.5 11.5t17.5 30.5l112 527h216zM842 391l37 172h138l-37 -172h-138zM219 0l134 628q24 112 93.5 162t195.5 50h176l-37 -172h-144
q-33 0 -49.5 -16.5t-22.5 -43.5l-130 -608h-216zM192 391l37 172h466l-37 -172h-466zM94 0l37 172h535l-37 -172h-535z" />
    <glyph glyph-name="f_t.dlig" unicode="ft" horiz-adv-x="1300" 
d="M123 0l130 609q15 70 55 122t99 81t129 29h186l-37 -172h-144q-27 0 -47 -16.5t-25 -43.5l-130 -609h-216zM72 391l37 172h710l-37 -172h-710zM-2 0l37 172h535l-37 -172h-535zM992 0q-64 0 -108.5 20t-62.5 67t-1 128l97 459l234 86l-112 -527q-6 -31 2 -43.5t28 -15
t49 -2.5h132l-37 -172h-221zM746 391l37 172h466l-37 -172h-466z" />
    <glyph glyph-name=".notdef" horiz-adv-x="1300" 
d="M145 309q0 101 37.5 190t103.5 158t153.5 109.5t187.5 44.5v-1001q-100 3 -187.5 43.5t-154 109t-103.5 157.5t-37 189zM663 807q31 -10 58 -53.5t47.5 -111.5t32 -153t11.5 -180q0 -94 -11.5 -179t-32 -152.5t-47.5 -110.5t-58 -54v994zM987 309q0 -112 -32 -210.5
t-87.5 -169t-128.5 -100.5q34 44 58.5 116.5t38 165.5t13.5 198t-13.5 198.5t-38 167t-58.5 117.5q54 -23 99.5 -69.5t78.5 -111t51.5 -141.5t18.5 -161zM1145 309q0 -101 -38 -191.5t-106.5 -160t-159.5 -107.5q56 48 97 119t63.5 158t22.5 182t-22.5 182.5t-63.5 159
t-97 119.5q91 -38 159.5 -108t106.5 -160.5t38 -192.5z" />
    <glyph glyph-name=".null" horiz-adv-x="0" 
 />
    <glyph glyph-name=".null" horiz-adv-x="0" 
 />
    <glyph glyph-name="nonmarkingreturn" horiz-adv-x="333" 
 />
    <glyph glyph-name="CR" unicode="&#xd;" 
 />
    <glyph glyph-name="space" unicode=" " 
 />
    <glyph glyph-name="exclam" unicode="!" 
d="M236 243l34 315l30 141h228l-30 -141l-100 -315h-162zM164 0l42 195h201l-42 -195h-201z" />
    <glyph glyph-name="quotedbl" unicode="&#x22;" 
d="M415 420l50 356h212l-102 -356h-160zM134 420l50 356h212l-102 -356h-160z" />
    <glyph glyph-name="numbersign" unicode="#" 
d="M223 0l321 700h139l-321 -700h-139zM-34 112l78 163h533l-80 -163h-531zM4 0l322 700h139l-322 -700h-139zM97 397l79 162h531l-76 -162h-534z" />
    <glyph glyph-name="dollar" unicode="$" 
d="M299 680l25 117h214l-25 -117h-214zM135 -92l23 112h214l-23 -112h-214zM298 -12q-85 0 -148 32.5t-96.5 91.5t-30.5 138h222q-4 -34 13 -56t52 -22q16 0 28.5 5.5t20 16t7.5 23.5q0 17 -15.5 28.5t-41 20.5t-56 19t-61.5 24t-56.5 35t-41 52t-15.5 75q0 71 37.5 124.5
t105.5 84t160 30.5q84 0 146.5 -29.5t96 -83t29.5 -126.5h-221q0 28 -17.5 41.5t-41.5 13.5q-15 0 -27 -4t-19 -12.5t-7 -21.5q0 -15 15.5 -25t41.5 -18.5t56.5 -17.5t61 -22.5t56.5 -34t41.5 -50.5t15.5 -74q0 -78 -39 -136t-109 -90t-163 -32z" />
    <glyph glyph-name="percent" unicode="%" 
d="M-17 0l591 698h122l-591 -698h-122zM438 -13q-60 0 -95.5 39t-35.5 100q0 58 22.5 106.5t62.5 78t91 29.5q60 0 95.5 -38.5t35.5 -100.5q0 -58 -22.5 -106.5t-62 -78t-91.5 -29.5zM451 95q13 0 21.5 9.5t13 24.5t6.5 32.5t2 32.5q0 17 -5.5 27.5t-18.5 10.5
q-12 0 -20.5 -10t-13.5 -25t-7 -32t-2 -32q0 -16 6.5 -27t17.5 -11zM196 358q-60 0 -95.5 39t-35.5 100q0 58 22.5 106.5t62.5 78t91 29.5q60 0 95.5 -38.5t35.5 -100.5q0 -58 -22.5 -106.5t-62 -78t-91.5 -29.5zM209 466q13 0 21.5 9.5t13 24.5t6.5 32.5t2 32.5
q0 17 -5.5 27.5t-18.5 10.5q-12 0 -20.5 -10t-13.5 -25t-7 -32t-2 -32q0 -16 6.5 -27t17.5 -11z" />
    <glyph glyph-name="ampersand" unicode="&#x26;" 
d="M193 -12q-59 0 -103.5 23.5t-69.5 64.5t-25 93q0 63 39.5 120.5t106.5 92.5q-10 23 -21 55t-11 74q0 54 25.5 99t76.5 72.5t127 27.5q60 0 103 -21.5t66 -57t23 -77.5q0 -49 -21 -87.5t-56 -66.5t-76 -48l48 -82q12 22 20.5 43t15.5 49h175q-22 -67 -57 -123.5
t-80 -104.5l77 -134h-228l-15 27q-35 -19 -67 -29t-73 -10zM233 137q12 0 22 3t19 8l-61 110q-10 -8 -18 -18t-12 -22t-4 -25q0 -25 14.5 -40.5t39.5 -15.5zM313 455q17 10 27.5 21.5t16 25t5.5 29.5q0 17 -8 26.5t-22 9.5q-22 0 -30 -16.5t-8 -33.5q0 -13 5 -30.5t14 -31.5
z" />
    <glyph glyph-name="quotesingle" unicode="'" 
d="M274 419l50 356h212l-102 -356h-160z" />
    <glyph glyph-name="parenleft" unicode="(" 
d="M194 -99q-26 59 -39 132.5t-13 138.5q0 146 51.5 277.5t160.5 248.5h215q-109 -115 -165 -249.5t-56 -282.5q0 -66 13 -137.5t38 -127.5h-205z" />
    <glyph glyph-name="parenright" unicode=")" 
d="M278 -99h-215q103 118 161.5 251t58.5 279q0 66 -12.5 138.5t-37.5 128.5h205q26 -60 38.5 -133.5t12.5 -139.5q0 -149 -55.5 -278.5t-155.5 -245.5z" />
    <glyph glyph-name="asterisk" unicode="*" 
d="M228 335l-82 123l117 54l-101 67l92 110l77 -77l41 112l143 -53l-40 -111l109 9l-1 -144l-118 14l52 -116l-143 -41l-38 119z" />
    <glyph glyph-name="plus" unicode="+" 
d="M48 213l40 184h524l-40 -184h-524zM182 43l112 525h184l-112 -525h-184z" />
    <glyph glyph-name="comma" unicode="," 
d="M163 0l42 195h201l-42 -195l-134 -190h-175l76 90l130 102z" />
    <glyph glyph-name="hyphen" unicode="-" 
d="M116 213l40 185h387l-40 -185h-387z" />
    <glyph glyph-name="period" unicode="." 
d="M165 0l42 195h201l-42 -195h-201z" />
    <glyph glyph-name="slash" unicode="/" 
d="M-59 -99l558 799h221l-558 -799h-221z" />
    <glyph glyph-name="zero" unicode="0" 
d="M273 -12q-69 0 -123.5 29.5t-86.5 85.5t-32 134q0 89 23.5 173.5t70 152t116.5 107.5t163 40q70 0 124.5 -30t86.5 -85.5t32 -133.5q0 -90 -23.5 -174.5t-70.5 -152t-117 -107t-163 -39.5zM301 170q22 0 40 20.5t31.5 53.5t22.5 71.5t13.5 76t4.5 65.5q0 36 -9.5 53.5
t-30.5 17.5t-38.5 -21t-30.5 -54.5t-22 -73t-13.5 -76.5t-4.5 -64q0 -35 9 -52t28 -17z" />
    <glyph glyph-name="one" unicode="1" 
d="M175 0l68 321l41 142l-129 -82l-115 -72l50 234l277 155h187l-149 -698h-230zM-26 0l39 184h582l-39 -184h-582z" />
    <glyph glyph-name="two" unicode="2" 
d="M-15 0l33 154q70 35 140 75t128 82.5t93.5 84.5t35.5 81q0 23 -13 36t-35 13q-23 0 -40 -12t-25.5 -32t-8.5 -45h-224q8 79 48 140.5t111 97t170 35.5q122 0 190 -55.5t68 -148.5q0 -55 -23.5 -101.5t-63.5 -85.5t-91 -72.5t-107 -62.5h220l-39 -184h-567z" />
    <glyph glyph-name="three" unicode="3" 
d="M305 -12q-95 0 -159.5 37.5t-93.5 99t-19 134.5h224q-3 -24 1.5 -43.5t18 -31.5t35.5 -12q31 0 46.5 17.5t15.5 42.5q0 24 -18 40.5t-48 16.5h-32l28 135h37q20 0 34 8t22 22t8 31q0 20 -12.5 30.5t-30.5 10.5q-25 0 -39 -16t-16 -44h-224q6 70 47 125t107.5 87t148.5 32
q76 0 132 -21.5t86.5 -61t30.5 -93.5q0 -59 -36.5 -106.5t-95.5 -63.5q30 -11 53.5 -31.5t37 -50t13.5 -68.5q0 -66 -38.5 -117t-106.5 -80t-157 -29z" />
    <glyph glyph-name="four" unicode="4" 
d="M271 0l29 136h-308l33 154l331 408h285l-83 -388h77l-37 -174h-77l-29 -136h-221zM234 310h103l13 60l44 147l-98 -124z" />
    <glyph glyph-name="five" unicode="5" 
d="M294 -10q-79 0 -136.5 29t-88.5 78.5t-31 110.5h220q2 -11 7.5 -19t15.5 -12t23 -4q19 0 34 10t24 27.5t9 40.5q0 18 -6 30t-16.5 18.5t-23.5 6.5q-25 0 -40 -10t-27 -25h-210l155 427h451l-40 -184h-272l-30 -79q35 22 57.5 28.5t59.5 6.5q55 0 95.5 -21.5t63 -64.5
t22.5 -107q0 -81 -39.5 -146t-110.5 -103t-166 -38z" />
    <glyph glyph-name="six" unicode="6" 
d="M428 456q54 0 94.5 -25.5t63.5 -70t23 -102.5q0 -82 -39 -143t-109.5 -94.5t-163.5 -33.5q-77 0 -136 33.5t-91.5 94.5t-32.5 142q0 73 17.5 140t50 124t79 99.5t104.5 66t126 23.5q76 0 130.5 -28t85 -77.5t31.5 -115.5h-214q-3 17 -14 30.5t-38 13.5t-47 -16
t-31.5 -40.5t-16.5 -50.5q33 18 68 24t60 6zM313 172q18 0 32 9.5t21.5 26t7.5 36.5q0 30 -14 42.5t-35 12.5q-14 0 -28.5 -6.5t-27.5 -17.5q-8 -46 4.5 -74.5t39.5 -28.5z" />
    <glyph glyph-name="seven" unicode="7" 
d="M125 0q15 90 47 171t73 148t84 117t80 78h-327l39 184h596l-33 -154q-97 -78 -159.5 -152t-98 -143t-52 -131.5t-23.5 -117.5h-226zM121 698h200l-57 -264h-200z" />
    <glyph glyph-name="eight" unicode="8" 
d="M283 -12q-79 0 -136.5 25t-89 69t-31.5 101q0 38 17 72t50 62.5t81 48.5h327q26 -13 45.5 -37t30 -54t10.5 -64q0 -67 -37 -117.5t-105 -78t-162 -27.5zM300 168q21 0 35.5 7t22 19.5t7.5 30.5t-14.5 30.5t-37.5 13.5q-20 0 -35 -7.5t-22.5 -20t-7.5 -29.5q0 -20 15 -32
t37 -12zM354 428q20 2 34 9.5t22 20.5t8 29q0 20 -13.5 32t-35.5 12q-26 0 -43 -15.5t-17 -40.5q0 -17 11 -31t34 -16zM177 345q-25 13 -43.5 35t-29 49.5t-10.5 56.5q0 68 35.5 118.5t101 78t154.5 27.5q76 0 133 -22.5t89.5 -63.5t32.5 -97q0 -40 -19 -76.5t-53 -63.5
t-80 -42h-311z" />
    <glyph glyph-name="nine" unicode="9" 
d="M249 242q-54 0 -94.5 25.5t-63.5 70t-23 102.5q0 82 39 143t109.5 94.5t163.5 33.5q77 0 136 -33.5t91.5 -94.5t32.5 -142q0 -73 -17.5 -140t-50 -124t-79 -99.5t-104.5 -66t-126 -23.5q-76 0 -130.5 28t-85 77.5t-31.5 115.5h214q3 -17 14 -30.5t38 -13.5t47 16
t31.5 40.5t16.5 50.5q-33 -18 -68 -24t-60 -6zM364 526q-18 0 -32 -9.5t-21.5 -26t-7.5 -36.5q0 -30 14 -42.5t35 -12.5q14 0 28.5 6.5t27.5 17.5q8 46 -4.5 74.5t-39.5 28.5z" />
    <glyph glyph-name="colon" unicode=":" 
d="M235 327l42 195h201l-42 -195h-201zM165 0l42 195h201l-42 -195h-201z" />
    <glyph glyph-name="semicolon" unicode=";" 
d="M161 0l44 205h210l-44 -205l-118 -190h-175l181 190h-98zM235 326l42 195h201l-42 -195h-201z" />
    <glyph glyph-name="less" unicode="&#x3c;" 
d="M526 31l-476 179l40 191l552 178l-38 -182l-327 -96l286 -97z" />
    <glyph glyph-name="equal" unicode="=" 
d="M81 344l39 184h514l-39 -184h-514zM24 75l39 184h514l-39 -184h-514z" />
    <glyph glyph-name="greater" unicode="&#x3e;" 
d="M13 31l39 184l326 97l-285 96l36 171l476 -178l-40 -191z" />
    <glyph glyph-name="question" unicode="?" 
d="M260 229l2 16q5 38 19.5 65.5t34 47.5t40 35.5t39 30t29.5 31t11 37.5q0 23 -13.5 37t-38.5 14q-41 0 -59.5 -28t-18.5 -75h-215q4 87 41 147t105.5 91.5t164.5 31.5q68 0 124.5 -23t90.5 -67t34 -108q0 -43 -13.5 -74t-35.5 -53.5t-47 -39.5t-49 -32t-42 -31.5
t-24 -38.5l-4 -14h-175zM197 0l42 195h201l-42 -195h-201z" />
    <glyph glyph-name="at" unicode="@" 
d="M255 -178q-65 0 -113.5 24.5t-80 70.5t-47 110.5t-15.5 143.5q0 71 13.5 146.5t42.5 145.5t74.5 126t110 89t148.5 33q86 0 146.5 -41t93 -110t32.5 -155q0 -43 -8.5 -90.5t-26.5 -93.5t-46 -83t-67 -59.5t-89 -22.5h-117v50q-13 -24 -33 -41.5t-43 -17.5
q-31 0 -48.5 41.5t-17.5 114.5q0 29 5.5 66t17 75t29 70t41.5 51.5t54 19.5q24 0 42 -19t19 -45l14 56h117l-66 -310h11q15 0 28 15.5t23 40.5t17 55.5t10.5 61t3.5 55.5q0 62 -19 106t-52.5 67.5t-77.5 23.5q-52 0 -92 -27.5t-69 -73t-48 -100t-28 -109.5t-9 -101
q0 -82 15.5 -138t48.5 -84t85 -28h127l-95 -109h-61zM308 209q11 0 17.5 10t8.5 22l11 50q2 7 -2 20t-15 13q-9 0 -15.5 -8t-10.5 -20.5t-6 -26.5t-2 -27q0 -17 3.5 -25t10.5 -8z" />
    <glyph glyph-name="A" unicode="A" 
d="M75 123l38 175h443l-38 -175h-443zM252 698h322l-4 -698h-231l28 286l9 245l-95 -245l-91 -286h-230z" />
    <glyph glyph-name="B" unicode="B" 
d="M516 364q44 -13 70.5 -51t26.5 -88q0 -68 -37.5 -118.5t-106 -78.5t-161.5 -28h-328l149 698h293q69 0 120 -20.5t79 -57t28 -86.5q0 -38 -17 -71.5t-47 -59t-69 -39.5zM370 514h-52l-17 -84h56q18 0 31.5 6t20.5 17t7 26q0 16 -11.5 25.5t-34.5 9.5zM248 184h68
q26 0 44.5 13t18.5 36q0 17 -12 28t-38 11h-62z" />
    <glyph glyph-name="C" unicode="C" 
d="M310 -12q-82 0 -146.5 37t-101.5 102t-37 149q0 86 24 164.5t71 139t115.5 95.5t156.5 35q82 0 143 -34t93.5 -95t27.5 -143h-225q0 39 -12.5 63.5t-41.5 24.5q-31 0 -54 -24.5t-37 -62t-21 -77.5t-7 -71q0 -39 7.5 -65.5t23 -40t39.5 -13.5q32 0 52.5 26t26.5 66h225
q-21 -83 -58.5 -145.5t-101 -96.5t-162.5 -34z" />
    <glyph glyph-name="D" unicode="D" 
d="M-28 0l149 698h234q74 0 129.5 -24.5t92 -65.5t54.5 -93t18 -108q0 -91 -31 -165.5t-88 -128.5t-134 -83.5t-170 -29.5h-254zM240 184h16q37 0 66 19t49 50t30.5 68.5t10.5 74.5q0 56 -24.5 87t-61.5 31h-16z" />
    <glyph glyph-name="E" unicode="E" 
d="M-14 0l149 698h552l-40 -184h-323l-15 -72h201l-37 -175h-201l-18 -83h327l-39 -184h-556z" />
    <glyph glyph-name="F" unicode="F" 
d="M-7 0l149 698h552l-40 -184h-323l-15 -72h201l-37 -175h-201l-57 -267h-229z" />
    <glyph glyph-name="G" unicode="G" 
d="M305 -12q-73 0 -138 33t-105.5 98.5t-40.5 161.5q0 74 20.5 150t64.5 139t113.5 101.5t167.5 38.5q80 0 142 -32t95.5 -88t26.5 -127h-235q2 24 -10 43.5t-38 19.5q-28 0 -49.5 -21.5t-35.5 -56.5t-21.5 -77t-7.5 -84q0 -28 6 -54.5t21 -43.5t41 -17q20 0 30.5 6t27.5 17
l10 50l-61 -5l40 165h284l-60 -282q-42 -43 -81.5 -73t-88 -46t-118.5 -16z" />
    <glyph glyph-name="H" unicode="H" 
d="M328 0l149 698h229l-149 -698h-229zM-27 0l149 698h229l-149 -698h-229zM239 267l39 183h164l-39 -183h-164z" />
    <glyph glyph-name="I" unicode="I" 
d="M150 0l149 698h229l-149 -698h-229zM161 698h505l-40 -184h-505zM51 184h505l-39 -184h-505z" />
    <glyph glyph-name="J" unicode="J" 
d="M3 0l39 183h233q39 0 57 19.5t23 44.5l97 451h229l-98 -458q-10 -49 -28 -92t-49.5 -76.5t-84 -52.5t-132.5 -19h-286zM211 698h455l-40 -184h-455z" />
    <glyph glyph-name="K" unicode="K" 
d="M-38 0l149 698h229l-18 -84l-60 -182l121 153l96 113h248l-498 -521l-38 -177h-229zM338 0l-85 357l203 88l124 -445h-242z" />
    <glyph glyph-name="L" unicode="L" 
d="M-4 0l149 698h229l-110 -514h314l-39 -184h-543z" />
    <glyph glyph-name="M" unicode="M" 
d="M-44 0l176 698h249l-34 -259l-22 -153l40 153l76 259h257l-122 -698h-183l63 299l43 211l-67 -211l-98 -299h-141l33 299l22 217l-47 -217l-67 -299h-178z" />
    <glyph glyph-name="N" unicode="N" 
d="M-19 0l149 698h249l47 -430l28 230l43 200h202l-149 -698h-258l-44 413l-22 -212l-43 -201h-202z" />
    <glyph glyph-name="O" unicode="O" 
d="M293 -12q-79 0 -137 36t-89.5 98.5t-31.5 140.5q0 90 23 171t67.5 143t110 97.5t151.5 35.5q79 0 137 -35.5t89.5 -96.5t31.5 -140q0 -91 -23 -172t-67.5 -143.5t-110 -98.5t-151.5 -36zM309 172q24 0 45 19.5t37 54t25 81t9 99.5q0 50 -15 75t-39 25t-45 -19.5t-37 -54
t-25 -81t-9 -99.5q0 -33 7 -55t19 -33.5t28 -11.5z" />
    <glyph glyph-name="P" unicode="P" 
d="M190 200l39 184h107q26 0 44.5 9t28.5 25t10 38q0 23 -17 40.5t-46 17.5h-100l40 184h109q79 0 135 -31t86 -81.5t30 -109.5q0 -70 -28 -122t-76.5 -86t-111 -51t-130.5 -17h-120zM-17 0l149 698h229l-149 -698h-229z" />
    <glyph glyph-name="Q" unicode="Q" 
d="M279 -12q-76 0 -131 31.5t-84 88.5t-29 134q0 90 22 173.5t65.5 150t108 105t150.5 38.5q74 0 128.5 -31.5t84.5 -88.5t30 -132q0 -49 -7.5 -95t-22.5 -87.5t-38 -79t-55 -69.5l93 37l38 11l-65 -186h-288zM297 172q26 0 45.5 29t33 73t20.5 91t7 83q0 26 -4.5 43.5
t-13.5 26t-23 8.5q-26 0 -46 -28.5t-33.5 -72t-20 -90.5t-6.5 -84q0 -40 9.5 -59.5t31.5 -19.5z" />
    <glyph glyph-name="R" unicode="R" 
d="M196 226l39 184h119q30 0 49.5 16t19.5 41q0 19 -12.5 33t-40.5 14h-113l40 184h128q74 0 127 -27t81.5 -74t28.5 -109q0 -58 -28.5 -106t-78 -83t-113 -54t-132.5 -19h-114zM-18 0l149 698h229l-149 -698h-229zM356 0q-1 66 -14 126t-45.5 103.5t-90.5 58.5l238 49
q59 -32 87.5 -83t38 -116t11.5 -138h-225z" />
    <glyph glyph-name="S" unicode="S" 
d="M298 -12q-85 0 -148 32.5t-96.5 91.5t-30.5 138h222q-4 -34 13 -56t52 -22q16 0 28.5 5.5t20 16t7.5 23.5q0 17 -15.5 28.5t-41 20.5t-56 19t-61.5 24t-56.5 35t-41 52t-15.5 75q0 71 37.5 124.5t105.5 84t160 30.5q84 0 146.5 -29.5t96 -83t29.5 -126.5h-221
q0 28 -17.5 41.5t-41.5 13.5q-15 0 -27 -4t-19 -12.5t-7 -21.5q0 -15 15.5 -25t41.5 -18.5t56.5 -17.5t61 -22.5t56.5 -34t41.5 -50.5t15.5 -74q0 -78 -39 -136t-109 -90t-163 -32z" />
    <glyph glyph-name="T" unicode="T" 
d="M151 0l109 514h-182l40 184h593l-40 -184h-182l-109 -514h-229z" />
    <glyph glyph-name="U" unicode="U" 
d="M286 -12q-96 0 -162 33t-93.5 95t-9.5 147l93 435h229l-95 -445q-5 -25 0.5 -43.5t20.5 -28t37 -9.5q23 0 39.5 9.5t28 28t16.5 43.5l95 445h229l-93 -435q-18 -85 -60 -147t-110 -95t-165 -33z" />
    <glyph glyph-name="V" unicode="V" 
d="M104 0l6 698h215l-18 -376l-14 -155l52 155l143 376h232l-294 -698h-322z" />
    <glyph glyph-name="W" unicode="W" 
d="M7 0l92 698h179l-43 -264l-40 -239l63 239l81 264h142l-32 -264l-33 -239l58 239l74 264h181l-210 -698h-230l23 156l22 177l-49 -177l-43 -156h-235z" />
    <glyph glyph-name="X" unicode="X" 
d="M-44 0l211 356l-61 342h237l15 -126l-4 -128l55 127l71 127h240l-207 -338l62 -360h-228l-17 106l-12 110l-56 -110l-61 -106h-245z" />
    <glyph glyph-name="Y" unicode="Y" 
d="M147 0l60 281l-107 417h214l20 -128l16 -139l74 143l71 124h232l-291 -417l-60 -281h-229z" />
    <glyph glyph-name="Z" unicode="Z" 
d="M-29 0l33 154l269 266l123 94h-162h-144l40 184h577l-33 -154l-278 -267l-125 -92l162 -1h164l-39 -184h-587z" />
    <glyph glyph-name="bracketleft" unicode="[" 
d="M81 -99l170 797h215l-170 -797h-215zM157 -99l35 163h264l-35 -163h-264zM292 535l35 163h264l-35 -163h-264z" />
    <glyph glyph-name="backslash" unicode="\" 
d="M542 -99h-209l-218 797h209z" />
    <glyph glyph-name="bracketright" unicode="]" 
d="M407 -99h-215l170 797h215zM331 -99h-264l35 163h264zM466 535h-264l35 163h264z" />
    <glyph glyph-name="asciicircum" unicode="^" 
d="M63 324l272 374h157l113 -374h-190l-38 178l-115 -178h-199z" />
    <glyph glyph-name="underscore" unicode="_" 
d="M-45 -185v185h580v-185h-580z" />
    <glyph glyph-name="grave" unicode="`" 
d="M507 615h-144l-83 173h177z" />
    <glyph glyph-name="a" unicode="a" 
d="M326 0l11 73l63 297q4 19 -2 32t-20 19.5t-33 6.5q-30 0 -46 -11.5t-21 -34.5h-208q13 56 47.5 99.5t94 68.5t145.5 25q93 0 155 -27.5t88 -81.5t9 -133l-71 -333h-212zM202 -12q-53 0 -90 23.5t-55.5 59.5t-18.5 74q0 62 30.5 108t85.5 71t129 25h129l-31 -134l-103 -2
q-23 -1 -33 -11t-10 -24t10.5 -22.5t29.5 -8.5q28 0 52.5 10t40.5 29l-6 -113q-35 -42 -71.5 -63.5t-88.5 -21.5z" />
    <glyph glyph-name="b" unicode="b" 
d="M428 575q65 0 110.5 -29t69 -80.5t23.5 -119.5t-18 -132t-55 -115t-93 -81t-131 -30q-43 0 -76 15t-56 43l-13 -46h-211l157 740h216l-47 -221q23 25 56.5 40.5t67.5 15.5zM311 163q33 0 55 22.5t33 56t11 66.5q0 44 -18 68t-50 24q-20 0 -38 -12t-36 -38l-24 -122
q3 -30 19.5 -47.5t47.5 -17.5z" />
    <glyph glyph-name="c" unicode="c" 
d="M299 -12q-81 0 -140.5 31t-92 86.5t-32.5 126.5q0 80 25.5 143t71 108t105 68.5t126.5 23.5q84 0 143.5 -31t89.5 -87.5t23 -134.5h-208q4 36 -8.5 57.5t-47.5 21.5q-22 0 -40 -11.5t-31.5 -32.5t-21 -51t-7.5 -67q0 -36 18 -58.5t46 -22.5q30 0 51 19t28 56h208
q-15 -74 -52 -129t-99.5 -85.5t-154.5 -30.5z" />
    <glyph glyph-name="d" unicode="d" 
d="M314 575q47 0 78.5 -15t53.5 -41l47 221h216l-158 -740h-211l7 46q-28 -27 -58 -42.5t-71 -15.5q-63 0 -107.5 29.5t-68 82t-23.5 120.5q0 71 19.5 135t57 113.5t92.5 78t126 28.5zM307 163q24 0 41.5 14t33.5 36l24 122q-4 30 -19.5 47.5t-45.5 17.5q-34 0 -56.5 -22.5
t-33.5 -57t-11 -69.5q0 -19 5.5 -39.5t20 -34.5t41.5 -14z" />
    <glyph glyph-name="e" unicode="e" 
d="M301 -12q-80 0 -141 29t-95 86.5t-34 141.5q0 63 22 122t64.5 106t104 74.5t141.5 27.5q98 0 160 -40t85 -115t1 -181h-423l28 124l204 1q2 26 -15.5 43.5t-49.5 17.5q-40 0 -63 -22.5t-33 -63.5t-10 -97q0 -24 8.5 -43t24 -30t35.5 -11q30 0 47.5 11t24.5 29h212
q-15 -59 -49.5 -107t-94.5 -75.5t-154 -27.5z" />
    <glyph glyph-name="f" unicode="f" 
d="M123 0l134 628q24 112 93.5 162t195.5 50h176l-37 -172h-144q-33 0 -49.5 -16.5t-22.5 -43.5l-130 -608h-216zM96 391l37 172h466l-37 -172h-466zM-2 0l37 172h535l-37 -172h-535z" />
    <glyph glyph-name="g" unicode="g" 
d="M452 523l12 40h210l-111 -521q-26 -123 -107 -177.5t-214 -54.5q-81 0 -143.5 22.5t-97.5 68t-36 112.5h224q1 -20 19 -32t48 -12q35 0 58.5 15t33.5 60l12 54q-25 -28 -56 -40.5t-71 -12.5q-66 0 -113 28.5t-71.5 80t-24.5 119.5q0 61 20.5 115.5t58 96.5t89 66
t113.5 24q47 0 86.5 -13t60.5 -39zM310 201q29 0 49.5 17.5t35.5 46.5l20 91q-4 29 -22.5 46.5t-45.5 17.5q-32 0 -55.5 -18t-36.5 -48.5t-13 -70.5q0 -37 17 -59.5t51 -22.5z" />
    <glyph glyph-name="h" unicode="h" 
d="M331 0l71 333q5 26 -5.5 42.5t-33.5 16.5q-33 0 -59.5 -20.5t-67.5 -63.5l19 155q56 59 108 85.5t101 26.5q60 0 101 -26t57 -73.5t2 -114.5l-77 -361h-216zM-22 0l157 740h216l-157 -740h-216z" />
    <glyph glyph-name="i" unicode="i" 
d="M177 0l120 563h216l-120 -563h-216zM-3 0l37 172h548l-37 -172h-548zM150 391l37 172h218l-37 -172h-218zM310 617l36 168h218l-36 -168h-218z" />
    <glyph glyph-name="j" unicode="j" 
d="M613 563l-116 -547q-19 -88 -80 -141t-166 -53h-272l37 172h220q25 0 35 11.5t14 30.5l112 527h216zM250 391l37 172h138l-37 -172h-138zM408 617l36 168h218l-36 -168h-218z" />
    <glyph glyph-name="k" unicode="k" 
d="M-20 0l157 740h216l-32 -153l-61 -182l136 139l22 19h272l-451 -362l-43 -201h-216zM337 0l-83 322l190 89l115 -411h-222z" />
    <glyph glyph-name="l" unicode="l" 
d="M157 0l157 740h216l-157 -740h-216zM-13 0l37 172h558l-37 -172h-558zM168 568l36 172h218l-36 -172h-218z" />
    <glyph glyph-name="m" unicode="m" 
d="M401 0l78 366q4 19 -2 27.5t-17 8.5q-19 0 -35.5 -28t-43.5 -97l11 101q9 89 50.5 143t106.5 54q36 0 62 -18t36 -53.5t-2 -89.5l-88 -414h-156zM-28 0l120 563h150l-15 -98l-99 -465h-156zM187 0l78 366q4 19 -2 27.5t-17 8.5q-20 0 -34.5 -27t-41.5 -98l25 108
q6 58 28.5 100.5t55 66t65.5 23.5q50 0 76.5 -44t11.5 -115l-89 -416h-156z" />
    <glyph glyph-name="n" unicode="n" 
d="M335 0l71 333q5 26 -5.5 42.5t-33.5 16.5q-33 0 -59.5 -20.5t-67.5 -63.5l19 155q56 59 108 85.5t101 26.5q60 0 101 -26t57 -73.5t2 -114.5l-77 -361h-216zM-18 0l120 563h211l-11 -73l-104 -490h-216z" />
    <glyph glyph-name="o" unicode="o" 
d="M295 -12q-81 0 -141.5 29.5t-94 84t-33.5 128.5q0 104 41 181.5t115.5 120.5t172.5 43q81 0 141.5 -29.5t93.5 -83.5t33 -128q0 -104 -41 -182t-115 -121t-172 -43zM305 160q29 0 51 20.5t35 57.5t14 87q1 35 -15 56.5t-45 21.5t-52 -20.5t-36 -57t-13 -86.5
q0 -24 7.5 -41.5t21 -27.5t32.5 -10z" />
    <glyph glyph-name="p" unicode="p" 
d="M429 575q65 0 110 -29.5t68.5 -80.5t23.5 -118q0 -72 -19 -136.5t-56.5 -115t-92.5 -79t-127 -28.5q-48 0 -78.5 15.5t-53.5 40.5l-47 -223h-216l157 742h211l-7 -46q27 27 59.5 42.5t67.5 15.5zM311 163q35 0 56.5 24t32 58t10.5 64q0 29 -8 49.5t-23 31t-36 10.5
q-27 0 -43.5 -15t-31.5 -35l-24 -122q3 -30 19.5 -47.5t47.5 -17.5z" />
    <glyph glyph-name="q" unicode="q" 
d="M317 575q42 0 74 -15t55 -41l14 44h211l-157 -741h-215l48 225q-24 -26 -56 -42.5t-70 -16.5q-61 0 -106.5 27.5t-70.5 80.5t-25 130q0 61 17.5 122.5t54 113t92.5 82.5t134 31zM307 163q23 0 41 13t34 37l24 122q-3 30 -19.5 47.5t-45.5 17.5q-36 0 -58 -24t-32.5 -57.5
t-10.5 -64.5q0 -43 17.5 -67t49.5 -24z" />
    <glyph glyph-name="r" unicode="r" 
d="M381 247l17 81q7 33 0.5 51t-33.5 18q-20 0 -51 -18t-69 -59l12 142q35 34 63.5 59.5t62.5 39.5t82 14q59 0 98 -30.5t53 -86t-2 -130.5l-17 -81h-216zM-18 0l120 563h211l-11 -73l-104 -490h-216z" />
    <glyph glyph-name="s" unicode="s" 
d="M294 -12q-46 0 -91.5 13t-83 38t-60 61.5t-22.5 84.5h188q3 -25 21 -38t57 -13q29 0 48.5 10t19.5 27q0 16 -20.5 25t-52.5 15.5t-68 16t-68.5 27t-53 47.5t-20.5 78q0 65 34.5 108.5t95.5 65t139 21.5q63 0 117 -20t89 -61.5t39 -106.5h-188q-5 20 -22 31t-44 11
q-28 0 -43 -9t-15 -23q0 -15 20.5 -23t52.5 -14t68.5 -15t68.5 -26t52.5 -46.5t20.5 -78.5q0 -70 -35.5 -115.5t-98.5 -68t-145 -22.5z" />
    <glyph glyph-name="t" unicode="t" 
d="M306 0q-64 0 -108.5 20t-62.5 67t-1 128l97 459l234 86l-112 -527q-6 -31 2 -43.5t28 -15t49 -2.5h132l-37 -172h-221zM60 391l37 172h466l-37 -172h-466z" />
    <glyph glyph-name="u" unicode="u" 
d="M315 563l-71 -333q-5 -26 5.5 -42.5t33.5 -16.5q33 0 59.5 20.5t67.5 63.5l-19 -155q-56 -59 -108 -85.5t-101 -26.5q-60 0 -101 26t-57 73.5t-2 114.5l77 361h216zM668 563l-120 -563h-211l11 73l104 490h216z" />
    <glyph glyph-name="v" unicode="v" 
d="M137 0l-68 563h219l10 -229l-2 -153l65 153l104 229h233l-307 -563h-254z" />
    <glyph glyph-name="w" unicode="w" 
d="M25 0l42 563h168l-32 -272l-18 -108l28 108l89 272h160l-22 -272l-19 -117l31 117l83 272h167l-194 -563h-193l18 289l18 116l-31 -116l-104 -289h-191z" />
    <glyph glyph-name="x" unicode="x" 
d="M458 284l113 -284h-234l-21 68l-15 84l-52 -84l-47 -68h-245l237 284l-112 279h233l19 -58l19 -88l53 86l41 60h236z" />
    <glyph glyph-name="y" unicode="y" 
d="M302 419l10 -150l65 133l90 161h230l-364 -578q-37 -59 -75 -98t-88 -58t-125 -19h-116l37 174h65q35 0 54.5 7.5t32.5 21.5t27 36l20 30l-97 484h216z" />
    <glyph glyph-name="z" unicode="z" 
d="M7 0l33 156l161 142l117 90l-151 1h-68l37 174h507l-33 -153l-166 -146l-117 -89l151 -1h82l-37 -174h-516z" />
    <glyph glyph-name="braceleft" unicode="{" 
d="M331 -99q-62 0 -106 23t-62 68t-3 111l15 67q8 35 -5 50t-51 15l29 135q34 0 53.5 10.5t26.5 40.5l24 106q12 51 42.5 89.5t80 60t116.5 21.5h110l-35 -163h-40q-31 0 -48.5 -16t-24.5 -48l-13 -64q-8 -42 -34 -67t-63 -38t-80 -19l11 43q39 -8 69.5 -22.5t45.5 -40
t6 -66.5l-15 -69q-7 -31 6.5 -47.5t44.5 -16.5h35l-35 -163h-100z" />
    <glyph glyph-name="bar" unicode="|" 
d="M112 -190l198 931h226l-198 -931h-226z" />
    <glyph glyph-name="braceright" unicode="}" 
d="M167 -99h-110l34 163h35q32 0 51.5 13t26.5 51l15 69q9 41 34.5 66.5t62.5 40t79 22.5l-8 -43q-40 6 -71.5 19t-46.5 38t-6 67l14 64q7 32 -6 48t-45 16h-35l35 163h100q67 0 110 -23t59 -67.5t2 -111.5l-15 -72q-6 -31 10 -42.5t47 -11.5l-28 -135q-31 0 -52 -10
t-29 -45l-20 -95q-12 -57 -44 -98.5t-82 -63.5t-117 -22z" />
    <glyph glyph-name="asciitilde" unicode="~" 
d="M418 183q-38 0 -64.5 10t-45 22.5t-34 22.5t-32.5 10q-23 0 -35 -14.5t-19 -46.5h-182q11 79 42 132t80.5 80t112.5 27q39 0 65.5 -9.5t45.5 -22.5t34 -22.5t31 -9.5q22 0 34 13t19 46h183q-11 -73 -41.5 -126.5t-79 -82.5t-114.5 -29z" />
    <glyph glyph-name="uni00A0" unicode="&#xa0;" 
 />
    <glyph glyph-name="exclamdown" unicode="&#xa1;" 
d="M278 563h211l-43 -205h-211zM414 321l-34 -315l-30 -141h-228l30 141l100 315h162z" />
    <glyph glyph-name="cent" unicode="&#xa2;" 
d="M271 527l27 131h214l-27 -131h-214zM139 -94l25 122h214l-25 -122h-214zM299 -12q-81 0 -140.5 31t-92 86.5t-32.5 126.5q0 80 25.5 143t71 108t105 68.5t126.5 23.5q84 0 143.5 -31t89.5 -87.5t23 -134.5h-208q4 36 -8.5 57.5t-47.5 21.5q-22 0 -40 -11.5t-31.5 -32.5
t-21 -51t-7.5 -67q0 -36 18 -58.5t46 -22.5q30 0 51 19t28 56h208q-15 -74 -52 -129t-99.5 -85.5t-154.5 -30.5z" />
    <glyph glyph-name="sterling" unicode="&#xa3;" 
d="M-4 0l39 184q40 19 62.5 39t31.5 41.5t9 44.5q0 21 -8.5 45t-17 54t-8.5 67q0 67 33 120t93.5 84t143.5 31q78 0 136 -27t88.5 -80.5t24.5 -135.5h-215q2 27 -7.5 43t-31.5 16q-16 0 -26 -7.5t-14.5 -20t-4.5 -27.5q0 -25 8.5 -48.5t17 -46.5t8.5 -48q0 -33 -16 -69.5
t-51 -70t-93 -56.5l-2 52h364l-39 -184h-525zM40 271l26 120h464l-26 -120h-464z" />
    <glyph glyph-name="currency" unicode="&#xa4;" 
d="M144 446l-122 144l133 125l133 -156zM155 -42l-133 125l122 144l144 -113zM518 -42l-133 156l144 113l122 -144zM529 446l-144 113l133 156l133 -125zM340 24q-79 0 -142 41t-99.5 111.5t-36.5 159.5q0 88 36.5 158.5t99.5 112t142 41.5q80 0 143 -41.5t99 -112
t36 -158.5t-36 -159t-99 -112t-143 -41zM339 188q32 0 56 18.5t37 51.5t13 78t-13 78.5t-37 52t-56 18.5q-31 0 -54.5 -18.5t-36.5 -52t-13 -78.5t13 -78t36.5 -51.5t54.5 -18.5z" />
    <glyph glyph-name="yen" unicode="&#xa5;" 
d="M46 252l26 120h538l-26 -120h-538zM147 0l60 281l-107 417h214l20 -128l16 -139l74 143l71 124h232l-291 -417l-60 -281h-229z" />
    <glyph glyph-name="brokenbar" unicode="&#xa6;" 
d="M229 361l81 380h226l-81 -380h-226zM112 -190l81 380h226l-81 -380h-226z" />
    <glyph glyph-name="section" unicode="&#xa7;" 
d="M273 -190q-82 0 -146 27.5t-101 79.5t-39 126h222q1 -32 18.5 -49t45.5 -17q18 0 29.5 4.5t18 13t5.5 19.5q0 14 -16.5 23t-42.5 16t-57.5 14t-63 18t-57.5 28.5t-42 44t-16 65.5q0 49 25 84.5t63 60.5q-17 20 -30 49t-13 60q0 73 36 125t101 80t150 28q71 0 132.5 -27
t101.5 -76.5t44 -119.5h-226q-1 26 -16 41t-42 15q-19 0 -32 -9.5t-13 -24.5q0 -16 15.5 -26t40.5 -17t55.5 -15t61 -19.5t55.5 -30.5t40.5 -49t15.5 -74q0 -40 -19.5 -74t-57.5 -66q16 -16 30.5 -43t14.5 -56q0 -73 -38.5 -124t-104 -78t-148.5 -27zM366 221q4 6 6.5 11.5
t2.5 12.5q0 12 -10 18.5t-25.5 11t-34.5 9t-37 10.5q-6 -7 -9 -12.5t-3 -12.5q0 -10 6 -16t16.5 -10t24.5 -7t30 -6.5t33 -8.5z" />
    <glyph glyph-name="dieresis" unicode="&#xa8;" horiz-adv-x="651" 
d="M489 624l34 158h188l-34 -158h-188zM235 624l34 158h188l-34 -158h-188z" />
    <glyph glyph-name="copyright" unicode="&#xa9;" 
d="M344 167q-47 0 -82 23.5t-54 66t-19 99.5t19 98t54 63.5t82 21.5q62 -1 100 -44.5t39 -114.5h-99q-1 28 -12.5 44.5t-29.5 16.5q-21 0 -34 -23t-13 -61q0 -43 13 -68.5t35 -25.5q18 0 29.5 17.5t12.5 45.5h99q-4 -72 -42.5 -115.5t-97.5 -43.5zM339 -12q-88 0 -157 46
t-108 127.5t-39 186.5q0 106 39 187.5t108 128t157 46.5q89 0 158 -46.5t108 -128t39 -187.5q0 -105 -39 -186.5t-108 -127.5t-158 -46zM337 74q59 0 104.5 35t71.5 97t26 142q0 81 -26 143t-71.5 97.5t-104.5 35.5q-57 0 -102 -35.5t-70.5 -97.5t-25.5 -143
q0 -80 25.5 -142t70.5 -97t102 -35z" />
    <glyph glyph-name="ordfeminine" unicode="&#xaa;" 
d="M371 318l12 68l37 177q5 25 -5 34.5t-30 9.5q-19 0 -30 -8.5t-15 -22.5h-142q14 68 61.5 100t133.5 32q54 0 97 -17.5t64 -52t10 -86.5l-50 -234h-143zM291 311q-29 0 -56.5 12t-45 37.5t-17.5 65.5q0 41 21.5 71t61 47t93.5 17h82l-20 -98l-62 -1q-13 0 -21 -6t-8 -16
q0 -9 7 -13.5t20 -4.5q34 0 54.5 24.5t38.5 76.5v-82q-14 -59 -55.5 -94.5t-92.5 -35.5z" />
    <glyph glyph-name="guillemotleft" unicode="&#xab;" 
d="M103 58l-98 218l191 218h202l-201 -222l102 -214h-196zM385 58l-98 218l191 218h202l-201 -222l102 -214h-196z" />
    <glyph glyph-name="logicalnot" unicode="&#xac;" 
d="M330 105l63 292h214l-63 -292h-214zM53 213l40 184h514l-40 -184h-514z" />
    <glyph glyph-name="uni00AD" unicode="&#xad;" 
d="M116 213l40 185h387l-40 -185h-387z" />
    <glyph glyph-name="registered" unicode="&#xae;" 
d="M330 465v60h47q10 0 16.5 6t6.5 16q0 9 -6.5 14t-15.5 5h-48v59h50q46 0 71 -19t25 -59q0 -36 -29 -59t-67 -23h-50zM284 402v223h76v-223h-76zM402 402q0 12 -3 27.5t-14 29.5t-36 19l65 23q28 -18 45.5 -41t22.5 -58h-80zM373 283q-71 0 -125.5 30t-85 82t-30.5 117
q0 64 30.5 116t85 83t125.5 31q72 0 126.5 -31t84.5 -83t30 -116t-30 -116t-84.5 -82.5t-126.5 -30.5zM372 346q49 0 87 20.5t60 58t22 87.5q0 51 -22 88.5t-60 58t-87 20.5q-48 0 -85.5 -20.5t-59 -58t-21.5 -88.5q0 -50 21.5 -87.5t59 -58t85.5 -20.5z" />
    <glyph glyph-name="macron" unicode="&#xaf;" 
d="M285 634l29 137h392l-29 -137h-392z" />
    <glyph glyph-name="degree" unicode="&#xb0;" 
d="M359 340q-54 0 -95.5 20.5t-65.5 57t-24 83.5q0 61 28 108t77.5 74t112.5 27q55 0 97 -21t66 -57.5t24 -84.5q0 -60 -28.5 -107t-78 -73.5t-113.5 -26.5zM367 462q13 0 23.5 5.5t18.5 16t12 24.5t4 31q0 23 -11.5 36t-29.5 13q-13 0 -23 -5.5t-17.5 -16t-11.5 -25
t-4 -32.5q0 -22 10.5 -34.5t28.5 -12.5z" />
    <glyph glyph-name="plusminus" unicode="&#xb1;" 
d="M78 351l39 183h524l-39 -183h-524zM219 221l95 445h185l-95 -445h-185zM12 0l40 184h514l-40 -184h-514z" />
    <glyph glyph-name="uni00B2" unicode="&#xb2;" 
d="M152 309l22 102q43 24 86.5 50.5t80 53.5t58.5 52t22 46q0 14 -7 22.5t-21 8.5q-19 0 -29.5 -15t-12.5 -40h-147q11 87 61.5 131t141.5 43q51 0 89 -17t59 -46.5t21 -70.5q0 -38 -25.5 -75.5t-65 -69.5t-80.5 -55h137l-26 -120h-364z" />
    <glyph glyph-name="uni00B3" unicode="&#xb3;" 
d="M353 293q-84 0 -132 48t-44 127h147q-4 -24 6 -38.5t30 -14.5q16 0 25 9.5t9 25.5q0 14 -10 22t-27 8h-20l21 96h21q16 0 25 9.5t9 25.5q0 11 -7 17t-18 6q-15 0 -23.5 -9t-10.5 -26h-147q7 71 59.5 113.5t135.5 42.5q51 0 89 -16.5t59.5 -44t21.5 -61.5q0 -36 -21 -62.5
t-57 -41.5q26 -13 41.5 -38t15.5 -54q0 -65 -54 -104.5t-144 -39.5z" />
    <glyph glyph-name="acute" unicode="&#xb4;" 
d="M393 615l120 173h197l-153 -173h-164z" />
    <glyph glyph-name="uni00B5" unicode="&#xb5;" 
d="M-51 -190l109 509h215l-53 -247l-28 -19l-51 -243h-192zM325 563l-71 -333q-5 -26 5.5 -42.5t33.5 -16.5q33 0 59.5 20.5t67.5 63.5l-19 -155q-56 -59 -107.5 -85.5t-101.5 -26.5q-60 0 -101 26t-57 74t-2 114l77 361h216zM678 563l-120 -563h-211l11 73l104 490h216z
" />
    <glyph glyph-name="paragraph" unicode="&#xb6;" 
d="M134 -190l87 411q-72 14 -114.5 68t-42.5 132q0 75 32.5 138t93 101t143.5 38h146l-189 -888h-156zM370 -190l189 888h156l-189 -888h-156z" />
    <glyph glyph-name="periodcentered" unicode="&#xb7;" 
d="M165 191l42 195h201l-42 -195h-201z" />
    <glyph glyph-name="cedilla" unicode="&#xb8;" 
d="M357 -222q-27 0 -49.5 4t-48.5 13l16 77q13 -4 30.5 -9t36.5 -5q17 0 27 5t10 13t-8 11.5t-20 3.5q-10 0 -19 -1.5t-18 -4.5l-16 45l86 103l81 -26l-42 -47h4h3q36 0 64 -20t28 -56q0 -39 -24.5 -62.5t-62.5 -33.5t-78 -10z" />
    <glyph glyph-name="uni00B9" unicode="&#xb9;" 
d="M287 301l63 294l-171 -103l31 147l186 109h136l-95 -447h-150zM164 421h413l-26 -120h-413z" />
    <glyph glyph-name="ordmasculine" unicode="&#xba;" 
d="M345 314q-45 0 -83.5 18t-62 53t-23.5 84q0 66 27.5 120t78.5 86.5t123 32.5q45 0 83 -18t60.5 -52.5t22.5 -84.5q0 -66 -26.5 -120t-77 -86.5t-122.5 -32.5zM358 422q25 0 40.5 20.5t23.5 49.5t8 53q0 25 -11 39.5t-28 14.5q-25 0 -41 -20.5t-23.5 -49t-7.5 -53.5
t11 -39.5t28 -14.5z" />
    <glyph glyph-name="guillemotright" unicode="&#xbb;" 
d="M171 58h-202l200 222l-103 214h197l98 -218zM453 58h-202l200 222l-103 214h197l98 -218z" />
    <glyph glyph-name="onequarter" unicode="&#xbc;" horiz-adv-x="1300" 
d="M236 251l63 294l-171 -103l31 147l186 109h136l-95 -447h-150zM113 371h413l-26 -120h-413zM309 0l589 698h162l-591 -698h-160zM885 0l18 83h-205l26 121l221 243h185l-52 -244h79l-25 -120h-79l-18 -83h-150zM862 203h66l22 104z" />
    <glyph glyph-name="onehalf" unicode="&#xbd;" horiz-adv-x="1300" 
d="M236 251l63 294l-171 -103l31 147l186 109h136l-95 -447h-150zM113 371h413l-26 -120h-413zM309 0l589 698h162l-591 -698h-160zM756 0l22 102q43 24 86.5 50.5t80 53.5t58.5 52t22 46q0 14 -7 22.5t-21 8.5q-19 0 -29.5 -15t-12.5 -40h-147q11 87 61.5 131t141.5 43
q51 0 89 -17t59 -46.5t21 -70.5q0 -38 -25.5 -75.5t-65 -69.5t-80.5 -55h137l-26 -120h-364z" />
    <glyph glyph-name="threequarters" unicode="&#xbe;" horiz-adv-x="1300" 
d="M322 243q-84 0 -132 48t-44 127h147q-4 -24 6 -38.5t30 -14.5q16 0 25 9.5t9 25.5q0 14 -10 22t-27 8h-20l21 96h21q16 0 25 9.5t9 25.5q0 11 -7 17t-18 6q-15 0 -23.5 -9t-10.5 -26h-147q7 71 59.5 113.5t135.5 42.5q51 0 89 -16.5t59.5 -44t21.5 -61.5q0 -36 -21 -62.5
t-57 -41.5q26 -13 41.5 -38t15.5 -54q0 -65 -54 -104.5t-144 -39.5zM295 0l589 698h162l-591 -698h-160zM885 0l18 83h-205l26 121l221 243h185l-52 -244h79l-25 -120h-79l-18 -83h-150zM862 203h66l22 104z" />
    <glyph glyph-name="questiondown" unicode="&#xbf;" 
d="M390 335l-2 -16q-5 -38 -19.5 -65.5t-34 -47.5t-40 -35.5t-39 -30t-29.5 -31t-11 -37.5q0 -23 13.5 -37t38.5 -14q41 0 59.5 28t18.5 75h215q-4 -87 -41 -147t-105.5 -91.5t-164.5 -31.5q-68 0 -124.5 23t-90.5 67t-34 108q0 43 13.5 74t35.5 53.5t47 39.5t49 32t42 31.5
t24 38.5l4 14h175zM453 564l-42 -195h-201l42 195h201z" />
    <glyph glyph-name="Agrave" unicode="&#xc0;" 
d="M75 123l38 175h443l-38 -175h-443zM252 698h322l-4 -698h-231l28 286l9 245l-95 -245l-91 -286h-230zM514 750h-144l-83 173h177z" />
    <glyph glyph-name="Aacute" unicode="&#xc1;" 
d="M75 123l38 175h443l-38 -175h-443zM252 698h322l-4 -698h-231l28 286l9 245l-95 -245l-91 -286h-230zM324 749l120 173h197l-153 -173h-164z" />
    <glyph glyph-name="Acircumflex" unicode="&#xc2;" 
d="M75 123l38 175h443l-38 -175h-443zM252 698h322l-4 -698h-231l28 286l9 245l-95 -245l-91 -286h-230zM186 749l151 173h234l81 -173h-191l-26 78l-51 -78h-198z" />
    <glyph glyph-name="Atilde" unicode="&#xc3;" 
d="M75 123l38 175h443l-38 -175h-443zM252 698h322l-4 -698h-231l28 286l9 245l-95 -245l-91 -286h-230zM329 741l-144 23q19 76 61 120.5t106 44.5q39 0 64.5 -8t44 -16.5t35.5 -8.5q14 0 26 10.5t17 28.5l147 -22q-21 -76 -63.5 -120.5t-107.5 -44.5q-34 0 -60.5 9
t-47 17.5t-38.5 8.5q-13 0 -23.5 -11t-16.5 -31z" />
    <glyph glyph-name="Adieresis" unicode="&#xc4;" 
d="M75 123l38 175h443l-38 -175h-443zM252 698h322l-4 -698h-231l28 286l9 245l-95 -245l-91 -286h-230zM455 758l34 158h188l-34 -158h-188zM201 758l34 158h188l-34 -158h-188z" />
    <glyph glyph-name="Aring" unicode="&#xc5;" 
d="M75 123l38 175h443l-38 -175h-443zM252 698h322l-4 -698h-231l28 286l9 245l-95 -245l-91 -286h-230zM427 720q-55 0 -89.5 31t-34.5 80q0 59 41.5 97t106.5 38q54 0 89 -31t35 -80q0 -59 -41.5 -97t-106.5 -38zM434 804q20 0 32.5 12.5t12.5 31.5q0 15 -10 24.5t-25 9.5
q-19 0 -32 -12t-13 -32q0 -15 10 -24.5t25 -9.5z" />
    <glyph glyph-name="AE" unicode="&#xc6;" 
d="M-54 0l353 698h174l-327 -698h-200zM144 106l39 184h174l-39 -184h-174zM277 0l149 698h299l-40 -184h-120l-15 -72h98l-37 -175h-98l-18 -83h124l-39 -184h-303z" />
    <glyph glyph-name="Ccedilla" unicode="&#xc7;" 
d="M310 -12q-82 0 -146.5 37t-101.5 102t-37 149q0 86 24 164.5t71 139t115.5 95.5t156.5 35q82 0 143 -34t93.5 -95t27.5 -143h-225q0 39 -12.5 63.5t-41.5 24.5q-31 0 -54 -24.5t-37 -62t-21 -77.5t-7 -71q0 -39 7.5 -65.5t23 -40t39.5 -13.5q32 0 52.5 26t26.5 66h225
q-21 -83 -58.5 -145.5t-101 -96.5t-162.5 -34zM281 -222q-27 0 -49.5 4t-48.5 13l16 77q13 -4 30.5 -9t36.5 -5q17 0 27 5t10 13t-8 11.5t-20 3.5q-10 0 -19 -1.5t-18 -4.5l-16 45l86 103l81 -26l-42 -47h4h3q36 0 64 -20t28 -56q0 -39 -24.5 -62.5t-62.5 -33.5t-78 -10z
" />
    <glyph glyph-name="Egrave" unicode="&#xc8;" 
d="M-14 0l149 698h552l-40 -184h-323l-15 -72h201l-37 -175h-201l-18 -83h327l-39 -184h-556zM508 751h-144l-83 173h177z" />
    <glyph glyph-name="Eacute" unicode="&#xc9;" 
d="M-14 0l149 698h552l-40 -184h-323l-15 -72h201l-37 -175h-201l-18 -83h327l-39 -184h-556zM318 750l120 173h197l-153 -173h-164z" />
    <glyph glyph-name="Ecircumflex" unicode="&#xca;" 
d="M-14 0l149 698h552l-40 -184h-323l-15 -72h201l-37 -175h-201l-18 -83h327l-39 -184h-556zM180 750l151 173h234l81 -173h-191l-26 78l-51 -78h-198z" />
    <glyph glyph-name="Edieresis" unicode="&#xcb;" 
d="M-14 0l149 698h552l-40 -184h-323l-15 -72h201l-37 -175h-201l-18 -83h327l-39 -184h-556zM449 759l34 158h188l-34 -158h-188zM195 759l34 158h188l-34 -158h-188z" />
    <glyph glyph-name="Igrave" unicode="&#xcc;" 
d="M150 0l149 698h229l-149 -698h-229zM161 698h505l-40 -184h-505zM51 184h505l-39 -184h-505zM513 751h-144l-83 173h177z" />
    <glyph glyph-name="Iacute" unicode="&#xcd;" 
d="M150 0l149 698h229l-149 -698h-229zM161 698h505l-40 -184h-505zM51 184h505l-39 -184h-505zM323 750l120 173h197l-153 -173h-164z" />
    <glyph glyph-name="Icircumflex" unicode="&#xce;" 
d="M150 0l149 698h229l-149 -698h-229zM161 698h505l-40 -184h-505zM51 184h505l-39 -184h-505zM185 750l151 173h234l81 -173h-191l-26 78l-51 -78h-198z" />
    <glyph glyph-name="Idieresis" unicode="&#xcf;" 
d="M150 0l149 698h229l-149 -698h-229zM161 698h505l-40 -184h-505zM51 184h505l-39 -184h-505zM454 759l34 158h188l-34 -158h-188zM200 759l34 158h188l-34 -158h-188z" />
    <glyph glyph-name="Eth" unicode="&#xd0;" 
d="M1 281l29 136h352l-29 -136h-352zM-28 0l149 698h234q74 0 129.5 -24.5t92 -65.5t54.5 -93t18 -108q0 -91 -31 -165.5t-88 -128.5t-134 -83.5t-170 -29.5h-254zM240 184h16q37 0 66 19t49 50t30.5 68.5t10.5 74.5q0 56 -24.5 87t-61.5 31h-16z" />
    <glyph glyph-name="Ntilde" unicode="&#xd1;" 
d="M-19 0l149 698h249l47 -430l28 230l43 200h202l-149 -698h-258l-44 413l-22 -212l-43 -201h-202zM341 742l-144 23q19 76 61 120.5t106 44.5q39 0 64.5 -8t44 -16.5t35.5 -8.5q14 0 26 10.5t17 28.5l147 -22q-21 -76 -63.5 -120.5t-107.5 -44.5q-34 0 -60.5 9t-47 17.5
t-38.5 8.5q-13 0 -23.5 -11t-16.5 -31z" />
    <glyph glyph-name="Ograve" unicode="&#xd2;" 
d="M293 -12q-79 0 -137 36t-89.5 98.5t-31.5 140.5q0 90 23 171t67.5 143t110 97.5t151.5 35.5q79 0 137 -35.5t89.5 -96.5t31.5 -140q0 -91 -23 -172t-67.5 -143.5t-110 -98.5t-151.5 -36zM309 172q24 0 45 19.5t37 54t25 81t9 99.5q0 50 -15 75t-39 25t-45 -19.5t-37 -54
t-25 -81t-9 -99.5q0 -33 7 -55t19 -33.5t28 -11.5zM492 752h-144l-83 173h177z" />
    <glyph glyph-name="Oacute" unicode="&#xd3;" 
d="M293 -12q-79 0 -137 36t-89.5 98.5t-31.5 140.5q0 90 23 171t67.5 143t110 97.5t151.5 35.5q79 0 137 -35.5t89.5 -96.5t31.5 -140q0 -91 -23 -172t-67.5 -143.5t-110 -98.5t-151.5 -36zM309 172q24 0 45 19.5t37 54t25 81t9 99.5q0 50 -15 75t-39 25t-45 -19.5t-37 -54
t-25 -81t-9 -99.5q0 -33 7 -55t19 -33.5t28 -11.5zM302 751l120 173h197l-153 -173h-164z" />
    <glyph glyph-name="Ocircumflex" unicode="&#xd4;" 
d="M293 -12q-79 0 -137 36t-89.5 98.5t-31.5 140.5q0 90 23 171t67.5 143t110 97.5t151.5 35.5q79 0 137 -35.5t89.5 -96.5t31.5 -140q0 -91 -23 -172t-67.5 -143.5t-110 -98.5t-151.5 -36zM309 172q24 0 45 19.5t37 54t25 81t9 99.5q0 50 -15 75t-39 25t-45 -19.5t-37 -54
t-25 -81t-9 -99.5q0 -33 7 -55t19 -33.5t28 -11.5zM164 751l151 173h234l81 -173h-191l-26 78l-51 -78h-198z" />
    <glyph glyph-name="Otilde" unicode="&#xd5;" 
d="M293 -12q-79 0 -137 36t-89.5 98.5t-31.5 140.5q0 90 23 171t67.5 143t110 97.5t151.5 35.5q79 0 137 -35.5t89.5 -96.5t31.5 -140q0 -91 -23 -172t-67.5 -143.5t-110 -98.5t-151.5 -36zM309 172q24 0 45 19.5t37 54t25 81t9 99.5q0 50 -15 75t-39 25t-45 -19.5t-37 -54
t-25 -81t-9 -99.5q0 -33 7 -55t19 -33.5t28 -11.5zM307 743l-144 23q19 76 61 120.5t106 44.5q39 0 64.5 -8t44 -16.5t35.5 -8.5q14 0 26 10.5t17 28.5l147 -22q-21 -76 -63.5 -120.5t-107.5 -44.5q-34 0 -60.5 9t-47 17.5t-38.5 8.5q-13 0 -23.5 -11t-16.5 -31z" />
    <glyph glyph-name="Odieresis" unicode="&#xd6;" 
d="M293 -12q-79 0 -137 36t-89.5 98.5t-31.5 140.5q0 90 23 171t67.5 143t110 97.5t151.5 35.5q79 0 137 -35.5t89.5 -96.5t31.5 -140q0 -91 -23 -172t-67.5 -143.5t-110 -98.5t-151.5 -36zM309 172q24 0 45 19.5t37 54t25 81t9 99.5q0 50 -15 75t-39 25t-45 -19.5t-37 -54
t-25 -81t-9 -99.5q0 -33 7 -55t19 -33.5t28 -11.5zM433 760l34 158h188l-34 -158h-188zM179 760l34 158h188l-34 -158h-188z" />
    <glyph glyph-name="multiply" unicode="&#xd7;" 
d="M148 46l-98 125l467 386l98 -125zM415 46l-308 393l143 118l308 -393z" />
    <glyph glyph-name="Oslash" unicode="&#xd8;" 
d="M293 -12q-79 0 -137 36t-89.5 98.5t-31.5 140.5q0 90 23 171t67.5 143t110 97.5t151.5 35.5q79 0 137 -35.5t89.5 -96.5t31.5 -140q0 -91 -23 -172t-67.5 -143.5t-110 -98.5t-151.5 -36zM314 154q29 0 53.5 21.5t43 60.5t29 92t10.5 116q0 44 -19 72t-52 28
q-28 0 -53 -21.5t-43.5 -60.5t-29 -92t-10.5 -116q0 -43 19 -71.5t52 -28.5zM149 -82l-136 67l537 805l136 -66z" />
    <glyph glyph-name="Ugrave" unicode="&#xd9;" 
d="M286 -12q-96 0 -162 33t-93.5 95t-9.5 147l93 435h229l-95 -445q-5 -25 0.5 -43.5t20.5 -28t37 -9.5q23 0 39.5 9.5t28 28t16.5 43.5l95 445h229l-93 -435q-18 -85 -60 -147t-110 -95t-165 -33zM509 751h-144l-83 173h177z" />
    <glyph glyph-name="Uacute" unicode="&#xda;" 
d="M286 -12q-96 0 -162 33t-93.5 95t-9.5 147l93 435h229l-95 -445q-5 -25 0.5 -43.5t20.5 -28t37 -9.5q23 0 39.5 9.5t28 28t16.5 43.5l95 445h229l-93 -435q-18 -85 -60 -147t-110 -95t-165 -33zM319 750l120 173h197l-153 -173h-164z" />
    <glyph glyph-name="Ucircumflex" unicode="&#xdb;" 
d="M286 -12q-96 0 -162 33t-93.5 95t-9.5 147l93 435h229l-95 -445q-5 -25 0.5 -43.5t20.5 -28t37 -9.5q23 0 39.5 9.5t28 28t16.5 43.5l95 445h229l-93 -435q-18 -85 -60 -147t-110 -95t-165 -33zM181 750l151 173h234l81 -173h-191l-26 78l-51 -78h-198z" />
    <glyph glyph-name="Udieresis" unicode="&#xdc;" 
d="M286 -12q-96 0 -162 33t-93.5 95t-9.5 147l93 435h229l-95 -445q-5 -25 0.5 -43.5t20.5 -28t37 -9.5q23 0 39.5 9.5t28 28t16.5 43.5l95 445h229l-93 -435q-18 -85 -60 -147t-110 -95t-165 -33zM450 759l34 158h188l-34 -158h-188zM196 759l34 158h188l-34 -158h-188z
" />
    <glyph glyph-name="Yacute" unicode="&#xdd;" 
d="M147 0l60 281l-107 417h214l20 -128l16 -139l74 143l71 124h232l-291 -417l-60 -281h-229zM310 750l120 173h197l-153 -173h-164z" />
    <glyph glyph-name="Thorn" unicode="&#xde;" 
d="M171 115l39 184h108q26 0 44.5 8.5t28.5 24.5t10 38q0 23 -17 41t-46 18h-101l39 184h110q79 0 135.5 -31t86.5 -81.5t30 -110.5q0 -83 -43 -145t-121.5 -96t-187.5 -34h-115zM-18 0l149 698h229l-149 -698h-229z" />
    <glyph glyph-name="germandbls" unicode="&#xdf;" 
d="M318 -11q-26 0 -50.5 2.5t-51.5 9.5l37 174q11 -5 28.5 -9.5t42.5 -4.5q44 0 70 23t26 61q0 30 -18 48t-56 18h-64l30 142h29q25 0 44.5 8.5t31 24t11.5 35.5q0 24 -13.5 38t-44.5 14q-40 0 -63 -23.5t-32 -66.5l-103 -483h-216l105 494q14 65 54 121t109.5 90.5
t170.5 34.5q78 0 134.5 -24t86.5 -66.5t30 -97.5q0 -59 -25 -94.5t-67 -55.5t-94 -33l5 41q57 0 94 -26t55.5 -65t18.5 -80q0 -75 -41.5 -131.5t-113 -87.5t-160.5 -31z" />
    <glyph glyph-name="agrave" unicode="&#xe0;" 
d="M326 0l11 73l63 297q4 19 -2 32t-20 19.5t-33 6.5q-30 0 -46 -11.5t-21 -34.5h-208q13 56 47.5 99.5t94 68.5t145.5 25q93 0 155 -27.5t88 -81.5t9 -133l-71 -333h-212zM202 -12q-53 0 -90 23.5t-55.5 59.5t-18.5 74q0 62 30.5 108t85.5 71t129 25h129l-31 -134l-103 -2
q-23 -1 -33 -11t-10 -24t10.5 -22.5t29.5 -8.5q28 0 52.5 10t40.5 29l-6 -113q-35 -42 -71.5 -63.5t-88.5 -21.5zM475 615h-144l-83 173h177z" />
    <glyph glyph-name="aacute" unicode="&#xe1;" 
d="M326 0l11 73l63 297q4 19 -2 32t-20 19.5t-33 6.5q-30 0 -46 -11.5t-21 -34.5h-208q13 56 47.5 99.5t94 68.5t145.5 25q93 0 155 -27.5t88 -81.5t9 -133l-71 -333h-212zM202 -12q-53 0 -90 23.5t-55.5 59.5t-18.5 74q0 62 30.5 108t85.5 71t129 25h129l-31 -134l-103 -2
q-23 -1 -33 -11t-10 -24t10.5 -22.5t29.5 -8.5q28 0 52.5 10t40.5 29l-6 -113q-35 -42 -71.5 -63.5t-88.5 -21.5zM285 614l120 173h197l-153 -173h-164z" />
    <glyph glyph-name="acircumflex" unicode="&#xe2;" 
d="M326 0l11 73l63 297q4 19 -2 32t-20 19.5t-33 6.5q-30 0 -46 -11.5t-21 -34.5h-208q13 56 47.5 99.5t94 68.5t145.5 25q93 0 155 -27.5t88 -81.5t9 -133l-71 -333h-212zM202 -12q-53 0 -90 23.5t-55.5 59.5t-18.5 74q0 62 30.5 108t85.5 71t129 25h129l-31 -134l-103 -2
q-23 -1 -33 -11t-10 -24t10.5 -22.5t29.5 -8.5q28 0 52.5 10t40.5 29l-6 -113q-35 -42 -71.5 -63.5t-88.5 -21.5zM147 614l151 173h234l81 -173h-191l-26 78l-51 -78h-198z" />
    <glyph glyph-name="atilde" unicode="&#xe3;" 
d="M326 0l11 73l63 297q4 19 -2 32t-20 19.5t-33 6.5q-30 0 -46 -11.5t-21 -34.5h-208q13 56 47.5 99.5t94 68.5t145.5 25q93 0 155 -27.5t88 -81.5t9 -133l-71 -333h-212zM202 -12q-53 0 -90 23.5t-55.5 59.5t-18.5 74q0 62 30.5 108t85.5 71t129 25h129l-31 -134l-103 -2
q-23 -1 -33 -11t-10 -24t10.5 -22.5t29.5 -8.5q28 0 52.5 10t40.5 29l-6 -113q-35 -42 -71.5 -63.5t-88.5 -21.5zM290 606l-144 23q19 76 61 120.5t106 44.5q39 0 64.5 -8t44 -16.5t35.5 -8.5q14 0 26 10.5t17 28.5l147 -22q-21 -76 -63.5 -120.5t-107.5 -44.5
q-34 0 -60.5 9t-47 17.5t-38.5 8.5q-13 0 -23.5 -11t-16.5 -31z" />
    <glyph glyph-name="adieresis" unicode="&#xe4;" 
d="M326 0l11 73l63 297q4 19 -2 32t-20 19.5t-33 6.5q-30 0 -46 -11.5t-21 -34.5h-208q13 56 47.5 99.5t94 68.5t145.5 25q93 0 155 -27.5t88 -81.5t9 -133l-71 -333h-212zM202 -12q-53 0 -90 23.5t-55.5 59.5t-18.5 74q0 62 30.5 108t85.5 71t129 25h129l-31 -134l-103 -2
q-23 -1 -33 -11t-10 -24t10.5 -22.5t29.5 -8.5q28 0 52.5 10t40.5 29l-6 -113q-35 -42 -71.5 -63.5t-88.5 -21.5zM416 623l34 158h188l-34 -158h-188zM162 623l34 158h188l-34 -158h-188z" />
    <glyph glyph-name="aring" unicode="&#xe5;" 
d="M326 0l11 73l63 297q4 19 -2 32t-20 19.5t-33 6.5q-30 0 -46 -11.5t-21 -34.5h-208q13 56 47.5 99.5t94 68.5t145.5 25q93 0 155 -27.5t88 -81.5t9 -133l-71 -333h-212zM202 -12q-53 0 -90 23.5t-55.5 59.5t-18.5 74q0 62 30.5 108t85.5 71t129 25h129l-31 -134l-103 -2
q-23 -1 -33 -11t-10 -24t10.5 -22.5t29.5 -8.5q28 0 52.5 10t40.5 29l-6 -113q-35 -42 -71.5 -63.5t-88.5 -21.5zM388 585q-55 0 -89.5 31t-34.5 80q0 59 41.5 97t106.5 38q54 0 89 -31t35 -80q0 -59 -41.5 -97t-106.5 -38zM395 669q20 0 32.5 12.5t12.5 31.5q0 15 -10 24.5
t-25 9.5q-19 0 -32 -12t-13 -32q0 -15 10 -24.5t25 -9.5z" />
    <glyph glyph-name="ae" unicode="&#xe6;" 
d="M194 119l58 268q4 19 2 31t-8 17.5t-15 5.5q-15 0 -27 -15t-17 -42h-157q23 89 79 140t136 51q63 0 101.5 -26t51.5 -73t0 -109l-53 -248h-151zM124 -12q-67 0 -102.5 41.5t-35.5 98.5q0 64 29 110.5t80 72t118 25.5h40l-26 -119h-20q-31 0 -49 -17t-18 -41
q0 -14 7.5 -23.5t19.5 -9.5q22 0 36 27.5t28 101.5l73 -92q-25 -90 -67 -132.5t-113 -42.5zM388 -12q-52 0 -91 22t-60 64t-21 100q0 45 10 99t30.5 107t52 97t73 71t94.5 27q59 0 94.5 -25t51.5 -69.5t16.5 -101.5t-10.5 -122h-274l26 111h105q4 20 3 36.5t-7.5 26.5
t-20.5 10q-20 0 -35 -20.5t-25 -52t-16 -65t-8.5 -61t-2.5 -39.5q0 -21 4 -36t12 -23.5t19 -8.5q17 0 32 14.5t24 45.5h154q-25 -98 -87 -152.5t-143 -54.5z" />
    <glyph glyph-name="ccedilla" unicode="&#xe7;" 
d="M299 -12q-81 0 -140.5 31t-92 86.5t-32.5 126.5q0 80 25.5 143t71 108t105 68.5t126.5 23.5q84 0 143.5 -31t89.5 -87.5t23 -134.5h-208q4 36 -8.5 57.5t-47.5 21.5q-22 0 -40 -11.5t-31.5 -32.5t-21 -51t-7.5 -67q0 -36 18 -58.5t46 -22.5q30 0 51 19t28 56h208
q-15 -74 -52 -129t-99.5 -85.5t-154.5 -30.5zM252 -222q-27 0 -49.5 4t-48.5 13l16 77q13 -4 30.5 -9t36.5 -5q17 0 27 5t10 13t-8 11.5t-20 3.5q-10 0 -19 -1.5t-18 -4.5l-16 45l86 103l81 -26l-42 -47h4h3q36 0 64 -20t28 -56q0 -39 -24.5 -62.5t-62.5 -33.5t-78 -10z" />
    <glyph glyph-name="egrave" unicode="&#xe8;" 
d="M301 -12q-80 0 -141 29t-95 86.5t-34 141.5q0 63 22 122t64.5 106t104 74.5t141.5 27.5q98 0 160 -40t85 -115t1 -181h-423l28 124l204 1q2 26 -15.5 43.5t-49.5 17.5q-40 0 -63 -22.5t-33 -63.5t-10 -97q0 -24 8.5 -43t24 -30t35.5 -11q30 0 47.5 11t24.5 29h212
q-15 -59 -49.5 -107t-94.5 -75.5t-154 -27.5zM461 616h-144l-83 173h177z" />
    <glyph glyph-name="eacute" unicode="&#xe9;" 
d="M301 -12q-80 0 -141 29t-95 86.5t-34 141.5q0 63 22 122t64.5 106t104 74.5t141.5 27.5q98 0 160 -40t85 -115t1 -181h-423l28 124l204 1q2 26 -15.5 43.5t-49.5 17.5q-40 0 -63 -22.5t-33 -63.5t-10 -97q0 -24 8.5 -43t24 -30t35.5 -11q30 0 47.5 11t24.5 29h212
q-15 -59 -49.5 -107t-94.5 -75.5t-154 -27.5zM271 615l120 173h197l-153 -173h-164z" />
    <glyph glyph-name="ecircumflex" unicode="&#xea;" 
d="M301 -12q-80 0 -141 29t-95 86.5t-34 141.5q0 63 22 122t64.5 106t104 74.5t141.5 27.5q98 0 160 -40t85 -115t1 -181h-423l28 124l204 1q2 26 -15.5 43.5t-49.5 17.5q-40 0 -63 -22.5t-33 -63.5t-10 -97q0 -24 8.5 -43t24 -30t35.5 -11q30 0 47.5 11t24.5 29h212
q-15 -59 -49.5 -107t-94.5 -75.5t-154 -27.5zM133 615l151 173h234l81 -173h-191l-26 78l-51 -78h-198z" />
    <glyph glyph-name="edieresis" unicode="&#xeb;" 
d="M301 -12q-80 0 -141 29t-95 86.5t-34 141.5q0 63 22 122t64.5 106t104 74.5t141.5 27.5q98 0 160 -40t85 -115t1 -181h-423l28 124l204 1q2 26 -15.5 43.5t-49.5 17.5q-40 0 -63 -22.5t-33 -63.5t-10 -97q0 -24 8.5 -43t24 -30t35.5 -11q30 0 47.5 11t24.5 29h212
q-15 -59 -49.5 -107t-94.5 -75.5t-154 -27.5zM402 624l34 158h188l-34 -158h-188zM148 624l34 158h188l-34 -158h-188z" />
    <glyph glyph-name="igrave" unicode="&#xec;" 
d="M177 0l120 563h216l-120 -563h-216zM-3 0l37 172h548l-37 -172h-548zM150 391l37 172h218l-37 -172h-218zM511 616h-144l-83 173h177z" />
    <glyph glyph-name="iacute" unicode="&#xed;" 
d="M177 0l120 563h216l-120 -563h-216zM-3 0l37 172h548l-37 -172h-548zM150 391l37 172h218l-37 -172h-218zM321 615l120 173h197l-153 -173h-164z" />
    <glyph glyph-name="icircumflex" unicode="&#xee;" 
d="M177 0l120 563h216l-120 -563h-216zM-3 0l37 172h548l-37 -172h-548zM150 391l37 172h218l-37 -172h-218zM183 615l151 173h234l81 -173h-191l-26 78l-51 -78h-198z" />
    <glyph glyph-name="idieresis" unicode="&#xef;" 
d="M177 0l120 563h216l-120 -563h-216zM-3 0l37 172h548l-37 -172h-548zM150 391l37 172h218l-37 -172h-218zM452 624l34 158h188l-34 -158h-188zM198 624l34 158h188l-34 -158h-188z" />
    <glyph glyph-name="eth" unicode="&#xf0;" 
d="M242 740h224q38 -30 73 -82t57.5 -122t22.5 -156q0 -74 -17 -144t-55 -126t-101.5 -89t-155.5 -33q-81 0 -140 30t-91 83.5t-32 124.5q0 81 32.5 140t93 91t143.5 32q65 0 119 -37t89 -99l-81 -116q-1 34 -11.5 58t-30 37t-48.5 13q-36 0 -56 -16t-28 -39.5t-8 -48.5
q0 -30 7 -50.5t20.5 -30.5t33.5 -10q35 0 55.5 26t30.5 67.5t13 89t3 90.5q0 61 -14.5 111t-49.5 99t-98 107zM262 512l-7 106l402 104l9 -106z" />
    <glyph glyph-name="ntilde" unicode="&#xf1;" 
d="M335 0l71 333q5 26 -5.5 42.5t-33.5 16.5q-33 0 -59.5 -20.5t-67.5 -63.5l19 155q56 59 108 85.5t101 26.5q60 0 101 -26t57 -73.5t2 -114.5l-77 -361h-216zM-18 0l120 563h211l-11 -73l-104 -490h-216zM310 607l-144 23q19 76 61 120.5t106 44.5q39 0 64.5 -8t44 -16.5
t35.5 -8.5q14 0 26 10.5t17 28.5l147 -22q-21 -76 -63.5 -120.5t-107.5 -44.5q-34 0 -60.5 9t-47 17.5t-38.5 8.5q-13 0 -23.5 -11t-16.5 -31z" />
    <glyph glyph-name="ograve" unicode="&#xf2;" 
d="M295 -12q-81 0 -141.5 29.5t-94 84t-33.5 128.5q0 104 41 181.5t115.5 120.5t172.5 43q81 0 141.5 -29.5t93.5 -83.5t33 -128q0 -104 -41 -182t-115 -121t-172 -43zM305 160q29 0 51 20.5t35 57.5t14 87q1 35 -15 56.5t-45 21.5t-52 -20.5t-36 -57t-13 -86.5
q0 -24 7.5 -41.5t21 -27.5t32.5 -10zM480 616h-144l-83 173h177z" />
    <glyph glyph-name="oacute" unicode="&#xf3;" 
d="M295 -12q-81 0 -141.5 29.5t-94 84t-33.5 128.5q0 104 41 181.5t115.5 120.5t172.5 43q81 0 141.5 -29.5t93.5 -83.5t33 -128q0 -104 -41 -182t-115 -121t-172 -43zM305 160q29 0 51 20.5t35 57.5t14 87q1 35 -15 56.5t-45 21.5t-52 -20.5t-36 -57t-13 -86.5
q0 -24 7.5 -41.5t21 -27.5t32.5 -10zM290 615l120 173h197l-153 -173h-164z" />
    <glyph glyph-name="ocircumflex" unicode="&#xf4;" 
d="M295 -12q-81 0 -141.5 29.5t-94 84t-33.5 128.5q0 104 41 181.5t115.5 120.5t172.5 43q81 0 141.5 -29.5t93.5 -83.5t33 -128q0 -104 -41 -182t-115 -121t-172 -43zM305 160q29 0 51 20.5t35 57.5t14 87q1 35 -15 56.5t-45 21.5t-52 -20.5t-36 -57t-13 -86.5
q0 -24 7.5 -41.5t21 -27.5t32.5 -10zM152 615l151 173h234l81 -173h-191l-26 78l-51 -78h-198z" />
    <glyph glyph-name="otilde" unicode="&#xf5;" 
d="M295 -12q-81 0 -141.5 29.5t-94 84t-33.5 128.5q0 104 41 181.5t115.5 120.5t172.5 43q81 0 141.5 -29.5t93.5 -83.5t33 -128q0 -104 -41 -182t-115 -121t-172 -43zM305 160q29 0 51 20.5t35 57.5t14 87q1 35 -15 56.5t-45 21.5t-52 -20.5t-36 -57t-13 -86.5
q0 -24 7.5 -41.5t21 -27.5t32.5 -10zM295 607l-144 23q19 76 61 120.5t106 44.5q39 0 64.5 -8t44 -16.5t35.5 -8.5q14 0 26 10.5t17 28.5l147 -22q-21 -76 -63.5 -120.5t-107.5 -44.5q-34 0 -60.5 9t-47 17.5t-38.5 8.5q-13 0 -23.5 -11t-16.5 -31z" />
    <glyph glyph-name="odieresis" unicode="&#xf6;" 
d="M295 -12q-81 0 -141.5 29.5t-94 84t-33.5 128.5q0 104 41 181.5t115.5 120.5t172.5 43q81 0 141.5 -29.5t93.5 -83.5t33 -128q0 -104 -41 -182t-115 -121t-172 -43zM305 160q29 0 51 20.5t35 57.5t14 87q1 35 -15 56.5t-45 21.5t-52 -20.5t-36 -57t-13 -86.5
q0 -24 7.5 -41.5t21 -27.5t32.5 -10zM421 624l34 158h188l-34 -158h-188zM167 624l34 158h188l-34 -158h-188z" />
    <glyph glyph-name="divide" unicode="&#xf7;" 
d="M53 213l40 184h514l-40 -184h-514zM161 -5l42 195h201l-42 -195h-201zM253 430l42 195h201l-42 -195h-201z" />
    <glyph glyph-name="oslash" unicode="&#xf8;" 
d="M102 -100l-87 67l523 676l87 -66zM298 -12q-81 0 -141.5 29.5t-94 84t-33.5 128.5q0 104 40 181.5t113 120.5t172 43q81 0 141.5 -29.5t93.5 -83.5t33 -128q0 -104 -40 -182t-113 -121t-171 -43zM310 160q29 0 50 20.5t32.5 57.5t11.5 87q0 35 -16.5 56.5t-45.5 21.5
t-50.5 -20.5t-33 -57t-11.5 -86.5q0 -24 8 -41.5t22 -27.5t33 -10z" />
    <glyph glyph-name="ugrave" unicode="&#xf9;" 
d="M315 563l-71 -333q-5 -26 5.5 -42.5t33.5 -16.5q33 0 59.5 20.5t67.5 63.5l-19 -155q-56 -59 -108 -85.5t-101 -26.5q-60 0 -101 26t-57 73.5t-2 114.5l77 361h216zM668 563l-120 -563h-211l11 73l104 490h216zM484 615h-144l-83 173h177z" />
    <glyph glyph-name="uacute" unicode="&#xfa;" 
d="M315 563l-71 -333q-5 -26 5.5 -42.5t33.5 -16.5q33 0 59.5 20.5t67.5 63.5l-19 -155q-56 -59 -108 -85.5t-101 -26.5q-60 0 -101 26t-57 73.5t-2 114.5l77 361h216zM668 563l-120 -563h-211l11 73l104 490h216zM294 614l120 173h197l-153 -173h-164z" />
    <glyph glyph-name="ucircumflex" unicode="&#xfb;" 
d="M315 563l-71 -333q-5 -26 5.5 -42.5t33.5 -16.5q33 0 59.5 20.5t67.5 63.5l-19 -155q-56 -59 -108 -85.5t-101 -26.5q-60 0 -101 26t-57 73.5t-2 114.5l77 361h216zM668 563l-120 -563h-211l11 73l104 490h216zM156 614l151 173h234l81 -173h-191l-26 78l-51 -78h-198z
" />
    <glyph glyph-name="udieresis" unicode="&#xfc;" 
d="M315 563l-71 -333q-5 -26 5.5 -42.5t33.5 -16.5q33 0 59.5 20.5t67.5 63.5l-19 -155q-56 -59 -108 -85.5t-101 -26.5q-60 0 -101 26t-57 73.5t-2 114.5l77 361h216zM668 563l-120 -563h-211l11 73l104 490h216zM425 623l34 158h188l-34 -158h-188zM171 623l34 158h188
l-34 -158h-188z" />
    <glyph glyph-name="yacute" unicode="&#xfd;" 
d="M302 419l10 -150l65 133l90 161h230l-364 -578q-37 -59 -75 -98t-88 -58t-125 -19h-116l37 174h65q35 0 54.5 7.5t32.5 21.5t27 36l20 30l-97 484h216zM286 615l120 173h197l-153 -173h-164z" />
    <glyph glyph-name="thorn" unicode="&#xfe;" 
d="M437 575q60 0 105.5 -30.5t71 -87.5t25.5 -137q0 -66 -21 -125.5t-61 -106t-96 -73.5t-126 -27q-42 0 -76.5 15t-57.5 41l-48 -222h-216l195 918h216l-47 -221q32 25 64.5 40.5t71.5 15.5zM313 163q23 0 42.5 12.5t33.5 33.5t21.5 47t7.5 54q0 35 -14.5 62.5t-52.5 27.5
q-31 0 -51.5 -17.5t-37.5 -47.5l-22 -107q5 -30 24 -47.5t49 -17.5z" />
    <glyph glyph-name="ydieresis" unicode="&#xff;" 
d="M302 419l10 -150l65 133l90 161h230l-364 -578q-37 -59 -75 -98t-88 -58t-125 -19h-116l37 174h65q35 0 54.5 7.5t32.5 21.5t27 36l20 30l-97 484h216zM417 624l34 158h188l-34 -158h-188zM163 624l34 158h188l-34 -158h-188z" />
    <glyph glyph-name="Amacron" unicode="&#x100;" 
d="M75 123l38 175h443l-38 -175h-443zM252 698h322l-4 -698h-231l28 286l9 245l-95 -245l-91 -286h-230zM231 768l29 137h392l-29 -137h-392z" />
    <glyph glyph-name="amacron" unicode="&#x101;" 
d="M326 0l11 73l63 297q4 19 -2 32t-20 19.5t-33 6.5q-30 0 -46 -11.5t-21 -34.5h-208q13 56 47.5 99.5t94 68.5t145.5 25q93 0 155 -27.5t88 -81.5t9 -133l-71 -333h-212zM202 -12q-53 0 -90 23.5t-55.5 59.5t-18.5 74q0 62 30.5 108t85.5 71t129 25h129l-31 -134l-103 -2
q-23 -1 -33 -11t-10 -24t10.5 -22.5t29.5 -8.5q28 0 52.5 10t40.5 29l-6 -113q-35 -42 -71.5 -63.5t-88.5 -21.5zM192 633l29 137h392l-29 -137h-392z" />
    <glyph glyph-name="Abreve" unicode="&#x102;" 
d="M75 123l38 175h443l-38 -175h-443zM252 698h322l-4 -698h-231l28 286l9 245l-95 -245l-91 -286h-230zM438 742q-63 0 -106 23t-62.5 63.5t-14.5 93.5h154q-3 -25 7 -41t31 -16t34.5 16t16.5 41h157q-5 -53 -33 -93.5t-74.5 -63.5t-109.5 -23z" />
    <glyph glyph-name="abreve" unicode="&#x103;" 
d="M326 0l11 73l63 297q4 19 -2 32t-20 19.5t-33 6.5q-30 0 -46 -11.5t-21 -34.5h-208q13 56 47.5 99.5t94 68.5t145.5 25q93 0 155 -27.5t88 -81.5t9 -133l-71 -333h-212zM202 -12q-53 0 -90 23.5t-55.5 59.5t-18.5 74q0 62 30.5 108t85.5 71t129 25h129l-31 -134l-103 -2
q-23 -1 -33 -11t-10 -24t10.5 -22.5t29.5 -8.5q28 0 52.5 10t40.5 29l-6 -113q-35 -42 -71.5 -63.5t-88.5 -21.5zM399 607q-63 0 -106 23t-62.5 63.5t-14.5 93.5h154q-3 -25 7 -41t31 -16t34.5 16t16.5 41h157q-5 -53 -33 -93.5t-74.5 -63.5t-109.5 -23z" />
    <glyph glyph-name="Aogonek" unicode="&#x104;" 
d="M75 123l38 175h443l-38 -175h-443zM252 698h322l-4 -698h-231l28 286l9 245l-95 -245l-91 -286h-230zM434 -226q-10 -1 -19.5 -2t-17.5 -1q-91 0 -120 32t-18 87q5 23 22 49.5t44.5 52t65.5 45.5l91 -37q-17 -10 -31.5 -21.5t-23.5 -23.5t-12 -24q-4 -16 4 -25.5t24 -9.5
h9.5t8.5 1z" />
    <glyph glyph-name="aogonek" unicode="&#x105;" 
d="M326 0l11 73l63 297q4 19 -2 32t-20 19.5t-33 6.5q-30 0 -46 -11.5t-21 -34.5h-208q13 56 47.5 99.5t94 68.5t145.5 25q93 0 155 -27.5t88 -81.5t9 -133l-71 -333h-212zM202 -12q-53 0 -90 23.5t-55.5 59.5t-18.5 74q0 62 30.5 108t85.5 71t129 25h129l-31 -134l-103 -2
q-23 -1 -33 -11t-10 -24t10.5 -22.5t29.5 -8.5q28 0 52.5 10t40.5 29l-6 -113q-35 -42 -71.5 -63.5t-88.5 -21.5zM419 -226q-10 -1 -19.5 -2t-17.5 -1q-91 0 -120 32t-18 87q5 23 22 49.5t44.5 52t65.5 45.5l91 -37q-17 -10 -31.5 -21.5t-23.5 -23.5t-12 -24q-4 -16 4 -25.5
t24 -9.5h9.5t8.5 1z" />
    <glyph glyph-name="Cacute" unicode="&#x106;" 
d="M310 -12q-82 0 -146.5 37t-101.5 102t-37 149q0 86 24 164.5t71 139t115.5 95.5t156.5 35q82 0 143 -34t93.5 -95t27.5 -143h-225q0 39 -12.5 63.5t-41.5 24.5q-31 0 -54 -24.5t-37 -62t-21 -77.5t-7 -71q0 -39 7.5 -65.5t23 -40t39.5 -13.5q32 0 52.5 26t26.5 66h225
q-21 -83 -58.5 -145.5t-101 -96.5t-162.5 -34zM298 751l120 173h197l-153 -173h-164z" />
    <glyph glyph-name="cacute" unicode="&#x107;" 
d="M299 -12q-81 0 -140.5 31t-92 86.5t-32.5 126.5q0 80 25.5 143t71 108t105 68.5t126.5 23.5q84 0 143.5 -31t89.5 -87.5t23 -134.5h-208q4 36 -8.5 57.5t-47.5 21.5q-22 0 -40 -11.5t-31.5 -32.5t-21 -51t-7.5 -67q0 -36 18 -58.5t46 -22.5q30 0 51 19t28 56h208
q-15 -74 -52 -129t-99.5 -85.5t-154.5 -30.5zM276 614l120 173h197l-153 -173h-164z" />
    <glyph glyph-name="Ccircumflex" unicode="&#x108;" 
d="M310 -12q-82 0 -146.5 37t-101.5 102t-37 149q0 86 24 164.5t71 139t115.5 95.5t156.5 35q82 0 143 -34t93.5 -95t27.5 -143h-225q0 39 -12.5 63.5t-41.5 24.5q-31 0 -54 -24.5t-37 -62t-21 -77.5t-7 -71q0 -39 7.5 -65.5t23 -40t39.5 -13.5q32 0 52.5 26t26.5 66h225
q-21 -83 -58.5 -145.5t-101 -96.5t-162.5 -34zM160 751l151 173h234l81 -173h-191l-26 78l-51 -78h-198z" />
    <glyph glyph-name="ccircumflex" unicode="&#x109;" 
d="M299 -12q-81 0 -140.5 31t-92 86.5t-32.5 126.5q0 80 25.5 143t71 108t105 68.5t126.5 23.5q84 0 143.5 -31t89.5 -87.5t23 -134.5h-208q4 36 -8.5 57.5t-47.5 21.5q-22 0 -40 -11.5t-31.5 -32.5t-21 -51t-7.5 -67q0 -36 18 -58.5t46 -22.5q30 0 51 19t28 56h208
q-15 -74 -52 -129t-99.5 -85.5t-154.5 -30.5zM138 614l151 173h234l81 -173h-191l-26 78l-51 -78h-198z" />
    <glyph glyph-name="Cdotaccent" unicode="&#x10a;" 
d="M310 -12q-82 0 -146.5 37t-101.5 102t-37 149q0 86 24 164.5t71 139t115.5 95.5t156.5 35q82 0 143 -34t93.5 -95t27.5 -143h-225q0 39 -12.5 63.5t-41.5 24.5q-31 0 -54 -24.5t-37 -62t-21 -77.5t-7 -71q0 -39 7.5 -65.5t23 -40t39.5 -13.5q32 0 52.5 26t26.5 66h225
q-21 -83 -58.5 -145.5t-101 -96.5t-162.5 -34zM287 753l36 168h218l-36 -168h-218z" />
    <glyph glyph-name="cdotaccent" unicode="&#x10b;" 
d="M299 -12q-81 0 -140.5 31t-92 86.5t-32.5 126.5q0 80 25.5 143t71 108t105 68.5t126.5 23.5q84 0 143.5 -31t89.5 -87.5t23 -134.5h-208q4 36 -8.5 57.5t-47.5 21.5q-22 0 -40 -11.5t-31.5 -32.5t-21 -51t-7.5 -67q0 -36 18 -58.5t46 -22.5q30 0 51 19t28 56h208
q-15 -74 -52 -129t-99.5 -85.5t-154.5 -30.5zM265 616l36 168h218l-36 -168h-218z" />
    <glyph glyph-name="Ccaron" unicode="&#x10c;" 
d="M310 -12q-82 0 -146.5 37t-101.5 102t-37 149q0 86 24 164.5t71 139t115.5 95.5t156.5 35q82 0 143 -34t93.5 -95t27.5 -143h-225q0 39 -12.5 63.5t-41.5 24.5q-31 0 -54 -24.5t-37 -62t-21 -77.5t-7 -71q0 -39 7.5 -65.5t23 -40t39.5 -13.5q32 0 52.5 26t26.5 66h225
q-21 -83 -58.5 -145.5t-101 -96.5t-162.5 -34zM205 924h172l31 -88l60 88h183l-141 -173h-234z" />
    <glyph glyph-name="ccaron" unicode="&#x10d;" 
d="M299 -12q-81 0 -140.5 31t-92 86.5t-32.5 126.5q0 80 25.5 143t71 108t105 68.5t126.5 23.5q84 0 143.5 -31t89.5 -87.5t23 -134.5h-208q4 36 -8.5 57.5t-47.5 21.5q-22 0 -40 -11.5t-31.5 -32.5t-21 -51t-7.5 -67q0 -36 18 -58.5t46 -22.5q30 0 51 19t28 56h208
q-15 -74 -52 -129t-99.5 -85.5t-154.5 -30.5zM183 787h172l31 -88l60 88h183l-141 -173h-234z" />
    <glyph glyph-name="Dcaron" unicode="&#x10e;" 
d="M-28 0l149 698h234q74 0 129.5 -24.5t92 -65.5t54.5 -93t18 -108q0 -91 -31 -165.5t-88 -128.5t-134 -83.5t-170 -29.5h-254zM240 184h16q37 0 66 19t49 50t30.5 68.5t10.5 74.5q0 56 -24.5 87t-61.5 31h-16zM194 923h172l31 -88l60 88h183l-141 -173h-234z" />
    <glyph glyph-name="dcaron" unicode="&#x10f;" 
d="M314 575q47 0 78.5 -15t53.5 -41l47 221h216l-158 -740h-211l7 46q-28 -27 -58 -42.5t-71 -15.5q-63 0 -107.5 29.5t-68 82t-23.5 120.5q0 71 19.5 135t57 113.5t92.5 78t126 28.5zM307 163q24 0 41.5 14t33.5 36l24 122q-4 30 -19.5 47.5t-45.5 17.5q-34 0 -56.5 -22.5
t-33.5 -57t-11 -69.5q0 -19 5.5 -39.5t20 -34.5t41.5 -14zM714 516l53 223h168l-90 -223h-131z" />
    <glyph glyph-name="Dcroat" unicode="&#x110;" 
d="M1 281l29 136h352l-29 -136h-352zM-28 0l149 698h234q74 0 129.5 -24.5t92 -65.5t54.5 -93t18 -108q0 -91 -31 -165.5t-88 -128.5t-134 -83.5t-170 -29.5h-254zM240 184h16q37 0 66 19t49 50t30.5 68.5t10.5 74.5q0 56 -24.5 87t-61.5 31h-16z" />
    <glyph glyph-name="dcroat" unicode="&#x111;" 
d="M449 488l54 252h216l-158 -740h-211l7 46q-22 -17 -41 -30.5t-41 -20.5t-55 -7q-58 0 -102.5 29.5t-70 83t-25.5 126.5q0 94 35.5 165.5t100.5 112t153 40.5q47 0 81.5 -15.5t56.5 -41.5zM307 163q30 0 50.5 17.5t36.5 47.5l16 77q-4 30 -23.5 47.5t-49.5 17.5
q-28 0 -50.5 -16t-35.5 -44t-13 -66q0 -28 14.5 -54.5t54.5 -26.5zM343 580l28 120h408l-28 -120h-408z" />
    <glyph glyph-name="Emacron" unicode="&#x112;" 
d="M-14 0l149 698h552l-40 -184h-323l-15 -72h201l-37 -175h-201l-18 -83h327l-39 -184h-556zM225 769l29 137h392l-29 -137h-392z" />
    <glyph glyph-name="emacron" unicode="&#x113;" 
d="M301 -12q-80 0 -141 29t-95 86.5t-34 141.5q0 63 22 122t64.5 106t104 74.5t141.5 27.5q98 0 160 -40t85 -115t1 -181h-423l28 124l204 1q2 26 -15.5 43.5t-49.5 17.5q-40 0 -63 -22.5t-33 -63.5t-10 -97q0 -24 8.5 -43t24 -30t35.5 -11q30 0 47.5 11t24.5 29h212
q-15 -59 -49.5 -107t-94.5 -75.5t-154 -27.5zM178 634l29 137h392l-29 -137h-392z" />
    <glyph glyph-name="Ebreve" unicode="&#x114;" 
d="M-14 0l149 698h552l-40 -184h-323l-15 -72h201l-37 -175h-201l-18 -83h327l-39 -184h-556zM432 743q-63 0 -106 23t-62.5 63.5t-14.5 93.5h154q-3 -25 7 -41t31 -16t34.5 16t16.5 41h157q-5 -53 -33 -93.5t-74.5 -63.5t-109.5 -23z" />
    <glyph glyph-name="ebreve" unicode="&#x115;" 
d="M301 -12q-80 0 -141 29t-95 86.5t-34 141.5q0 63 22 122t64.5 106t104 74.5t141.5 27.5q98 0 160 -40t85 -115t1 -181h-423l28 124l204 1q2 26 -15.5 43.5t-49.5 17.5q-40 0 -63 -22.5t-33 -63.5t-10 -97q0 -24 8.5 -43t24 -30t35.5 -11q30 0 47.5 11t24.5 29h212
q-15 -59 -49.5 -107t-94.5 -75.5t-154 -27.5zM385 608q-63 0 -106 23t-62.5 63.5t-14.5 93.5h154q-3 -25 7 -41t31 -16t34.5 16t16.5 41h157q-5 -53 -33 -93.5t-74.5 -63.5t-109.5 -23z" />
    <glyph glyph-name="Edotaccent" unicode="&#x116;" 
d="M-14 0l149 698h552l-40 -184h-323l-15 -72h201l-37 -175h-201l-18 -83h327l-39 -184h-556zM307 752l36 168h218l-36 -168h-218z" />
    <glyph glyph-name="edotaccent" unicode="&#x117;" 
d="M301 -12q-80 0 -141 29t-95 86.5t-34 141.5q0 63 22 122t64.5 106t104 74.5t141.5 27.5q98 0 160 -40t85 -115t1 -181h-423l28 124l204 1q2 26 -15.5 43.5t-49.5 17.5q-40 0 -63 -22.5t-33 -63.5t-10 -97q0 -24 8.5 -43t24 -30t35.5 -11q30 0 47.5 11t24.5 29h212
q-15 -59 -49.5 -107t-94.5 -75.5t-154 -27.5zM260 617l36 168h218l-36 -168h-218z" />
    <glyph glyph-name="Eogonek" unicode="&#x118;" 
d="M-14 0l149 698h552l-40 -184h-323l-15 -72h201l-37 -175h-201l-18 -83h327l-39 -184h-556zM494 -226q-10 -1 -19.5 -2t-17.5 -1q-91 0 -120 32t-18 87q5 23 22 49.5t44.5 52t65.5 45.5l91 -37q-17 -10 -31.5 -21.5t-23.5 -23.5t-12 -24q-4 -16 4 -25.5t24 -9.5h9.5t8.5 1
z" />
    <glyph glyph-name="eogonek" unicode="&#x119;" 
d="M301 -12q-80 0 -141 29t-95 86.5t-34 141.5q0 63 22 122t64.5 106t104 74.5t141.5 27.5q98 0 160 -40t85 -115t1 -181h-423l28 124l204 1q2 26 -15.5 43.5t-49.5 17.5q-40 0 -63 -22.5t-33 -63.5t-10 -97q0 -24 8.5 -43t24 -30t35.5 -11q30 0 47.5 11t24.5 29h212
q-15 -59 -49.5 -107t-94.5 -75.5t-154 -27.5zM330 -226q-10 -1 -19.5 -2t-17.5 -1q-91 0 -120 32t-18 87q5 23 22 49.5t44.5 52t65.5 45.5l91 -37q-17 -10 -31.5 -21.5t-23.5 -23.5t-12 -24q-4 -16 4 -25.5t24 -9.5h9.5t8.5 1z" />
    <glyph glyph-name="Ecaron" unicode="&#x11a;" 
d="M-14 0l149 698h552l-40 -184h-323l-15 -72h201l-37 -175h-201l-18 -83h327l-39 -184h-556zM225 923h172l31 -88l60 88h183l-141 -173h-234z" />
    <glyph glyph-name="ecaron" unicode="&#x11b;" 
d="M301 -12q-80 0 -141 29t-95 86.5t-34 141.5q0 63 22 122t64.5 106t104 74.5t141.5 27.5q98 0 160 -40t85 -115t1 -181h-423l28 124l204 1q2 26 -15.5 43.5t-49.5 17.5q-40 0 -63 -22.5t-33 -63.5t-10 -97q0 -24 8.5 -43t24 -30t35.5 -11q30 0 47.5 11t24.5 29h212
q-15 -59 -49.5 -107t-94.5 -75.5t-154 -27.5zM178 788h172l31 -88l60 88h183l-141 -173h-234z" />
    <glyph glyph-name="Gcircumflex" unicode="&#x11c;" 
d="M305 -12q-73 0 -138 33t-105.5 98.5t-40.5 161.5q0 74 20.5 150t64.5 139t113.5 101.5t167.5 38.5q80 0 142 -32t95.5 -88t26.5 -127h-235q2 24 -10 43.5t-38 19.5q-28 0 -49.5 -21.5t-35.5 -56.5t-21.5 -77t-7.5 -84q0 -28 6 -54.5t21 -43.5t41 -17q20 0 30.5 6t27.5 17
l10 50l-61 -5l40 165h284l-60 -282q-42 -43 -81.5 -73t-88 -46t-118.5 -16zM164 750l151 173h234l81 -173h-191l-26 78l-51 -78h-198z" />
    <glyph glyph-name="gcircumflex" unicode="&#x11d;" 
d="M452 523l12 40h210l-111 -521q-26 -123 -107 -177.5t-214 -54.5q-81 0 -143.5 22.5t-97.5 68t-36 112.5h224q1 -20 19 -32t48 -12q35 0 58.5 15t33.5 60l12 54q-25 -28 -56 -40.5t-71 -12.5q-66 0 -113 28.5t-71.5 80t-24.5 119.5q0 61 20.5 115.5t58 96.5t89 66
t113.5 24q47 0 86.5 -13t60.5 -39zM310 201q29 0 49.5 17.5t35.5 46.5l20 91q-4 29 -22.5 46.5t-45.5 17.5q-32 0 -55.5 -18t-36.5 -48.5t-13 -70.5q0 -37 17 -59.5t51 -22.5zM134 608l151 173h234l81 -173h-191l-26 78l-51 -78h-198z" />
    <glyph glyph-name="Gbreve" unicode="&#x11e;" 
d="M305 -12q-73 0 -138 33t-105.5 98.5t-40.5 161.5q0 74 20.5 150t64.5 139t113.5 101.5t167.5 38.5q80 0 142 -32t95.5 -88t26.5 -127h-235q2 24 -10 43.5t-38 19.5q-28 0 -49.5 -21.5t-35.5 -56.5t-21.5 -77t-7.5 -84q0 -28 6 -54.5t21 -43.5t41 -17q20 0 30.5 6t27.5 17
l10 50l-61 -5l40 165h284l-60 -282q-42 -43 -81.5 -73t-88 -46t-118.5 -16zM416 743q-63 0 -106 23t-62.5 63.5t-14.5 93.5h154q-3 -25 7 -41t31 -16t34.5 16t16.5 41h157q-5 -53 -33 -93.5t-74.5 -63.5t-109.5 -23z" />
    <glyph glyph-name="gbreve" unicode="&#x11f;" 
d="M452 523l12 40h210l-111 -521q-26 -123 -107 -177.5t-214 -54.5q-81 0 -143.5 22.5t-97.5 68t-36 112.5h224q1 -20 19 -32t48 -12q35 0 58.5 15t33.5 60l12 54q-25 -28 -56 -40.5t-71 -12.5q-66 0 -113 28.5t-71.5 80t-24.5 119.5q0 61 20.5 115.5t58 96.5t89 66
t113.5 24q47 0 86.5 -13t60.5 -39zM310 201q29 0 49.5 17.5t35.5 46.5l20 91q-4 29 -22.5 46.5t-45.5 17.5q-32 0 -55.5 -18t-36.5 -48.5t-13 -70.5q0 -37 17 -59.5t51 -22.5zM386 601q-63 0 -106 23t-62.5 63.5t-14.5 93.5h154q-3 -25 7 -41t31 -16t34.5 16t16.5 41h157
q-5 -53 -33 -93.5t-74.5 -63.5t-109.5 -23z" />
    <glyph glyph-name="Gdotaccent" unicode="&#x120;" 
d="M305 -12q-73 0 -138 33t-105.5 98.5t-40.5 161.5q0 74 20.5 150t64.5 139t113.5 101.5t167.5 38.5q80 0 142 -32t95.5 -88t26.5 -127h-235q2 24 -10 43.5t-38 19.5q-28 0 -49.5 -21.5t-35.5 -56.5t-21.5 -77t-7.5 -84q0 -28 6 -54.5t21 -43.5t41 -17q20 0 30.5 6t27.5 17
l10 50l-61 -5l40 165h284l-60 -282q-42 -43 -81.5 -73t-88 -46t-118.5 -16zM291 752l36 168h218l-36 -168h-218z" />
    <glyph glyph-name="gdotaccent" unicode="&#x121;" 
d="M452 523l12 40h210l-111 -521q-26 -123 -107 -177.5t-214 -54.5q-81 0 -143.5 22.5t-97.5 68t-36 112.5h224q1 -20 19 -32t48 -12q35 0 58.5 15t33.5 60l12 54q-25 -28 -56 -40.5t-71 -12.5q-66 0 -113 28.5t-71.5 80t-24.5 119.5q0 61 20.5 115.5t58 96.5t89 66
t113.5 24q47 0 86.5 -13t60.5 -39zM310 201q29 0 49.5 17.5t35.5 46.5l20 91q-4 29 -22.5 46.5t-45.5 17.5q-32 0 -55.5 -18t-36.5 -48.5t-13 -70.5q0 -37 17 -59.5t51 -22.5zM261 610l36 168h218l-36 -168h-218z" />
    <glyph glyph-name="uni0122" unicode="&#x122;" 
d="M305 -12q-73 0 -138 33t-105.5 98.5t-40.5 161.5q0 74 20.5 150t64.5 139t113.5 101.5t167.5 38.5q80 0 142 -32t95.5 -88t26.5 -127h-235q2 24 -10 43.5t-38 19.5q-28 0 -49.5 -21.5t-35.5 -56.5t-21.5 -77t-7.5 -84q0 -28 6 -54.5t21 -43.5t41 -17q20 0 30.5 6t27.5 17
l10 50l-61 -5l40 165h284l-60 -282q-42 -43 -81.5 -73t-88 -46t-118.5 -16zM165 -198l33 154h209l-79 -154h-163z" />
    <glyph glyph-name="uni0123" unicode="&#x123;" 
d="M452 523l12 40h210l-111 -521q-26 -123 -107 -177.5t-214 -54.5q-81 0 -143.5 22.5t-97.5 68t-36 112.5h224q1 -20 19 -32t48 -12q35 0 58.5 15t33.5 60l12 54q-25 -28 -56 -40.5t-71 -12.5q-66 0 -113 28.5t-71.5 80t-24.5 119.5q0 61 20.5 115.5t58 96.5t89 66
t113.5 24q47 0 86.5 -13t60.5 -39zM310 201q29 0 49.5 17.5t35.5 46.5l20 91q-4 29 -22.5 46.5t-45.5 17.5q-32 0 -55.5 -18t-36.5 -48.5t-13 -70.5q0 -37 17 -59.5t51 -22.5zM516 779l-33 -154h-209l79 154h163z" />
    <glyph glyph-name="Hcircumflex" unicode="&#x124;" 
d="M328 0l149 698h229l-149 -698h-229zM-27 0l149 698h229l-149 -698h-229zM239 267l39 183h164l-39 -183h-164zM188 750l151 173h234l81 -173h-191l-26 78l-51 -78h-198z" />
    <glyph glyph-name="hcircumflex" unicode="&#x125;" 
d="M331 0l71 333q5 26 -5.5 42.5t-33.5 16.5q-33 0 -59.5 -20.5t-67.5 -63.5l19 155q56 59 108 85.5t101 26.5q60 0 101 -26t57 -73.5t2 -114.5l-77 -361h-216zM-22 0l157 740h216l-157 -740h-216zM9 794l151 173h234l81 -173h-191l-26 78l-51 -78h-198z" />
    <glyph glyph-name="Hbar" unicode="&#x126;" 
d="M328 0l149 698h229l-149 -698h-229zM-27 0l149 698h229l-149 -698h-229zM239 267l39 183h164l-39 -183h-164zM-30 489l34 160h797l-34 -160h-797z" />
    <glyph glyph-name="hbar" unicode="&#x127;" 
d="M331 0l63 293q6 26 -5 42.5t-34 16.5q-33 0 -59.5 -20.5t-67.5 -63.5l19 155q56 59 108 85.5t101 26.5q60 0 101 -25.5t57.5 -73.5t1.5 -115l-69 -321h-216zM-22 0l157 740h216l-157 -740h-216zM37 580l28 120h408l-28 -120h-408z" />
    <glyph glyph-name="Itilde" unicode="&#x128;" 
d="M150 0l149 698h229l-149 -698h-229zM161 698h505l-40 -184h-505zM51 184h505l-39 -184h-505zM328 742l-144 23q19 76 61 120.5t106 44.5q39 0 64.5 -8t44 -16.5t35.5 -8.5q14 0 26 10.5t17 28.5l147 -22q-21 -76 -63.5 -120.5t-107.5 -44.5q-34 0 -60.5 9t-47 17.5
t-38.5 8.5q-13 0 -23.5 -11t-16.5 -31z" />
    <glyph glyph-name="itilde" unicode="&#x129;" 
d="M177 0l120 563h216l-120 -563h-216zM-3 0l37 172h548l-37 -172h-548zM150 391l37 172h218l-37 -172h-218zM326 607l-144 23q19 76 61 120.5t106 44.5q39 0 64.5 -8t44 -16.5t35.5 -8.5q14 0 26 10.5t17 28.5l147 -22q-21 -76 -63.5 -120.5t-107.5 -44.5q-34 0 -60.5 9
t-47 17.5t-38.5 8.5q-13 0 -23.5 -11t-16.5 -31z" />
    <glyph glyph-name="Imacron" unicode="&#x12a;" 
d="M150 0l149 698h229l-149 -698h-229zM161 698h505l-40 -184h-505zM51 184h505l-39 -184h-505zM230 769l29 137h392l-29 -137h-392z" />
    <glyph glyph-name="imacron" unicode="&#x12b;" 
d="M177 0l120 563h216l-120 -563h-216zM-3 0l37 172h548l-37 -172h-548zM150 391l37 172h218l-37 -172h-218zM228 634l29 137h392l-29 -137h-392z" />
    <glyph glyph-name="Ibreve" unicode="&#x12c;" 
d="M150 0l149 698h229l-149 -698h-229zM161 698h505l-40 -184h-505zM51 184h505l-39 -184h-505zM437 743q-63 0 -106 23t-62.5 63.5t-14.5 93.5h154q-3 -25 7 -41t31 -16t34.5 16t16.5 41h157q-5 -53 -33 -93.5t-74.5 -63.5t-109.5 -23z" />
    <glyph glyph-name="ibreve" unicode="&#x12d;" 
d="M177 0l120 563h216l-120 -563h-216zM-3 0l37 172h548l-37 -172h-548zM150 391l37 172h218l-37 -172h-218zM435 608q-63 0 -106 23t-62.5 63.5t-14.5 93.5h154q-3 -25 7 -41t31 -16t34.5 16t16.5 41h157q-5 -53 -33 -93.5t-74.5 -63.5t-109.5 -23z" />
    <glyph glyph-name="Iogonek" unicode="&#x12e;" 
d="M150 0l149 698h229l-149 -698h-229zM161 698h505l-40 -184h-505zM51 184h505l-39 -184h-505zM314 -226q-10 -1 -19.5 -2t-17.5 -1q-91 0 -120 32t-18 87q5 23 22 49.5t44.5 52t65.5 45.5l91 -37q-17 -10 -31.5 -21.5t-23.5 -23.5t-12 -24q-4 -16 4 -25.5t24 -9.5h9.5
t8.5 1z" />
    <glyph glyph-name="iogonek" unicode="&#x12f;" 
d="M177 0l120 563h216l-120 -563h-216zM-3 0l37 172h548l-37 -172h-548zM150 391l37 172h218l-37 -172h-218zM310 617l36 168h218l-36 -168h-218zM325 -226q-10 -1 -19.5 -2t-17.5 -1q-91 0 -120 32t-18 87q5 23 22 49.5t44.5 52t65.5 45.5l91 -37q-17 -10 -31.5 -21.5
t-23.5 -23.5t-12 -24q-4 -16 4 -25.5t24 -9.5h9.5t8.5 1z" />
    <glyph glyph-name="Idotaccent" unicode="&#x130;" 
d="M150 0l149 698h229l-149 -698h-229zM161 698h505l-40 -184h-505zM51 184h505l-39 -184h-505zM312 752l36 168h218l-36 -168h-218z" />
    <glyph glyph-name="dotlessi" unicode="&#x131;" 
d="M177 0l120 563h216l-120 -563h-216zM-3 0l37 172h548l-37 -172h-548zM150 391l37 172h218l-37 -172h-218z" />
    <glyph glyph-name="IJ" unicode="&#x132;" horiz-adv-x="1300" 
d="M150 0l149 698h229l-149 -698h-229zM161 698h505l-40 -184h-505zM51 184h505l-39 -184h-505zM653 0l39 183h233q39 0 57 19.5t23 44.5l97 451h229l-98 -458q-10 -49 -28 -92t-49.5 -76.5t-84 -52.5t-132.5 -19h-286zM861 698h455l-40 -184h-455z" />
    <glyph glyph-name="ij" unicode="&#x133;" horiz-adv-x="1300" 
d="M177 0l120 563h216l-120 -563h-216zM-3 0l37 172h548l-37 -172h-548zM150 391l37 172h218l-37 -172h-218zM310 617l36 168h218l-36 -168h-218zM1263 563l-116 -547q-19 -88 -80 -141t-166 -53h-272l37 172h220q25 0 35 11.5t14 30.5l112 527h216zM900 391l37 172h138
l-37 -172h-138zM1058 617l36 168h218l-36 -168h-218z" />
    <glyph glyph-name="Jcircumflex" unicode="&#x134;" 
d="M3 0l39 183h233q39 0 57 19.5t23 44.5l97 451h229l-98 -458q-10 -49 -28 -92t-49.5 -76.5t-84 -52.5t-132.5 -19h-286zM211 698h455l-40 -184h-455zM216 750l151 173h234l81 -173h-191l-26 78l-51 -78h-198z" />
    <glyph glyph-name="jcircumflex" unicode="&#x135;" 
d="M613 563l-116 -547q-19 -88 -80 -141t-166 -53h-272l37 172h220q25 0 35 11.5t14 30.5l112 527h216zM250 391l37 172h138l-37 -172h-138zM281 615l151 173h234l81 -173h-191l-26 78l-51 -78h-198z" />
    <glyph glyph-name="uni0136" unicode="&#x136;" 
d="M-38 0l149 698h229l-18 -84l-60 -182l121 153l96 113h248l-498 -521l-38 -177h-229zM338 0l-85 357l203 88l124 -445h-242zM132 -198l33 154h209l-79 -154h-163z" />
    <glyph glyph-name="uni0137" unicode="&#x137;" 
d="M-20 0l157 740h216l-32 -153l-61 -182l136 139l22 19h272l-451 -362l-43 -201h-216zM337 0l-83 322l190 89l115 -411h-222zM130 -198l33 154h209l-79 -154h-163z" />
    <glyph glyph-name="kgreenlandic" unicode="&#x138;" 
d="M155 93l25 220l247 250h257zM325 0l-62 300l192 117l93 -417h-223zM-20 0l120 564h211l-10 -73l-105 -491h-216z" />
    <glyph glyph-name="Lacute" unicode="&#x139;" 
d="M-4 0l149 698h229l-110 -514h314l-39 -184h-543zM181 750l120 173h197l-153 -173h-164z" />
    <glyph glyph-name="lacute" unicode="&#x13a;" 
d="M157 0l157 740h216l-157 -740h-216zM-13 0l37 172h558l-37 -172h-558zM168 568l36 172h218l-36 -172h-218zM341 802l120 173h197l-153 -173h-164z" />
    <glyph glyph-name="uni013B" unicode="&#x13b;" 
d="M-4 0l149 698h229l-110 -514h314l-39 -184h-543zM132 -198l33 154h209l-79 -154h-163z" />
    <glyph glyph-name="uni013C" unicode="&#x13c;" 
d="M157 0l157 740h216l-157 -740h-216zM-13 0l37 172h558l-37 -172h-558zM168 568l36 172h218l-36 -172h-218zM119 -198l33 154h209l-79 -154h-163z" />
    <glyph glyph-name="Lcaron" unicode="&#x13d;" 
d="M-4 0l149 698h229l-110 -514h314l-39 -184h-543zM376 475l53 223h168l-90 -223h-131z" />
    <glyph glyph-name="lcaron" unicode="&#x13e;" 
d="M157 0l157 740h216l-157 -740h-216zM-13 0l37 172h558l-37 -172h-558zM168 568l36 172h218l-36 -172h-218zM536 516l53 223h168l-90 -223h-131z" />
    <glyph glyph-name="Ldot" unicode="&#x13f;" 
d="M-4 0l149 698h229l-110 -514h314l-39 -184h-543zM397 284l42 195h201l-42 -195h-201z" />
    <glyph glyph-name="ldot" unicode="&#x140;" 
d="M157 0l157 740h216l-157 -740h-216zM-13 0l37 172h558l-37 -172h-558zM168 568l36 172h218l-36 -172h-218zM549 284l42 195h201l-42 -195h-201z" />
    <glyph glyph-name="Lslash" unicode="&#x141;" 
d="M-10 203l38 175l507 168l-37 -175zM-4 0l149 698h229l-110 -514h314l-39 -184h-543z" />
    <glyph glyph-name="lslash" unicode="&#x142;" 
d="M113 248l36 170l443 150l-36 -171zM157 0l157 740h216l-157 -740h-216zM-13 0l37 172h558l-37 -172h-558zM168 568l36 172h218l-36 -172h-218z" />
    <glyph glyph-name="Nacute" unicode="&#x143;" 
d="M-19 0l149 698h249l47 -430l28 230l43 200h202l-149 -698h-258l-44 413l-22 -212l-43 -201h-202zM336 750l120 173h197l-153 -173h-164z" />
    <glyph glyph-name="nacute" unicode="&#x144;" 
d="M335 0l71 333q5 26 -5.5 42.5t-33.5 16.5q-33 0 -59.5 -20.5t-67.5 -63.5l19 155q56 59 108 85.5t101 26.5q60 0 101 -26t57 -73.5t2 -114.5l-77 -361h-216zM-18 0l120 563h211l-11 -73l-104 -490h-216zM305 615l120 173h197l-153 -173h-164z" />
    <glyph glyph-name="uni0145" unicode="&#x145;" 
d="M-19 0l149 698h249l47 -430l28 230l43 200h202l-149 -698h-258l-44 413l-22 -212l-43 -201h-202zM125 -198l33 154h209l-79 -154h-163z" />
    <glyph glyph-name="uni0146" unicode="&#x146;" 
d="M335 0l71 333q5 26 -5.5 42.5t-33.5 16.5q-33 0 -59.5 -20.5t-67.5 -63.5l19 155q56 59 108 85.5t101 26.5q60 0 101 -26t57 -73.5t2 -114.5l-77 -361h-216zM-18 0l120 563h211l-11 -73l-104 -490h-216zM130 -198l33 154h209l-79 -154h-163z" />
    <glyph glyph-name="Ncaron" unicode="&#x147;" 
d="M-19 0l149 698h249l47 -430l28 230l43 200h202l-149 -698h-258l-44 413l-22 -212l-43 -201h-202zM243 923h172l31 -88l60 88h183l-141 -173h-234z" />
    <glyph glyph-name="ncaron" unicode="&#x148;" 
d="M335 0l71 333q5 26 -5.5 42.5t-33.5 16.5q-33 0 -59.5 -20.5t-67.5 -63.5l19 155q56 59 108 85.5t101 26.5q60 0 101 -26t57 -73.5t2 -114.5l-77 -361h-216zM-18 0l120 563h211l-11 -73l-104 -490h-216zM212 788h172l31 -88l60 88h183l-141 -173h-234z" />
    <glyph glyph-name="Eng" unicode="&#x14a;" 
d="M293 1l-45 412l-22 -212l-43 -201h-202l149 698h249l47 -430l28 230l43 200h202l-149 -698zM151 -178l33 152h41q35 0 56 16t27 46l10 48h250l-18 -84q-11 -53 -45.5 -93.5t-85 -62.5t-111.5 -22h-157z" />
    <glyph glyph-name="eng" unicode="&#x14b;" 
d="M466 575q60 0 101 -26t57 -73.5t2 -114.5l-76 -355q-11 -54 -42 -95.5t-81 -65t-120 -23.5h-72l37 172h23q20 0 31 11t15 31l63 297q5 26 -5.5 42.5t-35.5 16.5q-23 0 -44.5 -12.5t-50.5 -41.5l-72 -338h-216l120 563h211l-9 -57q44 36 83 52.5t81 16.5z" />
    <glyph glyph-name="Omacron" unicode="&#x14c;" 
d="M293 -12q-79 0 -137 36t-89.5 98.5t-31.5 140.5q0 90 23 171t67.5 143t110 97.5t151.5 35.5q79 0 137 -35.5t89.5 -96.5t31.5 -140q0 -91 -23 -172t-67.5 -143.5t-110 -98.5t-151.5 -36zM309 172q24 0 45 19.5t37 54t25 81t9 99.5q0 50 -15 75t-39 25t-45 -19.5t-37 -54
t-25 -81t-9 -99.5q0 -33 7 -55t19 -33.5t28 -11.5zM209 770l29 137h392l-29 -137h-392z" />
    <glyph glyph-name="omacron" unicode="&#x14d;" 
d="M295 -12q-81 0 -141.5 29.5t-94 84t-33.5 128.5q0 104 41 181.5t115.5 120.5t172.5 43q81 0 141.5 -29.5t93.5 -83.5t33 -128q0 -104 -41 -182t-115 -121t-172 -43zM305 160q29 0 51 20.5t35 57.5t14 87q1 35 -15 56.5t-45 21.5t-52 -20.5t-36 -57t-13 -86.5
q0 -24 7.5 -41.5t21 -27.5t32.5 -10zM197 634l29 137h392l-29 -137h-392z" />
    <glyph glyph-name="Obreve" unicode="&#x14e;" 
d="M293 -12q-79 0 -137 36t-89.5 98.5t-31.5 140.5q0 90 23 171t67.5 143t110 97.5t151.5 35.5q79 0 137 -35.5t89.5 -96.5t31.5 -140q0 -91 -23 -172t-67.5 -143.5t-110 -98.5t-151.5 -36zM309 172q24 0 45 19.5t37 54t25 81t9 99.5q0 50 -15 75t-39 25t-45 -19.5t-37 -54
t-25 -81t-9 -99.5q0 -33 7 -55t19 -33.5t28 -11.5zM416 744q-63 0 -106 23t-62.5 63.5t-14.5 93.5h154q-3 -25 7 -41t31 -16t34.5 16t16.5 41h157q-5 -53 -33 -93.5t-74.5 -63.5t-109.5 -23z" />
    <glyph glyph-name="obreve" unicode="&#x14f;" 
d="M295 -12q-81 0 -141.5 29.5t-94 84t-33.5 128.5q0 104 41 181.5t115.5 120.5t172.5 43q81 0 141.5 -29.5t93.5 -83.5t33 -128q0 -104 -41 -182t-115 -121t-172 -43zM305 160q29 0 51 20.5t35 57.5t14 87q1 35 -15 56.5t-45 21.5t-52 -20.5t-36 -57t-13 -86.5
q0 -24 7.5 -41.5t21 -27.5t32.5 -10zM404 608q-63 0 -106 23t-62.5 63.5t-14.5 93.5h154q-3 -25 7 -41t31 -16t34.5 16t16.5 41h157q-5 -53 -33 -93.5t-74.5 -63.5t-109.5 -23z" />
    <glyph glyph-name="Ohungarumlaut" unicode="&#x150;" 
d="M293 -12q-79 0 -137 36t-89.5 98.5t-31.5 140.5q0 90 23 171t67.5 143t110 97.5t151.5 35.5q79 0 137 -35.5t89.5 -96.5t31.5 -140q0 -91 -23 -172t-67.5 -143.5t-110 -98.5t-151.5 -36zM309 172q24 0 45 19.5t37 54t25 81t9 99.5q0 50 -15 75t-39 25t-45 -19.5t-37 -54
t-25 -81t-9 -99.5q0 -33 7 -55t19 -33.5t28 -11.5zM228 751l100 173h180l-132 -173h-148zM427 751l111 173h180l-143 -173h-148z" />
    <glyph glyph-name="ohungarumlaut" unicode="&#x151;" 
d="M295 -12q-81 0 -141.5 29.5t-94 84t-33.5 128.5q0 104 41 181.5t115.5 120.5t172.5 43q81 0 141.5 -29.5t93.5 -83.5t33 -128q0 -104 -41 -182t-115 -121t-172 -43zM305 160q29 0 51 20.5t35 57.5t14 87q1 35 -15 56.5t-45 21.5t-52 -20.5t-36 -57t-13 -86.5
q0 -24 7.5 -41.5t21 -27.5t32.5 -10zM216 615l100 173h180l-132 -173h-148zM415 615l111 173h180l-143 -173h-148z" />
    <glyph glyph-name="OE" unicode="&#x152;" 
d="M461 267l-18 -83h177l-39 -184h-281q-83 0 -145.5 38t-97.5 104.5t-35 151.5q0 89 30.5 162.5t86.5 128t132.5 84t167.5 29.5h287l-39 -183h-173l-16 -73h141l-37 -175h-141zM278 184h6l71 331h-6q-46 0 -82.5 -27t-57 -74.5t-20.5 -108.5q0 -35 11.5 -62.5t31.5 -43
t46 -15.5z" />
    <glyph glyph-name="oe" unicode="&#x153;" 
d="M163 -12q-48 0 -83.5 26t-55.5 71t-20 101q0 73 14.5 142t44.5 125t77 89t111 33q54 0 88.5 -29.5t51 -74t16.5 -88.5q0 -41 -9 -93t-27.5 -105t-47 -97.5t-68.5 -72t-92 -27.5zM187 160q14 0 25 14.5t18.5 37.5t12.5 49t7.5 49.5t2.5 38.5q0 29 -7 41.5t-19 12.5
q-14 0 -25 -14.5t-19 -37.5t-13.5 -49t-8 -49.5t-2.5 -38.5q0 -30 7.5 -42t20.5 -12zM404 -12q-47 0 -84.5 25t-58.5 68t-21 98q0 58 9.5 115.5t28.5 108t48 89.5t67.5 61t87.5 22q55 0 91 -26t54 -70.5t19 -101.5t-14 -120h-267l25 111h99q5 22 3.5 38.5t-7.5 25.5t-17 9
q-19 0 -32.5 -21.5t-22.5 -55t-14.5 -68.5t-7.5 -63.5t-2 -39.5q0 -26 7 -42t23 -16q13 0 26.5 12t23.5 48h153q-22 -96 -79.5 -151.5t-137.5 -55.5z" />
    <glyph glyph-name="Racute" unicode="&#x154;" 
d="M196 226l39 184h119q30 0 49.5 16t19.5 41q0 19 -12.5 33t-40.5 14h-113l40 184h128q74 0 127 -27t81.5 -74t28.5 -109q0 -58 -28.5 -106t-78 -83t-113 -54t-132.5 -19h-114zM-18 0l149 698h229l-149 -698h-229zM356 0q-1 66 -14 126t-45.5 103.5t-90.5 58.5l238 49
q59 -32 87.5 -83t38 -116t11.5 -138h-225zM283 749l120 173h197l-153 -173h-164z" />
    <glyph glyph-name="racute" unicode="&#x155;" 
d="M381 247l17 81q7 33 0.5 51t-33.5 18q-20 0 -51 -18t-69 -59l12 142q35 34 63.5 59.5t62.5 39.5t82 14q59 0 98 -30.5t53 -86t-2 -130.5l-17 -81h-216zM-18 0l120 563h211l-11 -73l-104 -490h-216zM303 615l120 173h197l-153 -173h-164z" />
    <glyph glyph-name="uni0156" unicode="&#x156;" 
d="M196 226l39 184h119q30 0 49.5 16t19.5 41q0 19 -12.5 33t-40.5 14h-113l40 184h128q74 0 127 -27t81.5 -74t28.5 -109q0 -58 -28.5 -106t-78 -83t-113 -54t-132.5 -19h-114zM-18 0l149 698h229l-149 -698h-229zM356 0q-1 66 -14 126t-45.5 103.5t-90.5 58.5l238 49
q59 -32 87.5 -83t38 -116t11.5 -138h-225zM142 -198l33 154h209l-79 -154h-163z" />
    <glyph glyph-name="uni0157" unicode="&#x157;" 
d="M381 247l17 81q7 33 0.5 51t-33.5 18q-20 0 -51 -18t-69 -59l12 142q35 34 63.5 59.5t62.5 39.5t82 14q59 0 98 -30.5t53 -86t-2 -130.5l-17 -81h-216zM-18 0l120 563h211l-11 -73l-104 -490h-216zM-58 -198l33 154h209l-79 -154h-163z" />
    <glyph glyph-name="Rcaron" unicode="&#x158;" 
d="M196 226l39 184h119q30 0 49.5 16t19.5 41q0 19 -12.5 33t-40.5 14h-113l40 184h128q74 0 127 -27t81.5 -74t28.5 -109q0 -58 -28.5 -106t-78 -83t-113 -54t-132.5 -19h-114zM-18 0l149 698h229l-149 -698h-229zM356 0q-1 66 -14 126t-45.5 103.5t-90.5 58.5l238 49
q59 -32 87.5 -83t38 -116t11.5 -138h-225zM190 922h172l31 -88l60 88h183l-141 -173h-234z" />
    <glyph glyph-name="rcaron" unicode="&#x159;" 
d="M381 247l17 81q7 33 0.5 51t-33.5 18q-20 0 -51 -18t-69 -59l12 142q35 34 63.5 59.5t62.5 39.5t82 14q59 0 98 -30.5t53 -86t-2 -130.5l-17 -81h-216zM-18 0l120 563h211l-11 -73l-104 -490h-216zM210 788h172l31 -88l60 88h183l-141 -173h-234z" />
    <glyph glyph-name="Sacute" unicode="&#x15a;" 
d="M298 -12q-85 0 -148 32.5t-96.5 91.5t-30.5 138h222q-4 -34 13 -56t52 -22q16 0 28.5 5.5t20 16t7.5 23.5q0 17 -15.5 28.5t-41 20.5t-56 19t-61.5 24t-56.5 35t-41 52t-15.5 75q0 71 37.5 124.5t105.5 84t160 30.5q84 0 146.5 -29.5t96 -83t29.5 -126.5h-221
q0 28 -17.5 41.5t-41.5 13.5q-15 0 -27 -4t-19 -12.5t-7 -21.5q0 -15 15.5 -25t41.5 -18.5t56.5 -17.5t61 -22.5t56.5 -34t41.5 -50.5t15.5 -74q0 -78 -39 -136t-109 -90t-163 -32zM295 750l120 173h197l-153 -173h-164z" />
    <glyph glyph-name="sacute" unicode="&#x15b;" 
d="M294 -12q-46 0 -91.5 13t-83 38t-60 61.5t-22.5 84.5h188q3 -25 21 -38t57 -13q29 0 48.5 10t19.5 27q0 16 -20.5 25t-52.5 15.5t-68 16t-68.5 27t-53 47.5t-20.5 78q0 65 34.5 108.5t95.5 65t139 21.5q63 0 117 -20t89 -61.5t39 -106.5h-188q-5 20 -22 31t-44 11
q-28 0 -43 -9t-15 -23q0 -15 20.5 -23t52.5 -14t68.5 -15t68.5 -26t52.5 -46.5t20.5 -78.5q0 -70 -35.5 -115.5t-98.5 -68t-145 -22.5zM270 614l120 173h197l-153 -173h-164z" />
    <glyph glyph-name="Scircumflex" unicode="&#x15c;" 
d="M298 -12q-85 0 -148 32.5t-96.5 91.5t-30.5 138h222q-4 -34 13 -56t52 -22q16 0 28.5 5.5t20 16t7.5 23.5q0 17 -15.5 28.5t-41 20.5t-56 19t-61.5 24t-56.5 35t-41 52t-15.5 75q0 71 37.5 124.5t105.5 84t160 30.5q84 0 146.5 -29.5t96 -83t29.5 -126.5h-221
q0 28 -17.5 41.5t-41.5 13.5q-15 0 -27 -4t-19 -12.5t-7 -21.5q0 -15 15.5 -25t41.5 -18.5t56.5 -17.5t61 -22.5t56.5 -34t41.5 -50.5t15.5 -74q0 -78 -39 -136t-109 -90t-163 -32zM157 750l151 173h234l81 -173h-191l-26 78l-51 -78h-198z" />
    <glyph glyph-name="scircumflex" unicode="&#x15d;" 
d="M294 -12q-46 0 -91.5 13t-83 38t-60 61.5t-22.5 84.5h188q3 -25 21 -38t57 -13q29 0 48.5 10t19.5 27q0 16 -20.5 25t-52.5 15.5t-68 16t-68.5 27t-53 47.5t-20.5 78q0 65 34.5 108.5t95.5 65t139 21.5q63 0 117 -20t89 -61.5t39 -106.5h-188q-5 20 -22 31t-44 11
q-28 0 -43 -9t-15 -23q0 -15 20.5 -23t52.5 -14t68.5 -15t68.5 -26t52.5 -46.5t20.5 -78.5q0 -70 -35.5 -115.5t-98.5 -68t-145 -22.5zM132 614l151 173h234l81 -173h-191l-26 78l-51 -78h-198z" />
    <glyph glyph-name="Scedilla" unicode="&#x15e;" 
d="M298 -12q-85 0 -148 32.5t-96.5 91.5t-30.5 138h222q-4 -34 13 -56t52 -22q16 0 28.5 5.5t20 16t7.5 23.5q0 17 -15.5 28.5t-41 20.5t-56 19t-61.5 24t-56.5 35t-41 52t-15.5 75q0 71 37.5 124.5t105.5 84t160 30.5q84 0 146.5 -29.5t96 -83t29.5 -126.5h-221
q0 28 -17.5 41.5t-41.5 13.5q-15 0 -27 -4t-19 -12.5t-7 -21.5q0 -15 15.5 -25t41.5 -18.5t56.5 -17.5t61 -22.5t56.5 -34t41.5 -50.5t15.5 -74q0 -78 -39 -136t-109 -90t-163 -32zM245 -222q-27 0 -49.5 4t-48.5 13l16 77q13 -4 30.5 -9t36.5 -5q17 0 27 5t10 13t-8 11.5
t-20 3.5q-10 0 -19 -1.5t-18 -4.5l-16 45l86 103l81 -26l-42 -47h4h3q36 0 64 -20t28 -56q0 -39 -24.5 -62.5t-62.5 -33.5t-78 -10z" />
    <glyph glyph-name="scedilla" unicode="&#x15f;" 
d="M294 -12q-46 0 -91.5 13t-83 38t-60 61.5t-22.5 84.5h188q3 -25 21 -38t57 -13q29 0 48.5 10t19.5 27q0 16 -20.5 25t-52.5 15.5t-68 16t-68.5 27t-53 47.5t-20.5 78q0 65 34.5 108.5t95.5 65t139 21.5q63 0 117 -20t89 -61.5t39 -106.5h-188q-5 20 -22 31t-44 11
q-28 0 -43 -9t-15 -23q0 -15 20.5 -23t52.5 -14t68.5 -15t68.5 -26t52.5 -46.5t20.5 -78.5q0 -70 -35.5 -115.5t-98.5 -68t-145 -22.5zM248 -222q-27 0 -49.5 4t-48.5 13l16 77q13 -4 30.5 -9t36.5 -5q17 0 27 5t10 13t-8 11.5t-20 3.5q-10 0 -19 -1.5t-18 -4.5l-16 45
l86 103l81 -26l-42 -47h4h3q36 0 64 -20t28 -56q0 -39 -24.5 -62.5t-62.5 -33.5t-78 -10z" />
    <glyph glyph-name="Scaron" unicode="&#x160;" 
d="M298 -12q-85 0 -148 32.5t-96.5 91.5t-30.5 138h222q-4 -34 13 -56t52 -22q16 0 28.5 5.5t20 16t7.5 23.5q0 17 -15.5 28.5t-41 20.5t-56 19t-61.5 24t-56.5 35t-41 52t-15.5 75q0 71 37.5 124.5t105.5 84t160 30.5q84 0 146.5 -29.5t96 -83t29.5 -126.5h-221
q0 28 -17.5 41.5t-41.5 13.5q-15 0 -27 -4t-19 -12.5t-7 -21.5q0 -15 15.5 -25t41.5 -18.5t56.5 -17.5t61 -22.5t56.5 -34t41.5 -50.5t15.5 -74q0 -78 -39 -136t-109 -90t-163 -32zM202 923h172l31 -88l60 88h183l-141 -173h-234z" />
    <glyph glyph-name="scaron" unicode="&#x161;" 
d="M294 -12q-46 0 -91.5 13t-83 38t-60 61.5t-22.5 84.5h188q3 -25 21 -38t57 -13q29 0 48.5 10t19.5 27q0 16 -20.5 25t-52.5 15.5t-68 16t-68.5 27t-53 47.5t-20.5 78q0 65 34.5 108.5t95.5 65t139 21.5q63 0 117 -20t89 -61.5t39 -106.5h-188q-5 20 -22 31t-44 11
q-28 0 -43 -9t-15 -23q0 -15 20.5 -23t52.5 -14t68.5 -15t68.5 -26t52.5 -46.5t20.5 -78.5q0 -70 -35.5 -115.5t-98.5 -68t-145 -22.5zM177 787h172l31 -88l60 88h183l-141 -173h-234z" />
    <glyph glyph-name="uni0162" unicode="&#x162;" 
d="M151 0l109 514h-182l40 184h593l-40 -184h-182l-109 -514h-229zM200 -222q-27 0 -49.5 4t-48.5 13l16 77q13 -4 30.5 -9t36.5 -5q17 0 27 5t10 13t-8 11.5t-20 3.5q-10 0 -19 -1.5t-18 -4.5l-16 45l86 103l81 -26l-42 -47h4h3q36 0 64 -20t28 -56q0 -39 -24.5 -62.5
t-62.5 -33.5t-78 -10z" />
    <glyph glyph-name="uni0163" unicode="&#x163;" 
d="M306 0q-64 0 -108.5 20t-62.5 67t-1 128l97 459l234 86l-112 -527q-6 -31 2 -43.5t28 -15t49 -2.5h132l-37 -172h-221zM60 391l37 172h466l-37 -172h-466zM261 -222q-27 0 -49.5 4t-48.5 13l16 77q13 -4 30.5 -9t36.5 -5q17 0 27 5t10 13t-8 11.5t-20 3.5q-10 0 -19 -1.5
t-18 -4.5l-16 45l86 103l81 -26l-42 -47h4h3q36 0 64 -20t28 -56q0 -39 -24.5 -62.5t-62.5 -33.5t-78 -10z" />
    <glyph glyph-name="Tcaron" unicode="&#x164;" 
d="M151 0l109 514h-182l40 184h593l-40 -184h-182l-109 -514h-229zM228 923h172l31 -88l60 88h183l-141 -173h-234z" />
    <glyph glyph-name="tcaron" unicode="&#x165;" 
d="M306 0q-64 0 -108.5 20t-62.5 67t-1 128l97 459l234 86l-112 -527q-6 -31 2 -43.5t28 -15t49 -2.5h132l-37 -172h-221zM60 391l37 172h466l-37 -172h-466zM480 595l53 223h168l-90 -223h-131z" />
    <glyph glyph-name="Tbar" unicode="&#x166;" 
d="M151 0l109 514h-182l40 184h593l-40 -184h-182l-109 -514h-229zM124.941 243l26.75 120h396.973l-26.75 -120h-396.973z" />
    <glyph glyph-name="tbar" unicode="&#x167;" horiz-adv-x="651" 
d="M45 235l23 110h444l-23 -110h-444zM306 0q-64 0 -108.5 20t-62.5 67t-1 128l97 459l234 86l-112 -527q-6 -31 2 -43.5t28 -15t49 -2.5h132l-37 -172h-221zM60 391l37 172h466l-37 -172h-466z" />
    <glyph glyph-name="Utilde" unicode="&#x168;" 
d="M286 -12q-96 0 -162 33t-93.5 95t-9.5 147l93 435h229l-95 -445q-5 -25 0.5 -43.5t20.5 -28t37 -9.5q23 0 39.5 9.5t28 28t16.5 43.5l95 445h229l-93 -435q-18 -85 -60 -147t-110 -95t-165 -33zM324 742l-144 23q19 76 61 120.5t106 44.5q39 0 64.5 -8t44 -16.5
t35.5 -8.5q14 0 26 10.5t17 28.5l147 -22q-21 -76 -63.5 -120.5t-107.5 -44.5q-34 0 -60.5 9t-47 17.5t-38.5 8.5q-13 0 -23.5 -11t-16.5 -31z" />
    <glyph glyph-name="utilde" unicode="&#x169;" 
d="M315 563l-71 -333q-5 -26 5.5 -42.5t33.5 -16.5q33 0 59.5 20.5t67.5 63.5l-19 -155q-56 -59 -108 -85.5t-101 -26.5q-60 0 -101 26t-57 73.5t-2 114.5l77 361h216zM668 563l-120 -563h-211l11 73l104 490h216zM299 606l-144 23q19 76 61 120.5t106 44.5q39 0 64.5 -8
t44 -16.5t35.5 -8.5q14 0 26 10.5t17 28.5l147 -22q-21 -76 -63.5 -120.5t-107.5 -44.5q-34 0 -60.5 9t-47 17.5t-38.5 8.5q-13 0 -23.5 -11t-16.5 -31z" />
    <glyph glyph-name="Umacron" unicode="&#x16a;" 
d="M286 -12q-96 0 -162 33t-93.5 95t-9.5 147l93 435h229l-95 -445q-5 -25 0.5 -43.5t20.5 -28t37 -9.5q23 0 39.5 9.5t28 28t16.5 43.5l95 445h229l-93 -435q-18 -85 -60 -147t-110 -95t-165 -33zM226 769l29 137h392l-29 -137h-392z" />
    <glyph glyph-name="umacron" unicode="&#x16b;" 
d="M315 563l-71 -333q-5 -26 5.5 -42.5t33.5 -16.5q33 0 59.5 20.5t67.5 63.5l-19 -155q-56 -59 -108 -85.5t-101 -26.5q-60 0 -101 26t-57 73.5t-2 114.5l77 361h216zM668 563l-120 -563h-211l11 73l104 490h216zM201 633l29 137h392l-29 -137h-392z" />
    <glyph glyph-name="Ubreve" unicode="&#x16c;" 
d="M286 -12q-96 0 -162 33t-93.5 95t-9.5 147l93 435h229l-95 -445q-5 -25 0.5 -43.5t20.5 -28t37 -9.5q23 0 39.5 9.5t28 28t16.5 43.5l95 445h229l-93 -435q-18 -85 -60 -147t-110 -95t-165 -33zM433 743q-63 0 -106 23t-62.5 63.5t-14.5 93.5h154q-3 -25 7 -41t31 -16
t34.5 16t16.5 41h157q-5 -53 -33 -93.5t-74.5 -63.5t-109.5 -23z" />
    <glyph glyph-name="ubreve" unicode="&#x16d;" 
d="M315 563l-71 -333q-5 -26 5.5 -42.5t33.5 -16.5q33 0 59.5 20.5t67.5 63.5l-19 -155q-56 -59 -108 -85.5t-101 -26.5q-60 0 -101 26t-57 73.5t-2 114.5l77 361h216zM668 563l-120 -563h-211l11 73l104 490h216zM408 607q-63 0 -106 23t-62.5 63.5t-14.5 93.5h154
q-3 -25 7 -41t31 -16t34.5 16t16.5 41h157q-5 -53 -33 -93.5t-74.5 -63.5t-109.5 -23z" />
    <glyph glyph-name="Uring" unicode="&#x16e;" 
d="M286 -12q-96 0 -162 33t-93.5 95t-9.5 147l93 435h229l-95 -445q-5 -25 0.5 -43.5t20.5 -28t37 -9.5q23 0 39.5 9.5t28 28t16.5 43.5l95 445h229l-93 -435q-18 -85 -60 -147t-110 -95t-165 -33zM422 721q-55 0 -89.5 31t-34.5 80q0 59 41.5 97t106.5 38q54 0 89 -31
t35 -80q0 -59 -41.5 -97t-106.5 -38zM429 805q20 0 32.5 12.5t12.5 31.5q0 15 -10 24.5t-25 9.5q-19 0 -32 -12t-13 -32q0 -15 10 -24.5t25 -9.5z" />
    <glyph glyph-name="uring" unicode="&#x16f;" 
d="M315 563l-71 -333q-5 -26 5.5 -42.5t33.5 -16.5q33 0 59.5 20.5t67.5 63.5l-19 -155q-56 -59 -108 -85.5t-101 -26.5q-60 0 -101 26t-57 73.5t-2 114.5l77 361h216zM668 563l-120 -563h-211l11 73l104 490h216zM397 585q-55 0 -89.5 31t-34.5 80q0 59 41.5 97t106.5 38
q54 0 89 -31t35 -80q0 -59 -41.5 -97t-106.5 -38zM404 669q20 0 32.5 12.5t12.5 31.5q0 15 -10 24.5t-25 9.5q-19 0 -32 -12t-13 -32q0 -15 10 -24.5t25 -9.5z" />
    <glyph glyph-name="Uhungarumlaut" unicode="&#x170;" 
d="M286 -12q-96 0 -162 33t-93.5 95t-9.5 147l93 435h229l-95 -445q-5 -25 0.5 -43.5t20.5 -28t37 -9.5q23 0 39.5 9.5t28 28t16.5 43.5l95 445h229l-93 -435q-18 -85 -60 -147t-110 -95t-165 -33zM245 750l100 173h180l-132 -173h-148zM444 750l111 173h180l-143 -173h-148
z" />
    <glyph glyph-name="uhungarumlaut" unicode="&#x171;" 
d="M315 563l-71 -333q-5 -26 5.5 -42.5t33.5 -16.5q33 0 59.5 20.5t67.5 63.5l-19 -155q-56 -59 -108 -85.5t-101 -26.5q-60 0 -101 26t-57 73.5t-2 114.5l77 361h216zM668 563l-120 -563h-211l11 73l104 490h216zM220 614l100 173h180l-132 -173h-148zM419 614l111 173h180
l-143 -173h-148z" />
    <glyph glyph-name="Uogonek" unicode="&#x172;" 
d="M286 -12q-96 0 -162 33t-93.5 95t-9.5 147l93 435h229l-95 -445q-5 -25 0.5 -43.5t20.5 -28t37 -9.5q23 0 39.5 9.5t28 28t16.5 43.5l95 445h229l-93 -435q-18 -85 -60 -147t-110 -95t-165 -33zM328 -226q-10 -1 -19.5 -2t-17.5 -1q-91 0 -120 32t-18 87q5 23 22 49.5
t44.5 52t65.5 45.5l91 -37q-17 -10 -31.5 -21.5t-23.5 -23.5t-12 -24q-4 -16 4 -25.5t24 -9.5h9.5t8.5 1z" />
    <glyph glyph-name="uogonek" unicode="&#x173;" 
d="M315 563l-71 -333q-5 -26 5.5 -42.5t33.5 -16.5q33 0 59.5 20.5t67.5 63.5l-19 -155q-56 -59 -108 -85.5t-101 -26.5q-60 0 -101 26t-57 73.5t-2 114.5l77 361h216zM668 563l-120 -563h-211l11 73l104 490h216zM432 -226q-10 -1 -19.5 -2t-17.5 -1q-91 0 -120 32t-18 87
q5 23 22 49.5t44.5 52t65.5 45.5l91 -37q-17 -10 -31.5 -21.5t-23.5 -23.5t-12 -24q-4 -16 4 -25.5t24 -9.5h9.5t8.5 1z" />
    <glyph glyph-name="Wcircumflex" unicode="&#x174;" 
d="M7 0l92 698h179l-43 -264l-40 -239l63 239l81 264h142l-32 -264l-33 -239l58 239l74 264h181l-210 -698h-230l23 156l22 177l-49 -177l-43 -156h-235zM185 750l151 173h234l81 -173h-191l-26 78l-51 -78h-198z" />
    <glyph glyph-name="wcircumflex" unicode="&#x175;" 
d="M25 0l42 563h168l-32 -272l-18 -108l28 108l89 272h160l-22 -272l-19 -117l31 117l83 272h167l-194 -563h-193l18 289l18 116l-31 -116l-104 -289h-191zM165 619l151 173h234l81 -173h-191l-26 78l-51 -78h-198z" />
    <glyph glyph-name="Ycircumflex" unicode="&#x176;" 
d="M147 0l60 281l-107 417h214l20 -128l16 -139l74 143l71 124h232l-291 -417l-60 -281h-229zM172 750l151 173h234l81 -173h-191l-26 78l-51 -78h-198z" />
    <glyph glyph-name="ycircumflex" unicode="&#x177;" 
d="M302 419l10 -150l65 133l90 161h230l-364 -578q-37 -59 -75 -98t-88 -58t-125 -19h-116l37 174h65q35 0 54.5 7.5t32.5 21.5t27 36l20 30l-97 484h216zM148 615l151 173h234l81 -173h-191l-26 78l-51 -78h-198z" />
    <glyph glyph-name="Ydieresis" unicode="&#x178;" 
d="M147 0l60 281l-107 417h214l20 -128l16 -139l74 143l71 124h232l-291 -417l-60 -281h-229zM441 759l34 158h188l-34 -158h-188zM187 759l34 158h188l-34 -158h-188z" />
    <glyph glyph-name="Zacute" unicode="&#x179;" 
d="M-29 0l33 154l269 266l123 94h-162h-144l40 184h577l-33 -154l-278 -267l-125 -92l162 -1h164l-39 -184h-587zM330 750l120 173h197l-153 -173h-164z" />
    <glyph glyph-name="zacute" unicode="&#x17a;" 
d="M7 0l33 156l161 142l117 90l-151 1h-68l37 174h507l-33 -153l-166 -146l-117 -89l151 -1h82l-37 -174h-516zM300 615l120 173h197l-153 -173h-164z" />
    <glyph glyph-name="Zdotaccent" unicode="&#x17b;" 
d="M-29 0l33 154l269 266l123 94h-162h-144l40 184h577l-33 -154l-278 -267l-125 -92l162 -1h164l-39 -184h-587zM319 752l36 168h218l-36 -168h-218z" />
    <glyph glyph-name="zdotaccent" unicode="&#x17c;" 
d="M7 0l33 156l161 142l117 90l-151 1h-68l37 174h507l-33 -153l-166 -146l-117 -89l151 -1h82l-37 -174h-516zM289 617l36 168h218l-36 -168h-218z" />
    <glyph glyph-name="Zcaron" unicode="&#x17d;" 
d="M-29 0l33 154l269 266l123 94h-162h-144l40 184h577l-33 -154l-278 -267l-125 -92l162 -1h164l-39 -184h-587zM237 923h172l31 -88l60 88h183l-141 -173h-234z" />
    <glyph glyph-name="zcaron" unicode="&#x17e;" 
d="M7 0l33 156l161 142l117 90l-151 1h-68l37 174h507l-33 -153l-166 -146l-117 -89l151 -1h82l-37 -174h-516zM207 788h172l31 -88l60 88h183l-141 -173h-234z" />
    <glyph glyph-name="florin" unicode="&#x192;" 
d="M-2 0l16 168h115q21 0 34 9.5t20 28.5l108 331q26 79 74.5 120.5t145.5 41.5h169l-16 -168h-118q-20 0 -33.5 -9t-20.5 -29l-109 -331q-17 -51 -42.5 -87.5t-68 -55.5t-109.5 -19h-165zM98 270l34 161h441l-34 -161h-441z" />
    <glyph glyph-name="Aringacute" unicode="&#x1fa;" 
d="M75 123l38 175h443l-38 -175h-443zM252 698h322l-4 -698h-231l28 286l9 245l-95 -245l-91 -286h-230zM427 720q-55 0 -89.5 31t-34.5 80q0 59 41.5 97t106.5 38q54 0 89 -31t35 -80q0 -59 -41.5 -97t-106.5 -38zM434 804q20 0 32.5 12.5t12.5 31.5q0 15 -10 24.5t-25 9.5
q-19 0 -32 -12t-13 -32q0 -15 10 -24.5t25 -9.5zM365 938l120 173h197l-153 -173h-164z" />
    <glyph glyph-name="aringacute" unicode="&#x1fb;" 
d="M326 0l11 73l63 297q4 19 -2 32t-20 19.5t-33 6.5q-30 0 -46 -11.5t-21 -34.5h-208q13 56 47.5 99.5t94 68.5t145.5 25q93 0 155 -27.5t88 -81.5t9 -133l-71 -333h-212zM202 -12q-53 0 -90 23.5t-55.5 59.5t-18.5 74q0 62 30.5 108t85.5 71t129 25h129l-31 -134l-103 -2
q-23 -1 -33 -11t-10 -24t10.5 -22.5t29.5 -8.5q28 0 52.5 10t40.5 29l-6 -113q-35 -42 -71.5 -63.5t-88.5 -21.5zM388 585q-55 0 -89.5 31t-34.5 80q0 59 41.5 97t106.5 38q54 0 89 -31t35 -80q0 -59 -41.5 -97t-106.5 -38zM395 669q20 0 32.5 12.5t12.5 31.5q0 15 -10 24.5
t-25 9.5q-19 0 -32 -12t-13 -32q0 -15 10 -24.5t25 -9.5zM326 803l120 173h197l-153 -173h-164z" />
    <glyph glyph-name="AEacute" unicode="&#x1fc;" 
d="M-54 0l353 698h174l-327 -698h-200zM144 106l39 184h174l-39 -184h-174zM277 0l149 698h299l-40 -184h-120l-15 -72h98l-37 -175h-98l-18 -83h124l-39 -184h-303zM389 749l120 173h197l-153 -173h-164z" />
    <glyph glyph-name="aeacute" unicode="&#x1fd;" 
d="M194 119l58 268q4 19 2 31t-8 17.5t-15 5.5q-15 0 -27 -15t-17 -42h-157q23 89 79 140t136 51q63 0 101.5 -26t51.5 -73t0 -109l-53 -248h-151zM124 -12q-67 0 -102.5 41.5t-35.5 98.5q0 64 29 110.5t80 72t118 25.5h40l-26 -119h-20q-31 0 -49 -17t-18 -41
q0 -14 7.5 -23.5t19.5 -9.5q22 0 36 27.5t28 101.5l73 -92q-25 -90 -67 -132.5t-113 -42.5zM388 -12q-52 0 -91 22t-60 64t-21 100q0 45 10 99t30.5 107t52 97t73 71t94.5 27q59 0 94.5 -25t51.5 -69.5t16.5 -101.5t-10.5 -122h-274l26 111h105q4 20 3 36.5t-7.5 26.5
t-20.5 10q-20 0 -35 -20.5t-25 -52t-16 -65t-8.5 -61t-2.5 -39.5q0 -21 4 -36t12 -23.5t19 -8.5q17 0 32 14.5t24 45.5h154q-25 -98 -87 -152.5t-143 -54.5zM299 615l120 173h197l-153 -173h-164z" />
    <glyph glyph-name="Oslashacute" unicode="&#x1fe;" 
d="M293 -12q-79 0 -137 36t-89.5 98.5t-31.5 140.5q0 90 23 171t67.5 143t110 97.5t151.5 35.5q79 0 137 -35.5t89.5 -96.5t31.5 -140q0 -91 -23 -172t-67.5 -143.5t-110 -98.5t-151.5 -36zM314 154q29 0 53.5 21.5t43 60.5t29 92t10.5 116q0 44 -19 72t-52 28
q-28 0 -53 -21.5t-43.5 -60.5t-29 -92t-10.5 -116q0 -43 19 -71.5t52 -28.5zM149 -82l-136 67l537 805l136 -66zM303 749l120 173h197l-153 -173h-164z" />
    <glyph glyph-name="oslashacute" unicode="&#x1ff;" 
d="M102 -100l-87 67l523 676l87 -66zM298 -12q-81 0 -141.5 29.5t-94 84t-33.5 128.5q0 104 40 181.5t113 120.5t172 43q81 0 141.5 -29.5t93.5 -83.5t33 -128q0 -104 -40 -182t-113 -121t-171 -43zM310 160q29 0 50 20.5t32.5 57.5t11.5 87q0 35 -16.5 56.5t-45.5 21.5
t-50.5 -20.5t-33 -57t-11.5 -86.5q0 -24 8 -41.5t22 -27.5t33 -10zM241 615l120 173h197l-153 -173h-164z" />
    <glyph glyph-name="uni0218" unicode="&#x218;" 
d="M298 -12q-85 0 -148 32.5t-96.5 91.5t-30.5 138h222q-4 -34 13 -56t52 -22q16 0 28.5 5.5t20 16t7.5 23.5q0 17 -15.5 28.5t-41 20.5t-56 19t-61.5 24t-56.5 35t-41 52t-15.5 75q0 71 37.5 124.5t105.5 84t160 30.5q84 0 146.5 -29.5t96 -83t29.5 -126.5h-221
q0 28 -17.5 41.5t-41.5 13.5q-15 0 -27 -4t-19 -12.5t-7 -21.5q0 -15 15.5 -25t41.5 -18.5t56.5 -17.5t61 -22.5t56.5 -34t41.5 -50.5t15.5 -74q0 -78 -39 -136t-109 -90t-163 -32zM140 -198l33 154h209l-79 -154h-163z" />
    <glyph glyph-name="uni0219" unicode="&#x219;" 
d="M294 -12q-46 0 -91.5 13t-83 38t-60 61.5t-22.5 84.5h188q3 -25 21 -38t57 -13q29 0 48.5 10t19.5 27q0 16 -20.5 25t-52.5 15.5t-68 16t-68.5 27t-53 47.5t-20.5 78q0 65 34.5 108.5t95.5 65t139 21.5q63 0 117 -20t89 -61.5t39 -106.5h-188q-5 20 -22 31t-44 11
q-28 0 -43 -9t-15 -23q0 -15 20.5 -23t52.5 -14t68.5 -15t68.5 -26t52.5 -46.5t20.5 -78.5q0 -70 -35.5 -115.5t-98.5 -68t-145 -22.5zM143 -198l33 154h209l-79 -154h-163z" />
    <glyph glyph-name="uni021A" unicode="&#x21a;" 
d="M151 0l109 514h-182l40 184h593l-40 -184h-182l-109 -514h-229zM120 -198l33 154h209l-79 -154h-163z" />
    <glyph glyph-name="uni021B" unicode="&#x21b;" 
d="M306 0q-64 0 -108.5 20t-62.5 67t-1 128l97 459l234 86l-112 -527q-6 -31 2 -43.5t28 -15t49 -2.5h132l-37 -172h-221zM60 391l37 172h466l-37 -172h-466zM156 -198l33 154h209l-79 -154h-163z" />
    <glyph glyph-name="uni0237" unicode="&#x237;" 
d="M613 563l-116 -547q-19 -88 -80 -141t-166 -53h-272l37 172h220q25 0 35 11.5t14 30.5l112 527h216zM250 391l37 172h138l-37 -172h-138z" />
    <glyph glyph-name="circumflex" unicode="&#x2c6;" 
d="M211 615l151 173h234l81 -173h-191l-26 78l-51 -78h-198z" />
    <glyph glyph-name="caron" unicode="&#x2c7;" 
d="M266 788h172l31 -88l60 88h183l-141 -173h-234z" />
    <glyph glyph-name="breve" unicode="&#x2d8;" 
d="M495 608q-63 0 -106 23t-62.5 63.5t-14.5 93.5h154q-3 -25 7 -41t31 -16t34.5 16t16.5 41h157q-5 -53 -33 -93.5t-74.5 -63.5t-109.5 -23z" />
    <glyph glyph-name="dotaccent" unicode="&#x2d9;" 
d="M456 617l36 168h218l-36 -168h-218z" />
    <glyph glyph-name="ring" unicode="&#x2da;" 
d="M551 586q-55 0 -89.5 31t-34.5 80q0 59 41.5 97t106.5 38q54 0 89 -31t35 -80q0 -59 -41.5 -97t-106.5 -38zM558 670q20 0 32.5 12.5t12.5 31.5q0 15 -10 24.5t-25 9.5q-19 0 -32 -12t-13 -32q0 -15 10 -24.5t25 -9.5z" />
    <glyph glyph-name="ogonek" unicode="&#x2db;" 
d="M448 -226q-10 -1 -19.5 -2t-17.5 -1q-91 0 -120 32t-18 87q5 23 22 49.5t44.5 52t65.5 45.5l91 -37q-17 -10 -31.5 -21.5t-23.5 -23.5t-12 -24q-4 -16 4 -25.5t24 -9.5h9.5t8.5 1z" />
    <glyph glyph-name="tilde" unicode="&#x2dc;" horiz-adv-x="610" 
d="M297 607l-144 23q19 76 61 120.5t106 44.5q39 0 64.5 -8t44 -16.5t35.5 -8.5q14 0 26 10.5t17 28.5l147 -22q-21 -76 -63.5 -120.5t-107.5 -44.5q-34 0 -60.5 9t-47 17.5t-38.5 8.5q-13 0 -23.5 -11t-16.5 -31z" />
    <glyph glyph-name="hungarumlaut" unicode="&#x2dd;" 
d="M220 615l100 173h180l-132 -173h-148zM419 615l111 173h180l-143 -173h-148z" />
    <glyph glyph-name="gravecomb" unicode="&#x300;" horiz-adv-x="0" 
d="M373 615h-144l-83 173h177z" />
    <glyph glyph-name="acutecomb" unicode="&#x301;" horiz-adv-x="0" 
d="M253 615l120 173h197l-153 -173h-164z" />
    <glyph glyph-name="uni0302" unicode="&#x302;" horiz-adv-x="0" 
d="M163 615l151 173h234l81 -173h-191l-26 78l-51 -78h-198z" />
    <glyph glyph-name="tildecomb" unicode="&#x303;" horiz-adv-x="0" 
d="M288 607l-144 23q19 76 61 120.5t106 44.5q39 0 64.5 -8t44 -16.5t35.5 -8.5q14 0 26 10.5t17 28.5l147 -22q-21 -76 -63.5 -120.5t-107.5 -44.5q-34 0 -60.5 9t-47 17.5t-38.5 8.5q-13 0 -23.5 -11t-16.5 -31z" />
    <glyph glyph-name="uni0304" unicode="&#x304;" horiz-adv-x="0" 
d="M204 634l29 137h392l-29 -137h-392z" />
    <glyph glyph-name="uni0306" unicode="&#x306;" horiz-adv-x="0" 
d="M414 608q-63 0 -106 23t-62.5 63.5t-14.5 93.5h154q-3 -25 7 -41t31 -16t34.5 16t16.5 41h157q-5 -53 -33 -93.5t-74.5 -63.5t-109.5 -23z" />
    <glyph glyph-name="uni0307" unicode="&#x307;" horiz-adv-x="0" 
d="M287 617l36 168h218l-36 -168h-218z" />
    <glyph glyph-name="uni0308" unicode="&#x308;" horiz-adv-x="0" 
d="M431 624l34 158h188l-34 -158h-188zM177 624l34 158h188l-34 -158h-188z" />
    <glyph glyph-name="uni030A" unicode="&#x30a;" horiz-adv-x="0" 
d="M404 586q-55 0 -89.5 31t-34.5 80q0 59 41.5 97t106.5 38q54 0 89 -31t35 -80q0 -59 -41.5 -97t-106.5 -38zM411 670q20 0 32.5 12.5t12.5 31.5q0 15 -10 24.5t-25 9.5q-19 0 -32 -12t-13 -32q0 -15 10 -24.5t25 -9.5z" />
    <glyph glyph-name="uni030B" unicode="&#x30b;" horiz-adv-x="0" 
d="M167 615l100 173h180l-132 -173h-148zM366 615l111 173h180l-143 -173h-148z" />
    <glyph glyph-name="uni030C" unicode="&#x30c;" horiz-adv-x="0" 
d="M208 788h172l31 -88l60 88h183l-141 -173h-234z" />
    <glyph glyph-name="uni0326" unicode="&#x326;" horiz-adv-x="0" 
d="M118 -198l33 154h209l-79 -154h-163z" />
    <glyph glyph-name="uni0327" unicode="&#x327;" horiz-adv-x="0" 
d="M203 -222q-27 0 -49.5 4t-48.5 13l16 77q13 -4 30.5 -9t36.5 -5q17 0 27 5t10 13t-8 11.5t-20 3.5q-10 0 -19 -1.5t-18 -4.5l-16 45l86 103l81 -26l-42 -47h4h3q36 0 64 -20t28 -56q0 -39 -24.5 -62.5t-62.5 -33.5t-78 -10z" />
    <glyph glyph-name="uni0328" unicode="&#x328;" horiz-adv-x="0" 
d="M290 -226q-10 -1 -19.5 -2t-17.5 -1q-91 0 -120 32t-18 87q5 23 22 49.5t44.5 52t65.5 45.5l91 -37q-17 -10 -31.5 -21.5t-23.5 -23.5t-12 -24q-4 -16 4 -25.5t24 -9.5h9.5t8.5 1z" />
    <glyph glyph-name="uni0338" unicode="&#x338;" horiz-adv-x="0" 
d="M134 -109l-136 67l537 805l136 -66z" />
    <glyph glyph-name="uni0394" unicode="&#x394;" 
d="M-45 0l36 169l294 529h277l49 -529l-36 -169h-620zM233 179h166l-4 347z" />
    <glyph glyph-name="uni03A9" unicode="&#x3a9;" 
d="M-48 0l34 161h52l53 -11q-16 15 -30 38.5t-22.5 54.5t-8.5 70q0 77 29 148t82 127.5t123.5 89t152.5 32.5q79 0 135 -31t86 -85t30 -125q0 -51 -17.5 -110.5t-54 -115t-94.5 -93.5l50 11h61l-34 -161h-297l36 170q43 30 72 78t44 101t15 95q0 33 -8.5 54.5t-23.5 32
t-37 10.5q-36 0 -62.5 -25t-43.5 -64t-25.5 -79.5t-8.5 -72.5q0 -28 4.5 -53t13.5 -44.5t20 -32.5l-36 -170h-290z" />
    <glyph glyph-name="uni03BC" unicode="&#x3bc;" 
d="M-61 -190l109 509h215l-53 -247l-28 -19l-51 -243h-192zM315 563l-71 -333q-5 -26 5.5 -42.5t33.5 -16.5q33 0 59.5 20.5t67.5 63.5l-19 -155q-56 -59 -107.5 -85.5t-101.5 -26.5q-60 0 -101 26t-57 74t-2 114l77 361h216zM668 563l-120 -563h-211l11 73l104 490h216z
" />
    <glyph glyph-name="pi" unicode="&#x3c0;" 
d="M478 0q-55 0 -94 26.5t-55 72.5t-3 106l77 358h183l-72 -339q-4 -19 1.5 -30.5t16 -16.5t22.5 -5h68l-37 -172h-107zM35 0l120 563h183l-120 -563h-183zM39 391l37 172h609l-37 -172h-609z" />
    <glyph glyph-name="uni0E3F" unicode="&#xe3f;" 
d="M301 680l25 117h214l-25 -117h-214zM136 -97l24 117h214l-24 -117h-214zM516 364q44 -13 70.5 -51t26.5 -88q0 -68 -37.5 -118.5t-106 -78.5t-161.5 -28h-328l149 698h293q69 0 120 -20.5t79 -57t28 -86.5q0 -38 -17 -71.5t-47 -59t-69 -39.5zM370 514h-52l-17 -84h56
q18 0 31.5 6t20.5 17t7 26q0 16 -11.5 25.5t-34.5 9.5zM248 184h68q26 0 44.5 13t18.5 36q0 17 -12 28t-38 11h-62z" />
    <glyph glyph-name="Wgrave" unicode="&#x1e80;" 
d="M7 0l92 698h179l-43 -264l-40 -239l63 239l81 264h142l-32 -264l-33 -239l58 239l74 264h181l-210 -698h-230l23 156l22 177l-49 -177l-43 -156h-235zM513 751h-144l-83 173h177z" />
    <glyph glyph-name="wgrave" unicode="&#x1e81;" 
d="M25 0l42 563h168l-32 -272l-18 -108l28 108l89 272h160l-22 -272l-19 -117l31 117l83 272h167l-194 -563h-193l18 289l18 116l-31 -116l-104 -289h-191zM493 620h-144l-83 173h177z" />
    <glyph glyph-name="Wacute" unicode="&#x1e82;" 
d="M7 0l92 698h179l-43 -264l-40 -239l63 239l81 264h142l-32 -264l-33 -239l58 239l74 264h181l-210 -698h-230l23 156l22 177l-49 -177l-43 -156h-235zM323 750l120 173h197l-153 -173h-164z" />
    <glyph glyph-name="wacute" unicode="&#x1e83;" 
d="M25 0l42 563h168l-32 -272l-18 -108l28 108l89 272h160l-22 -272l-19 -117l31 117l83 272h167l-194 -563h-193l18 289l18 116l-31 -116l-104 -289h-191zM303 619l120 173h197l-153 -173h-164z" />
    <glyph glyph-name="Wdieresis" unicode="&#x1e84;" 
d="M7 0l92 698h179l-43 -264l-40 -239l63 239l81 264h142l-32 -264l-33 -239l58 239l74 264h181l-210 -698h-230l23 156l22 177l-49 -177l-43 -156h-235zM454 759l34 158h188l-34 -158h-188zM200 759l34 158h188l-34 -158h-188z" />
    <glyph glyph-name="wdieresis" unicode="&#x1e85;" 
d="M25 0l42 563h168l-32 -272l-18 -108l28 108l89 272h160l-22 -272l-19 -117l31 117l83 272h167l-194 -563h-193l18 289l18 116l-31 -116l-104 -289h-191zM434 628l34 158h188l-34 -158h-188zM180 628l34 158h188l-34 -158h-188z" />
    <glyph glyph-name="uni1E9E" unicode="&#x1e9e;" 
d="M326 -12q-26 0 -47.5 1.5t-41.5 4.5l39 186q8 -3 18 -5.5t24 -2.5q31 0 49 15t18 40q0 20 -14 32.5t-38 12.5h-37l34 158h25q18 0 31.5 6t20.5 17t7 25q0 17 -11.5 26.5t-31.5 9.5h-77l-109 -514h-209l149 698h307q65 0 113 -20t74.5 -56.5t26.5 -86.5q0 -49 -27 -89
t-76 -66t-116 -35l22 34q48 -5 83 -27.5t54.5 -57.5t19.5 -79q0 -68 -33.5 -119.5t-96 -79.5t-150.5 -28z" />
    <glyph glyph-name="Ygrave" unicode="&#x1ef2;" 
d="M147 0l60 281l-107 417h214l20 -128l16 -139l74 143l71 124h232l-291 -417l-60 -281h-229zM500 751h-144l-83 173h177z" />
    <glyph glyph-name="ygrave" unicode="&#x1ef3;" 
d="M302 419l10 -150l65 133l90 161h230l-364 -578q-37 -59 -75 -98t-88 -58t-125 -19h-116l37 174h65q35 0 54.5 7.5t32.5 21.5t27 36l20 30l-97 484h216zM476 616h-144l-83 173h177z" />
    <glyph glyph-name="uni2009" unicode="&#x2009;" 
 />
    <glyph glyph-name="uni2011" unicode="&#x2011;" 
d="M116 213l40 185h387l-40 -185h-387z" />
    <glyph glyph-name="endash" unicode="&#x2013;" 
d="M22 213l40 185h576l-40 -185h-576z" />
    <glyph glyph-name="emdash" unicode="&#x2014;" horiz-adv-x="1300" 
d="M59 212l39 185h1153l-40 -185h-1152z" />
    <glyph glyph-name="quoteleft" unicode="&#x2018;" 
d="M488 608l-42 -195h-201l42 195l110 170h175l-74 -88l-117 -82h107z" />
    <glyph glyph-name="quoteright" unicode="&#x2019;" horiz-adv-x="651" 
d="M286 582l42 195h201l-42 -195l-110 -170h-175l74 88l117 82h-107z" />
    <glyph glyph-name="quotesinglbase" unicode="&#x201a;" 
d="M162 0l42 195h201l-42 -195l-110 -170h-175l74 88l117 82h-107z" />
    <glyph glyph-name="quotedblleft" unicode="&#x201c;" horiz-adv-x="651" 
d="M357 607l-42 -195h-201l42 195l110 170h175l-74 -88l-117 -82h107zM632 607l-42 -195h-201l42 195l110 170h175l-74 -88l-117 -82h107z" />
    <glyph glyph-name="quotedblright" unicode="&#x201d;" 
d="M427 583l42 195h201l-42 -195l-110 -170h-175l74 88l117 82h-107zM152 583l42 195h201l-42 -195l-110 -170h-175l74 88l117 82h-107z" />
    <glyph glyph-name="quotedblbase" unicode="&#x201e;" 
d="M303 0l42 195h201l-42 -195l-110 -170h-175l74 88l117 82h-107zM28 0l42 195h201l-42 -195l-110 -170h-175l74 88l117 82h-107z" />
    <glyph glyph-name="dagger" unicode="&#x2020;" 
d="M197 143l118 556h199l-118 -556h-199zM135 435l39 184h447l-39 -184h-447z" />
    <glyph glyph-name="daggerdbl" unicode="&#x2021;" 
d="M197 143l118 556h199l-118 -556h-199zM137 444l36 170h447l-36 -170h-447zM91 228l36 170h447l-36 -170h-447z" />
    <glyph glyph-name="bullet" unicode="&#x2022;" 
d="M141 155l63 298h313l-63 -298h-313z" />
    <glyph glyph-name="ellipsis" unicode="&#x2026;" 
d="M-52 0l39 183h190l-39 -183h-190zM171 0l39 183h190l-39 -183h-190zM394 0l39 183h190l-39 -183h-190z" />
    <glyph glyph-name="perthousand" unicode="&#x2030;" 
d="M458 -12q-41 0 -66 29.5t-25 77.5q0 28 8 63.5t25.5 68t44.5 53.5t65 21q42 0 68 -29.5t26 -78.5q0 -29 -8.5 -64.5t-26 -67.5t-45.5 -52.5t-66 -20.5zM471 66q13 0 22 14.5t15 35.5t8.5 41t2.5 30q0 19 -5 27.5t-15 8.5q-13 0 -22 -14.5t-15 -35.5t-8.5 -41t-2.5 -30
q0 -17 5.5 -26.5t14.5 -9.5zM-27 0l493 698h92l-493 -698h-92zM312 -12q-41 0 -66.5 29.5t-25.5 77.5q0 29 8.5 64.5t26 67.5t44.5 53t65 21q42 0 68 -29.5t26 -78.5q0 -29 -8.5 -64.5t-26 -67.5t-45.5 -52.5t-66 -20.5zM325 66q13 0 22 14.5t15 35.5t8.5 41t2.5 30
q0 19 -5 27.5t-15 8.5q-13 0 -22 -14.5t-15 -35.5t-8.5 -41t-2.5 -30q0 -17 5.5 -26.5t14.5 -9.5zM168 398q-41 0 -67 29.5t-26 78.5q0 29 8.5 64t26 67.5t44.5 53t65 20.5q42 0 68 -29.5t26 -78.5q0 -29 -8.5 -64.5t-26 -67.5t-45 -52.5t-65.5 -20.5zM180 476q13 0 22 14.5
t15 35.5t8.5 41t2.5 30q0 19 -5 27.5t-15 8.5q-13 0 -22 -14.5t-15 -35t-8.5 -40.5t-2.5 -31q0 -17 5.5 -26.5t14.5 -9.5z" />
    <glyph glyph-name="guilsinglleft" unicode="&#x2039;" 
d="M247 58l-98 218l191 218h202l-201 -222l102 -214h-196z" />
    <glyph glyph-name="guilsinglright" unicode="&#x203a;" 
d="M309 58h-202l200 222l-103 214h197l98 -218z" />
    <glyph glyph-name="fraction" unicode="&#x2044;" 
d="M-36 0l589 698h162l-591 -698h-160z" />
    <glyph glyph-name="uni2070" unicode="&#x2070;" 
d="M339 293q-76 0 -124 47t-48 126q0 62 18 114.5t51.5 91.5t79.5 60.5t101 21.5q75 0 122.5 -46.5t47.5 -126.5q0 -62 -18 -114.5t-51 -91.5t-78.5 -60.5t-100.5 -21.5zM355 418q19 0 33.5 16t24.5 41t15.5 51t5.5 47q0 26 -8.5 40.5t-25.5 14.5q-19 0 -34 -16t-25.5 -40.5
t-15.5 -51.5t-5 -48q0 -26 9 -40t26 -14z" />
    <glyph glyph-name="uni2074" unicode="&#x2074;" 
d="M317 301l18 83h-205l26 121l221 243h185l-52 -244h79l-25 -120h-79l-18 -83h-150zM294 504h66l22 104z" />
    <glyph glyph-name="uni2075" unicode="&#x2075;" 
d="M348 294q-55 0 -92.5 20t-55.5 53.5t-16 71.5h145q-1 -13 7 -21.5t21 -8.5q20 0 30.5 16.5t10.5 42.5q0 16 -7 26t-21 10q-13 0 -22 -7t-14 -19h-145l97 270h294l-25 -120h-178l-17 -43q20 13 38 17.5t40 4.5q49 0 83 -35.5t34 -94.5q0 -55 -25 -96t-71.5 -64t-110.5 -23
z" />
    <glyph glyph-name="uni2076" unicode="&#x2076;" 
d="M431 592q56 0 92 -34t36 -91q0 -52 -25 -91.5t-70.5 -61t-107.5 -21.5q-80 0 -129 50.5t-49 134.5q0 48 14.5 97t43.5 90t74.5 65.5t106.5 24.5q52 0 88 -20t56 -52t23 -69h-147q-1 8 -8.5 18t-23.5 10q-14 0 -24.5 -9t-17 -23.5t-10.5 -31.5q23 11 42 12.5t36 1.5z
M368 410q17 0 28 12t11 31q0 15 -8.5 25t-22.5 10q-8 0 -17 -1t-23 -6q-4 -30 2.5 -50.5t29.5 -20.5z" />
    <glyph glyph-name="uni2077" unicode="&#x2077;" 
d="M256 300q16 68 44.5 132t63 115.5t67.5 80.5h-225l25 120h395l-23 -108q-63 -54 -99.5 -103t-55.5 -92.5t-27.5 -79.5t-15.5 -65h-149zM231 748h145l-34 -161h-145z" />
    <glyph glyph-name="uni2078" unicode="&#x2078;" 
d="M331 293q-73 0 -117 36t-44 85q0 50 30 76.5t73 47.5h212q26 -18 42 -43t16 -54q0 -47 -30.5 -80t-79 -50.5t-102.5 -17.5zM352 408q19 0 30.5 10t11.5 28q0 11 -8.5 19t-22.5 8q-19 0 -31 -10t-12 -27q0 -12 9 -20t23 -8zM383 574q17 2 29 13t12 27q0 12 -8.5 19.5
t-20.5 7.5q-18 0 -28 -10t-10 -27q0 -10 6.5 -19t19.5 -11zM274 519q-27 17 -42.5 39.5t-15.5 50.5q0 46 24 78t67.5 49.5t101.5 17.5q46 0 82.5 -15t57.5 -42.5t21 -63.5q0 -45 -26.5 -68t-67.5 -46h-202z" />
    <glyph glyph-name="uni2079" unicode="&#x2079;" 
d="M324 454q-56 0 -92 34t-36 91q0 52 25 91.5t70.5 61t107.5 21.5q80 0 129 -50.5t49 -134.5q0 -48 -14.5 -97t-43.5 -90t-74.5 -65.5t-106.5 -24.5q-52 0 -88 20t-56 52t-23 69h147q1 -8 8.5 -18t23.5 -10q14 0 24.5 9t17 23.5t10.5 31.5q-23 -11 -42 -12.5t-36 -1.5z
M387 636q-17 0 -28 -12t-11 -31q0 -15 8.5 -25t22.5 -10q8 0 17 1t23 6q4 30 -2.5 50.5t-29.5 20.5z" />
    <glyph glyph-name="Euro" unicode="&#x20ac;" 
d="M31 360l24 113h366l-37 -113h-353zM2 220l24 116h348l-38 -116h-334zM311 -12q-76 0 -131 35t-84.5 96.5t-29.5 142.5q0 58 12 120.5t37 121t65 105t97 74t132 27.5q70 0 123.5 -31.5t82.5 -91t25 -145.5h-196q1 21 -3 42t-15.5 35t-35.5 14q-28 0 -49.5 -20.5t-36.5 -53
t-24 -69.5t-13 -71.5t-4 -57.5q0 -33 8.5 -54t24 -31.5t34.5 -10.5q32 0 55 23t36 72h198q-21 -82 -64.5 -143.5t-105 -95t-138.5 -33.5z" />
    <glyph glyph-name="uni20BF" unicode="&#x20bf;" 
d="M197 680l25 117h152l-25 -117h-152zM32 -97l24 117h152l-24 -117h-152zM385 680l25 117h152l-25 -117h-152zM220 -97l24 117h152l-24 -117h-152zM516 364q44 -13 70.5 -51t26.5 -88q0 -68 -37.5 -118.5t-106 -78.5t-161.5 -28h-328l149 698h293q69 0 120 -20.5t79 -57
t28 -86.5q0 -38 -17 -71.5t-47 -59t-69 -39.5zM370 514h-52l-17 -84h56q18 0 31.5 6t20.5 17t7 26q0 16 -11.5 25.5t-34.5 9.5zM248 184h68q26 0 44.5 13t18.5 36q0 17 -12 28t-38 11h-62z" />
    <glyph glyph-name="uni2113" unicode="&#x2113;" 
d="M325 0q-60 0 -103 23t-66.5 66.5t-23.5 103.5v278q0 75 31 128.5t88 82.5t133 29q113 0 171.5 -57t58.5 -161q0 -71 -32 -124t-88 -90t-130 -59t-158 -32t-171 -9v156q43 0 94.5 2t102.5 10t93.5 24t68 44.5t25.5 72.5q0 26 -9 38.5t-26 12.5q-19 0 -27.5 -14.5
t-8.5 -43.5v-262q0 -23 12 -35t35 -12h169l-49 -172h-190z" />
    <glyph glyph-name="uni2116" unicode="&#x2116;" horiz-adv-x="1300" 
d="M1003 340q-54 0 -95.5 20.5t-65.5 57t-24 83.5q0 61 28 108t77.5 74t112.5 27q55 0 97 -21t66 -57.5t24 -84.5q0 -60 -28.5 -107t-78 -73.5t-113.5 -26.5zM1011 462q18 0 31 10t20 27.5t7 39.5q0 23 -11.5 36t-29.5 13q-17 0 -29.5 -10t-19.5 -27.5t-7 -41.5
q0 -22 10.5 -34.5t28.5 -12.5zM69 0l149 698h249l47 -430l28 230l43 200h202l-149 -698h-258l-44 413l-22 -212l-43 -201h-202zM770 203l25 102h371l-25 -102h-371z" />
    <glyph glyph-name="uni2117" unicode="&#x2117;" 
d="M279 276v85h76q17 0 28 12t11 30q0 17 -12 28t-30 11h-73v85h70q62 0 101 -35t39 -89q0 -55 -39 -91t-99 -36h-72zM230 174v353h94v-353h-94zM338 -12q-88 0 -157 46t-108 127.5t-39 186.5q0 106 39 187.5t108 128t157 46.5q89 0 158 -46.5t108 -128t39 -187.5
q0 -105 -39 -186.5t-108 -127.5t-158 -46zM336 74q59 0 104.5 35t71.5 97t26 142q0 81 -26 143t-71.5 97.5t-104.5 35.5q-57 0 -102 -35.5t-70.5 -97.5t-25.5 -143q0 -80 25.5 -142t70.5 -97t102 -35z" />
    <glyph glyph-name="trademark" unicode="&#x2122;" 
d="M141 384v215h-71v102h256v-102h-71v-215h-114zM313 384l40 317h128l18 -80l7 -51l6 51l16 80h129l40 -317h-115l-8 83l-4 59l-11 -59l-12 -83h-83l-11 83l-9 58l-6 -58l-10 -83h-115z" />
    <glyph glyph-name="estimated" unicode="&#x212e;" 
d="M345 -12q-94 0 -164 44.5t-108.5 126t-38.5 190.5q0 110 38.5 191t108.5 125.5t164 44.5t164 -44.5t108.5 -125.5t38.5 -191h-495v-257q35 -36 85 -55t99 -19q68 0 130 37.5t99 100.5l26 -19q-41 -67 -110.5 -108t-144.5 -41zM161 379h368v224q-73 77 -184 77
q-114 0 -184 -77v-224z" />
    <glyph glyph-name="uni2153" unicode="&#x2153;" horiz-adv-x="1300" 
d="M236 251l63 294l-171 -103l31 147l186 109h136l-95 -447h-150zM113 371h413l-26 -120h-413zM309 0l589 698h162l-591 -698h-160zM956 -8q-84 0 -132 48t-44 127h147q-4 -24 6 -38.5t30 -14.5q16 0 25 9.5t9 25.5q0 14 -10 22t-27 8h-20l21 96h21q16 0 25 9.5t9 25.5
q0 11 -7 17t-18 6q-15 0 -23.5 -9t-10.5 -26h-147q7 71 59.5 113.5t135.5 42.5q51 0 89 -16.5t59.5 -44t21.5 -61.5q0 -36 -21 -62.5t-57 -41.5q26 -13 41.5 -38t15.5 -54q0 -65 -54 -104.5t-144 -39.5z" />
    <glyph glyph-name="uni2154" unicode="&#x2154;" horiz-adv-x="1300" 
d="M110 252l22 102q43 24 86.5 50.5t80 53.5t58.5 52t22 46q0 14 -7 22.5t-21 8.5q-19 0 -29.5 -15t-12.5 -40h-147q11 87 61.5 131t141.5 43q51 0 89 -17t59 -46.5t21 -70.5q0 -38 -25.5 -75.5t-65 -69.5t-80.5 -55h137l-26 -120h-364zM299 0l589 698h162l-591 -698h-160z
M956 -8q-84 0 -132 48t-44 127h147q-4 -24 6 -38.5t30 -14.5q16 0 25 9.5t9 25.5q0 14 -10 22t-27 8h-20l21 96h21q16 0 25 9.5t9 25.5q0 11 -7 17t-18 6q-15 0 -23.5 -9t-10.5 -26h-147q7 71 59.5 113.5t135.5 42.5q51 0 89 -16.5t59.5 -44t21.5 -61.5q0 -36 -21 -62.5
t-57 -41.5q26 -13 41.5 -38t15.5 -54q0 -65 -54 -104.5t-144 -39.5z" />
    <glyph glyph-name="oneeighth" unicode="&#x215b;" horiz-adv-x="1300" 
d="M236 251l63 294l-171 -103l31 147l186 109h136l-95 -447h-150zM113 371h413l-26 -120h-413zM319 0l589 698h162l-591 -698h-160zM940 -7q-73 0 -117 36t-44 85q0 50 30 76.5t73 47.5h212q26 -18 42 -43t16 -54q0 -47 -30.5 -80t-79 -50.5t-102.5 -17.5zM961 108
q19 0 30.5 10t11.5 28q0 11 -8.5 19t-22.5 8q-19 0 -31 -10t-12 -27q0 -12 9 -20t23 -8zM992 274q17 2 29 13t12 27q0 12 -8.5 19.5t-20.5 7.5q-18 0 -28 -10t-10 -27q0 -10 6.5 -19t19.5 -11zM883 219q-27 17 -42.5 39.5t-15.5 50.5q0 46 24 78t67.5 49.5t101.5 17.5
q46 0 82.5 -15t57.5 -42.5t21 -63.5q0 -45 -26.5 -68t-67.5 -46h-202z" />
    <glyph glyph-name="threeeighths" unicode="&#x215c;" horiz-adv-x="1300" 
d="M312 243q-84 0 -132 48t-44 127h147q-4 -24 6 -38.5t30 -14.5q16 0 25 9.5t9 25.5q0 14 -10 22t-27 8h-20l21 96h21q16 0 25 9.5t9 25.5q0 11 -7 17t-18 6q-15 0 -23.5 -9t-10.5 -26h-147q7 71 59.5 113.5t135.5 42.5q51 0 89 -16.5t59.5 -44t21.5 -61.5q0 -36 -21 -62.5
t-57 -41.5q26 -13 41.5 -38t15.5 -54q0 -65 -54 -104.5t-144 -39.5zM289 0l589 698h162l-591 -698h-160zM940 -7q-73 0 -117 36t-44 85q0 50 30 76.5t73 47.5h212q26 -18 42 -43t16 -54q0 -47 -30.5 -80t-79 -50.5t-102.5 -17.5zM961 108q19 0 30.5 10t11.5 28q0 11 -8.5 19
t-22.5 8q-19 0 -31 -10t-12 -27q0 -12 9 -20t23 -8zM992 274q17 2 29 13t12 27q0 12 -8.5 19.5t-20.5 7.5q-18 0 -28 -10t-10 -27q0 -10 6.5 -19t19.5 -11zM883 219q-27 17 -42.5 39.5t-15.5 50.5q0 46 24 78t67.5 49.5t101.5 17.5q46 0 82.5 -15t57.5 -42.5t21 -63.5
q0 -45 -26.5 -68t-67.5 -46h-202z" />
    <glyph glyph-name="fiveeighths" unicode="&#x215d;" horiz-adv-x="1300" 
d="M317 244q-55 0 -92.5 20t-55.5 53.5t-16 71.5h145q-1 -13 7 -21.5t21 -8.5q20 0 30.5 16.5t10.5 42.5q0 16 -7 26t-21 10q-13 0 -22 -7t-14 -19h-145l97 270h294l-25 -120h-178l-17 -43q20 13 38 17.5t40 4.5q49 0 83 -35.5t34 -94.5q0 -55 -25 -96t-71.5 -64t-110.5 -23
zM289 0l589 698h162l-591 -698h-160zM940 -7q-73 0 -117 36t-44 85q0 50 30 76.5t73 47.5h212q26 -18 42 -43t16 -54q0 -47 -30.5 -80t-79 -50.5t-102.5 -17.5zM961 108q19 0 30.5 10t11.5 28q0 11 -8.5 19t-22.5 8q-19 0 -31 -10t-12 -27q0 -12 9 -20t23 -8zM992 274
q17 2 29 13t12 27q0 12 -8.5 19.5t-20.5 7.5q-18 0 -28 -10t-10 -27q0 -10 6.5 -19t19.5 -11zM883 219q-27 17 -42.5 39.5t-15.5 50.5q0 46 24 78t67.5 49.5t101.5 17.5q46 0 82.5 -15t57.5 -42.5t21 -63.5q0 -45 -26.5 -68t-67.5 -46h-202z" />
    <glyph glyph-name="seveneighths" unicode="&#x215e;" horiz-adv-x="1300" 
d="M245 250q16 68 44.5 132t63 115.5t67.5 80.5h-225l25 120h395l-23 -108q-63 -54 -99.5 -103t-55.5 -92.5t-27.5 -79.5t-15.5 -65h-149zM220 698h145l-34 -161h-145zM259 0l589 698h162l-591 -698h-160zM910 -7q-73 0 -117 36t-44 85q0 50 30 76.5t73 47.5h212
q26 -18 42 -43t16 -54q0 -47 -30.5 -80t-79 -50.5t-102.5 -17.5zM931 108q19 0 30.5 10t11.5 28q0 11 -8.5 19t-22.5 8q-19 0 -31 -10t-12 -27q0 -12 9 -20t23 -8zM962 274q17 2 29 13t12 27q0 12 -8.5 19.5t-20.5 7.5q-18 0 -28 -10t-10 -27q0 -10 6.5 -19t19.5 -11z
M853 219q-27 17 -42.5 39.5t-15.5 50.5q0 46 24 78t67.5 49.5t101.5 17.5q46 0 82.5 -15t57.5 -42.5t21 -63.5q0 -45 -26.5 -68t-67.5 -46h-202z" />
    <glyph glyph-name="arrowleft" unicode="&#x2190;" 
d="M577 575l-121 -97l-120 -92l150 5h175l-37 -175h-175l-151 6l100 -112l64 -79h-241l-206 272l321 272h241z" />
    <glyph glyph-name="arrowup" unicode="&#x2191;" 
d="M36 203l52 241l328 264l216 -264l-52 -241l-58 79l-84 125l-26 -149l-55 -258h-175l55 258l35 146l-113 -100z" />
    <glyph glyph-name="arrowright" unicode="&#x2192;" 
d="M197 575h241l207 -272l-322 -272h-241l122 99l120 91l-151 -5h-174l37 175h174l150 -6l-100 113z" />
    <glyph glyph-name="arrowdown" unicode="&#x2193;" 
d="M642 495l-51 -241l-328 -264l-216 264l51 241l62 -81l86 -123l26 149l55 258h175l-55 -258l-36 -146l112 101z" />
    <glyph glyph-name="uni2196" unicode="&#x2196;" 
d="M639 398l-134 -1l-151 4l98 -114l133 -170l-133 -109l-134 170l-88 122l-27 -148l-31 -139l-134 171l86 379l381 5z" />
    <glyph glyph-name="uni2197" unicode="&#x2197;" 
d="M64 401l206 170l378 -5l-75 -379l-206 -171l30 129l39 145l-113 -100l-231 -190l-104 132l230 191l119 92l-151 -10z" />
    <glyph glyph-name="uni2198" unicode="&#x2198;" 
d="M13 164l133 1l151 -4l-98 114l-133 170l133 109l133 -169l88 -123l27 148l32 139l135 -171l-87 -379l-380 -5z" />
    <glyph glyph-name="uni2199" unicode="&#x2199;" 
d="M588 165l-206 -170l-378 5l75 379l206 171l-30 -129l-39 -145l113 100l231 190l104 -132l-230 -191l-119 -92l151 10z" />
    <glyph glyph-name="partialdiff" unicode="&#x2202;" 
d="M275 -12q-77 0 -132.5 25.5t-84.5 72t-29 110.5q0 56 18 104t51 83.5t79 55t102 19.5q54 0 88.5 -13.5t59.5 -36t50 -50.5l-65 -160q-14 42 -26.5 64t-25.5 29.5t-30 7.5q-23 0 -38.5 -13t-23 -32.5t-7.5 -40.5q0 -13 4.5 -22.5t13 -14t18.5 -4.5q20 0 37 20.5t30 53.5
t22 71.5t13.5 75t4.5 62.5q0 24 -4.5 41.5t-14 27t-26.5 9.5q-19 0 -30 -9t-22 -27h-211q5 22 23 57t50.5 71t82 60.5t116.5 24.5q83 0 141 -35t88.5 -99.5t30.5 -153.5q0 -88 -24.5 -166.5t-70.5 -139t-111.5 -94.5t-146.5 -34z" />
    <glyph glyph-name="emptyset" unicode="&#x2205;" 
d="M123 60l-71 70l474 475l71 -70zM324 97q-70 0 -125.5 31t-88 84t-32.5 119q0 67 32.5 120.5t88 84.5t125.5 31t125.5 -31t88 -84.5t32.5 -120.5q0 -66 -32 -119t-87.5 -84t-126.5 -31zM323 237q27 0 48 12t33.5 33.5t12.5 48.5q0 29 -12.5 50.5t-33.5 34t-48 12.5
q-26 0 -47 -12.5t-33 -34t-12 -50.5q0 -27 12 -48.5t33 -33.5t47 -12z" />
    <glyph glyph-name="uni2206" unicode="&#x2206;" 
d="M-45 0l36 169l294 529h277l49 -529l-36 -169h-620zM233 179h166l-4 347z" />
    <glyph glyph-name="product" unicode="&#x220f;" 
d="M338 0l149 699h229l-149 -699h-229zM-36 0l149 699h229l-149 -699h-229zM283 515l39 184h184l-39 -184h-184z" />
    <glyph glyph-name="summation" unicode="&#x2211;" 
d="M-13 0l36 169l252 181l-176 178l37 170h552l-37 -174h-301l117 -117l-28 -133l-143 -100h280l-37 -174h-552z" />
    <glyph glyph-name="minus" unicode="&#x2212;" 
d="M53 213l40 184h514l-40 -184h-514z" />
    <glyph glyph-name="uni2215" unicode="&#x2215;" 
d="M-36 0l589 698h162l-591 -698h-160z" />
    <glyph glyph-name="radical" unicode="&#x221a;" 
d="M336 350l-6 -151l51 144l130 355h223l-301 -698h-263l-27 391h-106l37 172h266z" />
    <glyph glyph-name="integral" unicode="&#x222b;" 
d="M24 -190l57 174h22q19 0 37 14t22 36l127 594q23 107 91.5 166.5t182.5 59.5h85l-57 -173h-26q-19 0 -37 -14t-23 -37l-126 -593q-22 -107 -90 -167t-184 -60h-81z" />
    <glyph glyph-name="approxequal" unicode="&#x2248;" 
d="M389 47q-38 0 -64.5 10t-45 22.5t-34 22.5t-32.5 10q-23 0 -35 -14.5t-19 -46.5h-182q11 79 42 132t80.5 80t112.5 27q39 0 65.5 -9.5t45.5 -22.5t34 -22.5t31 -9.5q22 0 34 13t19 46h183q-11 -73 -41.5 -126.5t-79 -82.5t-114.5 -29zM446 314q-38 0 -64.5 10t-45 22.5
t-34 22.5t-32.5 10q-23 0 -35 -14.5t-19 -46.5h-182q11 79 42 132t80.5 80t112.5 27q39 0 65.5 -9.5t45.5 -22.5t34 -22.5t31 -9.5q22 0 34 13t19 46h183q-11 -73 -41.5 -126.5t-79 -82.5t-114.5 -29z" />
    <glyph glyph-name="notequal" unicode="&#x2260;" 
d="M28 -11l421 628h183l-420 -628h-184zM81 346l39 184h514l-39 -184h-514zM24 77l39 184h514l-39 -184h-514z" />
    <glyph glyph-name="lessequal" unicode="&#x2264;" 
d="M562 171l-485 138l36 171l544 138l-40 -179l-353 -47l333 -50zM525 0h-514l33 154h514z" />
    <glyph glyph-name="greaterequal" unicode="&#x2265;" 
d="M42 171l39 179l353 50l-333 47l36 171l484 -138l-36 -171zM5 0l33 154h514l-33 -154h-514z" />
    <glyph glyph-name="lozenge" unicode="&#x25ca;" 
d="M222 0l-195 350l195 349h205l196 -349l-196 -350h-205zM325 197l74 153l-74 154l-74 -154z" />
    <glyph glyph-name="circle" unicode="&#x25cb;" 
d="M325 114q-70 0 -125.5 31t-88 84t-32.5 119q0 67 32.5 120.5t88 84.5t125.5 31t125.5 -31t88 -84.5t32.5 -120.5q0 -66 -32 -119t-87.5 -84t-126.5 -31zM324 254q27 0 48 12t33.5 33.5t12.5 48.5q0 29 -12.5 50.5t-33.5 34t-48 12.5q-26 0 -47 -12.5t-33 -34t-12 -50.5
q0 -27 12 -48.5t33 -33.5t47 -12z" />
    <glyph glyph-name="uni25CF" unicode="&#x25cf;" 
d="M326 115q-67 0 -119.5 30t-82.5 83.5t-30 121.5q0 69 30 122t82.5 83t119.5 30q68 0 120 -30t81.5 -83t29.5 -122q0 -68 -29.5 -121.5t-81.5 -83.5t-120 -30z" />
    <glyph glyph-name="fi" unicode="&#xfb01;" horiz-adv-x="1300" 
d="M545 391l37 172h233l-37 -172h-233zM793 0l120 563h216l-120 -563h-216zM668 0l37 172h493l-37 -172h-493zM766 391l37 172h218l-37 -172h-218zM143 0l134 628q24 112 93.5 162t195.5 50h176l-37 -172h-144q-33 0 -49.5 -16.5t-22.5 -43.5l-130 -608h-216zM116 391
l37 172h466l-37 -172h-466zM18 0l37 172h535l-37 -172h-535z" />
    <glyph glyph-name="fl" unicode="&#xfb02;" horiz-adv-x="1300" 
d="M135 0l130 609q15 70 55 122t99 81t129 29h186l-37 -172h-144q-27 0 -46.5 -16.5t-25.5 -43.5l-130 -609h-216zM84 391l37 172h554l-37 -172h-554zM10 0l37 172h535l-37 -172h-535zM785 0l157 740h216l-157 -740h-216zM660 0l37 172h513l-37 -172h-513zM796 568l36 172
h218l-36 -172h-218z" />
    <glyph glyph-name="uniFEFF" unicode="&#xfeff;" horiz-adv-x="0" 
 />
    <glyph glyph-name="Q.ss03" 
d="M127 -178l54 251h229l-54 -251h-229zM293 -12q-79 0 -137 36t-89.5 98.5t-31.5 140.5q0 90 23 171t67.5 143t110 97.5t151.5 35.5q79 0 137 -35.5t89.5 -96.5t31.5 -140q0 -91 -23 -172t-67.5 -143.5t-110 -98.5t-151.5 -36zM309 172q24 0 45 19.5t37 54t25 81t9 99.5
q0 50 -15 75t-39 25t-45 -19.5t-37 -54t-25 -81t-9 -99.5q0 -33 7 -55t19 -33.5t28 -11.5z" />
    <glyph glyph-name="C.ss04" 
d="M363 0q-96 0 -167.5 35t-111 101.5t-39.5 158.5q0 89 32 163t92 127.5t143.5 83t186.5 29.5h191l-40 -184h-184q-55 0 -96.5 -24t-64 -67t-22.5 -102q0 -41 14 -72t39.5 -48t59.5 -17h184l-39 -184h-178z" />
    <glyph glyph-name="Cacute.ss04" 
d="M363 0q-96 0 -167.5 35t-111 101.5t-39.5 158.5q0 89 32 163t92 127.5t143.5 83t186.5 29.5h191l-40 -184h-184q-55 0 -96.5 -24t-64 -67t-22.5 -102q0 -41 14 -72t39.5 -48t59.5 -17h184l-39 -184h-178zM384 750l120 173h197l-153 -173h-164z" />
    <glyph glyph-name="Ccaron.ss04" 
d="M363 0q-96 0 -167.5 35t-111 101.5t-39.5 158.5q0 89 32 163t92 127.5t143.5 83t186.5 29.5h191l-40 -184h-184q-55 0 -96.5 -24t-64 -67t-22.5 -102q0 -41 14 -72t39.5 -48t59.5 -17h184l-39 -184h-178zM291 923h172l31 -88l60 88h183l-141 -173h-234z" />
    <glyph glyph-name="Ccedilla.ss04" 
d="M363 0q-96 0 -167.5 35t-111 101.5t-39.5 158.5q0 89 32 163t92 127.5t143.5 83t186.5 29.5h191l-40 -184h-184q-55 0 -96.5 -24t-64 -67t-22.5 -102q0 -41 14 -72t39.5 -48t59.5 -17h184l-39 -184h-178zM298 -222q-27 0 -49.5 4t-48.5 13l16 77q13 -4 30.5 -9t36.5 -5
q17 0 27 5t10 13t-8 11.5t-20 3.5q-10 0 -19 -1.5t-18 -4.5l-16 45l86 103l81 -26l-42 -47h4h3q36 0 64 -20t28 -56q0 -39 -24.5 -62.5t-62.5 -33.5t-78 -10z" />
    <glyph glyph-name="Ccircumflex.ss04" 
d="M363 0q-96 0 -167.5 35t-111 101.5t-39.5 158.5q0 89 32 163t92 127.5t143.5 83t186.5 29.5h191l-40 -184h-184q-55 0 -96.5 -24t-64 -67t-22.5 -102q0 -41 14 -72t39.5 -48t59.5 -17h184l-39 -184h-178zM246 750l151 173h234l81 -173h-191l-26 78l-51 -78h-198z" />
    <glyph glyph-name="Cdotaccent.ss04" 
d="M363 0q-96 0 -167.5 35t-111 101.5t-39.5 158.5q0 89 32 163t92 127.5t143.5 83t186.5 29.5h191l-40 -184h-184q-55 0 -96.5 -24t-64 -67t-22.5 -102q0 -41 14 -72t39.5 -48t59.5 -17h184l-39 -184h-178zM373 752l36 168h218l-36 -168h-218z" />
    <glyph glyph-name="G.ss05" 
d="M357 0q-99 0 -171.5 36t-112 104t-39.5 164q0 89 32.5 161t93.5 124.5t147 80.5t194 28h218l-39 -184h-214q-45 0 -80.5 -13t-61 -37.5t-39 -59t-13.5 -77.5q0 -44 13 -76t37 -49.5t57 -17.5h1l43 200h229l-82 -384h-213z" />
    <glyph glyph-name="Gbreve.ss05" 
d="M357 0q-99 0 -171.5 36t-112 104t-39.5 164q0 89 32.5 161t93.5 124.5t147 80.5t194 28h218l-39 -184h-214q-45 0 -80.5 -13t-61 -37.5t-39 -59t-13.5 -77.5q0 -44 13 -76t37 -49.5t57 -17.5h1l43 200h229l-82 -384h-213zM501 743q-63 0 -106 23t-62.5 63.5t-14.5 93.5
h154q-3 -25 7 -41t31 -16t34.5 16t16.5 41h157q-5 -53 -33 -93.5t-74.5 -63.5t-109.5 -23z" />
    <glyph glyph-name="Gcircumflex.ss05" 
d="M357 0q-99 0 -171.5 36t-112 104t-39.5 164q0 89 32.5 161t93.5 124.5t147 80.5t194 28h218l-39 -184h-214q-45 0 -80.5 -13t-61 -37.5t-39 -59t-13.5 -77.5q0 -44 13 -76t37 -49.5t57 -17.5h1l43 200h229l-82 -384h-213zM249 750l151 173h234l81 -173h-191l-26 78
l-51 -78h-198z" />
    <glyph glyph-name="uni0122.ss05" 
d="M357 0q-99 0 -171.5 36t-112 104t-39.5 164q0 89 32.5 161t93.5 124.5t147 80.5t194 28h218l-39 -184h-214q-45 0 -80.5 -13t-61 -37.5t-39 -59t-13.5 -77.5q0 -44 13 -76t37 -49.5t57 -17.5h1l43 200h229l-82 -384h-213zM142 -198l33 154h209l-79 -154h-163z" />
    <glyph glyph-name="Gdotaccent.ss05" 
d="M357 0q-99 0 -171.5 36t-112 104t-39.5 164q0 89 32.5 161t93.5 124.5t147 80.5t194 28h218l-39 -184h-214q-45 0 -80.5 -13t-61 -37.5t-39 -59t-13.5 -77.5q0 -44 13 -76t37 -49.5t57 -17.5h1l43 200h229l-82 -384h-213zM376 752l36 168h218l-36 -168h-218z" />
    <glyph glyph-name="M.ss09" 
d="M-27 0l149 698h256l-15 -142l-12 -132l44 132l48 142h263l-149 -698h-181l40 189l42 178l-64 -178l-63 -189h-132l17 189l15 184l-37 -184l-40 -189h-181z" />
    <glyph glyph-name="S.ss11" 
d="M-5 0l39 184h273q23 0 36.5 12t13.5 31q0 18 -14 28.5t-37 10.5h-28q-85 0 -134.5 48t-49.5 139q0 72 33.5 127.5t95.5 86.5t147 31h305l-40 -184h-271q-17 0 -27.5 -9t-10.5 -24q0 -14 10.5 -22.5t29.5 -8.5h30q89 0 140.5 -49.5t51.5 -143.5q0 -76 -35 -134
t-99.5 -90.5t-153.5 -32.5h-305z" />
    <glyph glyph-name="Sacute.ss11" 
d="M-5 0l39 184h273q23 0 36.5 12t13.5 31q0 18 -14 28.5t-37 10.5h-28q-85 0 -134.5 48t-49.5 139q0 72 33.5 127.5t95.5 86.5t147 31h305l-40 -184h-271q-17 0 -27.5 -9t-10.5 -24q0 -14 10.5 -22.5t29.5 -8.5h30q89 0 140.5 -49.5t51.5 -143.5q0 -76 -35 -134
t-99.5 -90.5t-153.5 -32.5h-305zM352 750l120 173h197l-153 -173h-164z" />
    <glyph glyph-name="Scaron.ss11" 
d="M-5 0l39 184h273q23 0 36.5 12t13.5 31q0 18 -14 28.5t-37 10.5h-28q-85 0 -134.5 48t-49.5 139q0 72 33.5 127.5t95.5 86.5t147 31h305l-40 -184h-271q-17 0 -27.5 -9t-10.5 -24q0 -14 10.5 -22.5t29.5 -8.5h30q89 0 140.5 -49.5t51.5 -143.5q0 -76 -35 -134
t-99.5 -90.5t-153.5 -32.5h-305zM259 923h172l31 -88l60 88h183l-141 -173h-234z" />
    <glyph glyph-name="Scedilla.ss11" 
d="M-5 0l39 184h273q23 0 36.5 12t13.5 31q0 18 -14 28.5t-37 10.5h-28q-85 0 -134.5 48t-49.5 139q0 72 33.5 127.5t95.5 86.5t147 31h305l-40 -184h-271q-17 0 -27.5 -9t-10.5 -24q0 -14 10.5 -22.5t29.5 -8.5h30q89 0 140.5 -49.5t51.5 -143.5q0 -76 -35 -134
t-99.5 -90.5t-153.5 -32.5h-305zM225 -222q-27 0 -49.5 4t-48.5 13l16 77q13 -4 30.5 -9t36.5 -5q17 0 27 5t10 13t-8 11.5t-20 3.5q-10 0 -19 -1.5t-18 -4.5l-16 45l86 103l81 -26l-42 -47h4h3q36 0 64 -20t28 -56q0 -39 -24.5 -62.5t-62.5 -33.5t-78 -10z" />
    <glyph glyph-name="Scircumflex.ss11" 
d="M-5 0l39 184h273q23 0 36.5 12t13.5 31q0 18 -14 28.5t-37 10.5h-28q-85 0 -134.5 48t-49.5 139q0 72 33.5 127.5t95.5 86.5t147 31h305l-40 -184h-271q-17 0 -27.5 -9t-10.5 -24q0 -14 10.5 -22.5t29.5 -8.5h30q89 0 140.5 -49.5t51.5 -143.5q0 -76 -35 -134
t-99.5 -90.5t-153.5 -32.5h-305zM214 750l151 173h234l81 -173h-191l-26 78l-51 -78h-198z" />
    <glyph glyph-name="uni0218.ss11" 
d="M-5 0l39 184h273q23 0 36.5 12t13.5 31q0 18 -14 28.5t-37 10.5h-28q-85 0 -134.5 48t-49.5 139q0 72 33.5 127.5t95.5 86.5t147 31h305l-40 -184h-271q-17 0 -27.5 -9t-10.5 -24q0 -14 10.5 -22.5t29.5 -8.5h30q89 0 140.5 -49.5t51.5 -143.5q0 -76 -35 -134
t-99.5 -90.5t-153.5 -32.5h-305zM120 -198l33 154h209l-79 -154h-163z" />
    <glyph glyph-name="U.ss13" 
d="M207 -12q-72 0 -120 36t-66.5 98t-2.5 139l93 438h229l-94 -441q-5 -22 -1.5 -42t17 -32t38.5 -12q31 0 50.5 16t37.5 42l100 469h229l-149 -699h-224l5 46q-22 -25 -62 -41.5t-80 -16.5z" />
    <glyph glyph-name="Uacute.ss13" 
d="M207 -12q-72 0 -120 36t-66.5 98t-2.5 139l93 438h229l-94 -441q-5 -22 -1.5 -42t17 -32t38.5 -12q31 0 50.5 16t37.5 42l100 469h229l-149 -699h-224l5 46q-22 -25 -62 -41.5t-80 -16.5zM321 750l120 173h197l-153 -173h-164z" />
    <glyph glyph-name="Ubreve.ss13" 
d="M207 -12q-72 0 -120 36t-66.5 98t-2.5 139l93 438h229l-94 -441q-5 -22 -1.5 -42t17 -32t38.5 -12q31 0 50.5 16t37.5 42l100 469h229l-149 -699h-224l5 46q-22 -25 -62 -41.5t-80 -16.5zM435 743q-63 0 -106 23t-62.5 63.5t-14.5 93.5h154q-3 -25 7 -41t31 -16t34.5 16
t16.5 41h157q-5 -53 -33 -93.5t-74.5 -63.5t-109.5 -23z" />
    <glyph glyph-name="Ucircumflex.ss13" 
d="M207 -12q-72 0 -120 36t-66.5 98t-2.5 139l93 438h229l-94 -441q-5 -22 -1.5 -42t17 -32t38.5 -12q31 0 50.5 16t37.5 42l100 469h229l-149 -699h-224l5 46q-22 -25 -62 -41.5t-80 -16.5zM183 750l151 173h234l81 -173h-191l-26 78l-51 -78h-198z" />
    <glyph glyph-name="Udieresis.ss13" 
d="M207 -12q-72 0 -120 36t-66.5 98t-2.5 139l93 438h229l-94 -441q-5 -22 -1.5 -42t17 -32t38.5 -12q31 0 50.5 16t37.5 42l100 469h229l-149 -699h-224l5 46q-22 -25 -62 -41.5t-80 -16.5zM452 759l34 158h188l-34 -158h-188zM198 759l34 158h188l-34 -158h-188z" />
    <glyph glyph-name="Ugrave.ss13" 
d="M207 -12q-72 0 -120 36t-66.5 98t-2.5 139l93 438h229l-94 -441q-5 -22 -1.5 -42t17 -32t38.5 -12q31 0 50.5 16t37.5 42l100 469h229l-149 -699h-224l5 46q-22 -25 -62 -41.5t-80 -16.5zM511 751h-144l-83 173h177z" />
    <glyph glyph-name="Uhungarumlaut.ss13" 
d="M207 -12q-72 0 -120 36t-66.5 98t-2.5 139l93 438h229l-94 -441q-5 -22 -1.5 -42t17 -32t38.5 -12q31 0 50.5 16t37.5 42l100 469h229l-149 -699h-224l5 46q-22 -25 -62 -41.5t-80 -16.5zM247 750l100 173h180l-132 -173h-148zM446 750l111 173h180l-143 -173h-148z" />
    <glyph glyph-name="Umacron.ss13" 
d="M207 -12q-72 0 -120 36t-66.5 98t-2.5 139l93 438h229l-94 -441q-5 -22 -1.5 -42t17 -32t38.5 -12q31 0 50.5 16t37.5 42l100 469h229l-149 -699h-224l5 46q-22 -25 -62 -41.5t-80 -16.5zM228 769l29 137h392l-29 -137h-392z" />
    <glyph glyph-name="Uogonek.ss13" 
d="M207 -12q-72 0 -120 36t-66.5 98t-2.5 139l93 438h229l-94 -441q-5 -22 -1.5 -42t17 -32t38.5 -12q31 0 50.5 16t37.5 42l100 469h229l-149 -699h-224l5 46q-22 -25 -62 -41.5t-80 -16.5zM423 -226q-10 -1 -19.5 -2t-17.5 -1q-91 0 -120 32t-18 87q5 23 22 49.5t44.5 52
t65.5 45.5l91 -37q-17 -10 -31.5 -21.5t-23.5 -23.5t-12 -24q-4 -16 4 -25.5t24 -9.5h9.5t8.5 1z" />
    <glyph glyph-name="Uring.ss13" 
d="M207 -12q-72 0 -120 36t-66.5 98t-2.5 139l93 438h229l-94 -441q-5 -22 -1.5 -42t17 -32t38.5 -12q31 0 50.5 16t37.5 42l100 469h229l-149 -699h-224l5 46q-22 -25 -62 -41.5t-80 -16.5zM424 721q-55 0 -89.5 31t-34.5 80q0 59 41.5 97t106.5 38q54 0 89 -31t35 -80
q0 -59 -41.5 -97t-106.5 -38zM431 805q20 0 32.5 12.5t12.5 31.5q0 15 -10 24.5t-25 9.5q-19 0 -32 -12t-13 -32q0 -15 10 -24.5t25 -9.5z" />
    <glyph glyph-name="Utilde.ss13" 
d="M207 -12q-72 0 -120 36t-66.5 98t-2.5 139l93 438h229l-94 -441q-5 -22 -1.5 -42t17 -32t38.5 -12q31 0 50.5 16t37.5 42l100 469h229l-149 -699h-224l5 46q-22 -25 -62 -41.5t-80 -16.5zM326 742l-144 23q19 76 61 120.5t106 44.5q39 0 64.5 -8t44 -16.5t35.5 -8.5
q14 0 26 10.5t17 28.5l147 -22q-21 -76 -63.5 -120.5t-107.5 -44.5q-34 0 -60.5 9t-47 17.5t-38.5 8.5q-13 0 -23.5 -11t-16.5 -31z" />
    <glyph glyph-name="U.ss14" 
d="M229 0q-81 0 -134.5 28t-73.5 84.5t-2 139.5l95 446h229l-91 -426q-9 -43 9.5 -65.5t56.5 -22.5h57l110 514h229l-149 -698h-336z" />
    <glyph glyph-name="Uacute.ss14" 
d="M229 0q-81 0 -134.5 28t-73.5 84.5t-2 139.5l95 446h229l-91 -426q-9 -43 9.5 -65.5t56.5 -22.5h57l110 514h229l-149 -698h-336zM324 750l120 173h197l-153 -173h-164z" />
    <glyph glyph-name="Ubreve.ss14" 
d="M229 0q-81 0 -134.5 28t-73.5 84.5t-2 139.5l95 446h229l-91 -426q-9 -43 9.5 -65.5t56.5 -22.5h57l110 514h229l-149 -698h-336zM438 743q-63 0 -106 23t-62.5 63.5t-14.5 93.5h154q-3 -25 7 -41t31 -16t34.5 16t16.5 41h157q-5 -53 -33 -93.5t-74.5 -63.5t-109.5 -23z
" />
    <glyph glyph-name="Ucircumflex.ss14" 
d="M229 0q-81 0 -134.5 28t-73.5 84.5t-2 139.5l95 446h229l-91 -426q-9 -43 9.5 -65.5t56.5 -22.5h57l110 514h229l-149 -698h-336zM186 750l151 173h234l81 -173h-191l-26 78l-51 -78h-198z" />
    <glyph glyph-name="Udieresis.ss14" 
d="M229 0q-81 0 -134.5 28t-73.5 84.5t-2 139.5l95 446h229l-91 -426q-9 -43 9.5 -65.5t56.5 -22.5h57l110 514h229l-149 -698h-336zM455 759l34 158h188l-34 -158h-188zM201 759l34 158h188l-34 -158h-188z" />
    <glyph glyph-name="Ugrave.ss14" 
d="M229 0q-81 0 -134.5 28t-73.5 84.5t-2 139.5l95 446h229l-91 -426q-9 -43 9.5 -65.5t56.5 -22.5h57l110 514h229l-149 -698h-336zM514 751h-144l-83 173h177z" />
    <glyph glyph-name="Uhungarumlaut.ss14" 
d="M229 0q-81 0 -134.5 28t-73.5 84.5t-2 139.5l95 446h229l-91 -426q-9 -43 9.5 -65.5t56.5 -22.5h57l110 514h229l-149 -698h-336zM250 750l100 173h180l-132 -173h-148zM449 750l111 173h180l-143 -173h-148z" />
    <glyph glyph-name="Umacron.ss14" 
d="M229 0q-81 0 -134.5 28t-73.5 84.5t-2 139.5l95 446h229l-91 -426q-9 -43 9.5 -65.5t56.5 -22.5h57l110 514h229l-149 -698h-336zM231 769l29 137h392l-29 -137h-392z" />
    <glyph glyph-name="Uogonek.ss14" 
d="M229 0q-81 0 -134.5 28t-73.5 84.5t-2 139.5l95 446h229l-91 -426q-9 -43 9.5 -65.5t56.5 -22.5h57l110 514h229l-149 -698h-336zM517 -226q-10 -1 -19.5 -2t-17.5 -1q-91 0 -120 32t-18 87q5 23 22 49.5t44.5 52t65.5 45.5l91 -37q-17 -10 -31.5 -21.5t-23.5 -23.5
t-12 -24q-4 -16 4 -25.5t24 -9.5h9.5t8.5 1z" />
    <glyph glyph-name="Uring.ss14" 
d="M229 0q-81 0 -134.5 28t-73.5 84.5t-2 139.5l95 446h229l-91 -426q-9 -43 9.5 -65.5t56.5 -22.5h57l110 514h229l-149 -698h-336zM427 721q-55 0 -89.5 31t-34.5 80q0 59 41.5 97t106.5 38q54 0 89 -31t35 -80q0 -59 -41.5 -97t-106.5 -38zM434 805q20 0 32.5 12.5
t12.5 31.5q0 15 -10 24.5t-25 9.5q-19 0 -32 -12t-13 -32q0 -15 10 -24.5t25 -9.5z" />
    <glyph glyph-name="Utilde.ss14" 
d="M229 0q-81 0 -134.5 28t-73.5 84.5t-2 139.5l95 446h229l-91 -426q-9 -43 9.5 -65.5t56.5 -22.5h57l110 514h229l-149 -698h-336zM329 742l-144 23q19 76 61 120.5t106 44.5q39 0 64.5 -8t44 -16.5t35.5 -8.5q14 0 26 10.5t17 28.5l147 -22q-21 -76 -63.5 -120.5
t-107.5 -44.5q-34 0 -60.5 9t-47 17.5t-38.5 8.5q-13 0 -23.5 -11t-16.5 -31z" />
    <glyph glyph-name="Y.ss15" 
d="M55 0l242 354l192 344h243l-441 -698h-236zM184 164l-88 534h228l32 -344z" />
    <glyph glyph-name="Yacute.ss15" 
d="M55 0l242 354l192 344h243l-441 -698h-236zM184 164l-88 534h228l32 -344zM311 750l120 173h197l-153 -173h-164z" />
    <glyph glyph-name="Ycircumflex.ss15" 
d="M55 0l242 354l192 344h243l-441 -698h-236zM184 164l-88 534h228l32 -344zM173 750l151 173h234l81 -173h-191l-26 78l-51 -78h-198z" />
    <glyph glyph-name="Ydieresis.ss15" 
d="M55 0l242 354l192 344h243l-441 -698h-236zM184 164l-88 534h228l32 -344zM442 759l34 158h188l-34 -158h-188zM188 759l34 158h188l-34 -158h-188z" />
    <glyph glyph-name="Ygrave.ss15" 
d="M55 0l242 354l192 344h243l-441 -698h-236zM184 164l-88 534h228l32 -344zM501 751h-144l-83 173h177z" />
    <glyph glyph-name="i.loclTRK" 
d="M177 0l120 563h216l-120 -563h-216zM-3 0l37 172h548l-37 -172h-548zM150 391l37 172h218l-37 -172h-218zM310 617l36 168h218l-36 -168h-218z" />
    <glyph glyph-name="a.ss01" 
d="M556 0h-211l10 72l89 418l21 73h211zM216 -12q-67 0 -111 33.5t-66 88t-22 117.5q0 71 21.5 133.5t61.5 111t95 76t121 27.5q49 0 87 -19.5t62 -55t28 -83.5l-58 -271q-37 -71 -91.5 -114.5t-127.5 -43.5zM305 163q26 0 46 14.5t33.5 37.5t20.5 50.5t7 53.5q0 27 -9.5 45
t-26 27t-38.5 9q-27 0 -46 -13t-31 -35.5t-17.5 -49t-5.5 -53.5q0 -37 17 -61.5t50 -24.5z" />
    <glyph glyph-name="aacute.ss01" 
d="M556 0h-211l10 72l89 418l21 73h211zM216 -12q-67 0 -111 33.5t-66 88t-22 117.5q0 71 21.5 133.5t61.5 111t95 76t121 27.5q49 0 87 -19.5t62 -55t28 -83.5l-58 -271q-37 -71 -91.5 -114.5t-127.5 -43.5zM305 163q26 0 46 14.5t33.5 37.5t20.5 50.5t7 53.5q0 27 -9.5 45
t-26 27t-38.5 9q-27 0 -46 -13t-31 -35.5t-17.5 -49t-5.5 -53.5q0 -37 17 -61.5t50 -24.5zM295 615l120 173h197l-153 -173h-164z" />
    <glyph glyph-name="abreve.ss01" 
d="M556 0h-211l10 72l89 418l21 73h211zM216 -12q-67 0 -111 33.5t-66 88t-22 117.5q0 71 21.5 133.5t61.5 111t95 76t121 27.5q49 0 87 -19.5t62 -55t28 -83.5l-58 -271q-37 -71 -91.5 -114.5t-127.5 -43.5zM305 163q26 0 46 14.5t33.5 37.5t20.5 50.5t7 53.5q0 27 -9.5 45
t-26 27t-38.5 9q-27 0 -46 -13t-31 -35.5t-17.5 -49t-5.5 -53.5q0 -37 17 -61.5t50 -24.5zM409 608q-63 0 -106 23t-62.5 63.5t-14.5 93.5h154q-3 -25 7 -41t31 -16t34.5 16t16.5 41h157q-5 -53 -33 -93.5t-74.5 -63.5t-109.5 -23z" />
    <glyph glyph-name="acircumflex.ss01" 
d="M556 0h-211l10 72l89 418l21 73h211zM216 -12q-67 0 -111 33.5t-66 88t-22 117.5q0 71 21.5 133.5t61.5 111t95 76t121 27.5q49 0 87 -19.5t62 -55t28 -83.5l-58 -271q-37 -71 -91.5 -114.5t-127.5 -43.5zM305 163q26 0 46 14.5t33.5 37.5t20.5 50.5t7 53.5q0 27 -9.5 45
t-26 27t-38.5 9q-27 0 -46 -13t-31 -35.5t-17.5 -49t-5.5 -53.5q0 -37 17 -61.5t50 -24.5zM157 615l151 173h234l81 -173h-191l-26 78l-51 -78h-198z" />
    <glyph glyph-name="adieresis.ss01" 
d="M556 0h-211l10 72l89 418l21 73h211zM216 -12q-67 0 -111 33.5t-66 88t-22 117.5q0 71 21.5 133.5t61.5 111t95 76t121 27.5q49 0 87 -19.5t62 -55t28 -83.5l-58 -271q-37 -71 -91.5 -114.5t-127.5 -43.5zM305 163q26 0 46 14.5t33.5 37.5t20.5 50.5t7 53.5q0 27 -9.5 45
t-26 27t-38.5 9q-27 0 -46 -13t-31 -35.5t-17.5 -49t-5.5 -53.5q0 -37 17 -61.5t50 -24.5zM426 624l34 158h188l-34 -158h-188zM172 624l34 158h188l-34 -158h-188z" />
    <glyph glyph-name="agrave.ss01" 
d="M556 0h-211l10 72l89 418l21 73h211zM216 -12q-67 0 -111 33.5t-66 88t-22 117.5q0 71 21.5 133.5t61.5 111t95 76t121 27.5q49 0 87 -19.5t62 -55t28 -83.5l-58 -271q-37 -71 -91.5 -114.5t-127.5 -43.5zM305 163q26 0 46 14.5t33.5 37.5t20.5 50.5t7 53.5q0 27 -9.5 45
t-26 27t-38.5 9q-27 0 -46 -13t-31 -35.5t-17.5 -49t-5.5 -53.5q0 -37 17 -61.5t50 -24.5zM485 616h-144l-83 173h177z" />
    <glyph glyph-name="amacron.ss01" 
d="M556 0h-211l10 72l89 418l21 73h211zM216 -12q-67 0 -111 33.5t-66 88t-22 117.5q0 71 21.5 133.5t61.5 111t95 76t121 27.5q49 0 87 -19.5t62 -55t28 -83.5l-58 -271q-37 -71 -91.5 -114.5t-127.5 -43.5zM305 163q26 0 46 14.5t33.5 37.5t20.5 50.5t7 53.5q0 27 -9.5 45
t-26 27t-38.5 9q-27 0 -46 -13t-31 -35.5t-17.5 -49t-5.5 -53.5q0 -37 17 -61.5t50 -24.5zM202 634l29 137h392l-29 -137h-392z" />
    <glyph glyph-name="aogonek.ss01" 
d="M556 0h-211l10 72l89 418l21 73h211zM216 -12q-67 0 -111 33.5t-66 88t-22 117.5q0 71 21.5 133.5t61.5 111t95 76t121 27.5q49 0 87 -19.5t62 -55t28 -83.5l-58 -271q-37 -71 -91.5 -114.5t-127.5 -43.5zM305 163q26 0 46 14.5t33.5 37.5t20.5 50.5t7 53.5q0 27 -9.5 45
t-26 27t-38.5 9q-27 0 -46 -13t-31 -35.5t-17.5 -49t-5.5 -53.5q0 -37 17 -61.5t50 -24.5zM439 -226q-10 -1 -19.5 -2t-17.5 -1q-91 0 -120 32t-18 87q5 23 22 49.5t44.5 52t65.5 45.5l91 -37q-17 -10 -31.5 -21.5t-23.5 -23.5t-12 -24q-4 -16 4 -25.5t24 -9.5h9.5t8.5 1z
" />
    <glyph glyph-name="aring.ss01" 
d="M556 0h-211l10 72l89 418l21 73h211zM216 -12q-67 0 -111 33.5t-66 88t-22 117.5q0 71 21.5 133.5t61.5 111t95 76t121 27.5q49 0 87 -19.5t62 -55t28 -83.5l-58 -271q-37 -71 -91.5 -114.5t-127.5 -43.5zM305 163q26 0 46 14.5t33.5 37.5t20.5 50.5t7 53.5q0 27 -9.5 45
t-26 27t-38.5 9q-27 0 -46 -13t-31 -35.5t-17.5 -49t-5.5 -53.5q0 -37 17 -61.5t50 -24.5zM398 586q-55 0 -89.5 31t-34.5 80q0 59 41.5 97t106.5 38q54 0 89 -31t35 -80q0 -59 -41.5 -97t-106.5 -38zM405 670q20 0 32.5 12.5t12.5 31.5q0 15 -10 24.5t-25 9.5
q-19 0 -32 -12t-13 -32q0 -15 10 -24.5t25 -9.5z" />
    <glyph glyph-name="atilde.ss01" 
d="M556 0h-211l10 72l89 418l21 73h211zM216 -12q-67 0 -111 33.5t-66 88t-22 117.5q0 71 21.5 133.5t61.5 111t95 76t121 27.5q49 0 87 -19.5t62 -55t28 -83.5l-58 -271q-37 -71 -91.5 -114.5t-127.5 -43.5zM305 163q26 0 46 14.5t33.5 37.5t20.5 50.5t7 53.5q0 27 -9.5 45
t-26 27t-38.5 9q-27 0 -46 -13t-31 -35.5t-17.5 -49t-5.5 -53.5q0 -37 17 -61.5t50 -24.5zM300 607l-144 23q19 76 61 120.5t106 44.5q39 0 64.5 -8t44 -16.5t35.5 -8.5q14 0 26 10.5t17 28.5l147 -22q-21 -76 -63.5 -120.5t-107.5 -44.5q-34 0 -60.5 9t-47 17.5t-38.5 8.5
q-13 0 -23.5 -11t-16.5 -31z" />
    <glyph glyph-name="ae.ss01" 
d="M301 0h-103l18 111l72 339l30 113h103zM114 -12q-38 0 -65 28t-41.5 76.5t-14.5 109.5q0 43 9 93.5t27 100t43.5 90t58.5 65t72 24.5q36 0 61.5 -20.5t39 -57.5t11.5 -86l-57 -267q-28 -70 -59.5 -113t-84.5 -43zM183 156q16 0 29 14t23.5 36.5t17.5 49t10.5 53t3.5 46.5
q0 25 -10 38.5t-26 13.5q-18 0 -33 -20t-25.5 -50.5t-16 -63t-5.5 -57.5q0 -19 3.5 -32.5t11 -20.5t17.5 -7zM405 -12q-40 0 -72.5 23t-52 64.5t-19.5 96.5q0 53 12 109.5t34.5 109t54 94t69.5 66t81 24.5q50 0 79.5 -26t42 -71t11 -102t-12.5 -119h-263l27 109l89 2
q3 18 2 34.5t-7 27.5t-19 11q-17 0 -30.5 -18.5t-24.5 -47.5t-18 -62t-11 -62.5t-4 -49.5q0 -39 14.5 -52.5t26.5 -13.5q10 0 25.5 10t25.5 50h154q-22 -96 -77 -151.5t-137 -55.5z" />
    <glyph glyph-name="aeacute.ss01" 
d="M301 0h-103l18 111l72 339l30 113h103zM114 -12q-38 0 -65 28t-41.5 76.5t-14.5 109.5q0 43 9 93.5t27 100t43.5 90t58.5 65t72 24.5q36 0 61.5 -20.5t39 -57.5t11.5 -86l-57 -267q-28 -70 -59.5 -113t-84.5 -43zM183 156q16 0 29 14t23.5 36.5t17.5 49t10.5 53t3.5 46.5
q0 25 -10 38.5t-26 13.5q-18 0 -33 -20t-25.5 -50.5t-16 -63t-5.5 -57.5q0 -19 3.5 -32.5t11 -20.5t17.5 -7zM405 -12q-40 0 -72.5 23t-52 64.5t-19.5 96.5q0 53 12 109.5t34.5 109t54 94t69.5 66t81 24.5q50 0 79.5 -26t42 -71t11 -102t-12.5 -119h-263l27 109l89 2
q3 18 2 34.5t-7 27.5t-19 11q-17 0 -30.5 -18.5t-24.5 -47.5t-18 -62t-11 -62.5t-4 -49.5q0 -39 14.5 -52.5t26.5 -13.5q10 0 25.5 10t25.5 50h154q-22 -96 -77 -151.5t-137 -55.5zM281 615l120 173h197l-153 -173h-164z" />
    <glyph glyph-name="a.ss02" 
d="M195 0q-65 0 -108 28t-59 74.5t-4 100.5l4 17q19 80 82.5 111t161.5 31h123l3 12q6 24 -8.5 36.5t-44.5 12.5h-239l30 140h285q98 0 146 -55t32 -146l-77 -362h-327zM260 140l88 1l17 81h-88q-23 0 -38.5 -8t-18.5 -26l-1 -6q-3 -18 7.5 -30t33.5 -12z" />
    <glyph glyph-name="aacute.ss02" 
d="M195 0q-65 0 -108 28t-59 74.5t-4 100.5l4 17q19 80 82.5 111t161.5 31h123l3 12q6 24 -8.5 36.5t-44.5 12.5h-239l30 140h285q98 0 146 -55t32 -146l-77 -362h-327zM260 140l88 1l17 81h-88q-23 0 -38.5 -8t-18.5 -26l-1 -6q-3 -18 7.5 -30t33.5 -12zM280 615l120 173
h197l-153 -173h-164z" />
    <glyph glyph-name="abreve.ss02" 
d="M195 0q-65 0 -108 28t-59 74.5t-4 100.5l4 17q19 80 82.5 111t161.5 31h123l3 12q6 24 -8.5 36.5t-44.5 12.5h-239l30 140h285q98 0 146 -55t32 -146l-77 -362h-327zM260 140l88 1l17 81h-88q-23 0 -38.5 -8t-18.5 -26l-1 -6q-3 -18 7.5 -30t33.5 -12zM394 608
q-63 0 -106 23t-62.5 63.5t-14.5 93.5h154q-3 -25 7 -41t31 -16t34.5 16t16.5 41h157q-5 -53 -33 -93.5t-74.5 -63.5t-109.5 -23z" />
    <glyph glyph-name="acircumflex.ss02" 
d="M195 0q-65 0 -108 28t-59 74.5t-4 100.5l4 17q19 80 82.5 111t161.5 31h123l3 12q6 24 -8.5 36.5t-44.5 12.5h-239l30 140h285q98 0 146 -55t32 -146l-77 -362h-327zM260 140l88 1l17 81h-88q-23 0 -38.5 -8t-18.5 -26l-1 -6q-3 -18 7.5 -30t33.5 -12zM142 615l151 173
h234l81 -173h-191l-26 78l-51 -78h-198z" />
    <glyph glyph-name="adieresis.ss02" 
d="M195 0q-65 0 -108 28t-59 74.5t-4 100.5l4 17q19 80 82.5 111t161.5 31h123l3 12q6 24 -8.5 36.5t-44.5 12.5h-239l30 140h285q98 0 146 -55t32 -146l-77 -362h-327zM260 140l88 1l17 81h-88q-23 0 -38.5 -8t-18.5 -26l-1 -6q-3 -18 7.5 -30t33.5 -12zM411 624l34 158
h188l-34 -158h-188zM157 624l34 158h188l-34 -158h-188z" />
    <glyph glyph-name="agrave.ss02" 
d="M195 0q-65 0 -108 28t-59 74.5t-4 100.5l4 17q19 80 82.5 111t161.5 31h123l3 12q6 24 -8.5 36.5t-44.5 12.5h-239l30 140h285q98 0 146 -55t32 -146l-77 -362h-327zM260 140l88 1l17 81h-88q-23 0 -38.5 -8t-18.5 -26l-1 -6q-3 -18 7.5 -30t33.5 -12zM470 616h-144
l-83 173h177z" />
    <glyph glyph-name="amacron.ss02" 
d="M195 0q-65 0 -108 28t-59 74.5t-4 100.5l4 17q19 80 82.5 111t161.5 31h123l3 12q6 24 -8.5 36.5t-44.5 12.5h-239l30 140h285q98 0 146 -55t32 -146l-77 -362h-327zM260 140l88 1l17 81h-88q-23 0 -38.5 -8t-18.5 -26l-1 -6q-3 -18 7.5 -30t33.5 -12zM187 634l29 137
h392l-29 -137h-392z" />
    <glyph glyph-name="aogonek.ss02" 
d="M195 0q-65 0 -108 28t-59 74.5t-4 100.5l4 17q19 80 82.5 111t161.5 31h123l3 12q6 24 -8.5 36.5t-44.5 12.5h-239l30 140h285q98 0 146 -55t32 -146l-77 -362h-327zM260 140l88 1l17 81h-88q-23 0 -38.5 -8t-18.5 -26l-1 -6q-3 -18 7.5 -30t33.5 -12zM474 -226
q-10 -1 -19.5 -2t-17.5 -1q-91 0 -120 32t-18 87q5 23 22 49.5t44.5 52t65.5 45.5l91 -37q-17 -10 -31.5 -21.5t-23.5 -23.5t-12 -24q-4 -16 4 -25.5t24 -9.5h9.5t8.5 1z" />
    <glyph glyph-name="aring.ss02" 
d="M195 0q-65 0 -108 28t-59 74.5t-4 100.5l4 17q19 80 82.5 111t161.5 31h123l3 12q6 24 -8.5 36.5t-44.5 12.5h-239l30 140h285q98 0 146 -55t32 -146l-77 -362h-327zM260 140l88 1l17 81h-88q-23 0 -38.5 -8t-18.5 -26l-1 -6q-3 -18 7.5 -30t33.5 -12zM383 586
q-55 0 -89.5 31t-34.5 80q0 59 41.5 97t106.5 38q54 0 89 -31t35 -80q0 -59 -41.5 -97t-106.5 -38zM390 670q20 0 32.5 12.5t12.5 31.5q0 15 -10 24.5t-25 9.5q-19 0 -32 -12t-13 -32q0 -15 10 -24.5t25 -9.5z" />
    <glyph glyph-name="atilde.ss02" 
d="M195 0q-65 0 -108 28t-59 74.5t-4 100.5l4 17q19 80 82.5 111t161.5 31h123l3 12q6 24 -8.5 36.5t-44.5 12.5h-239l30 140h285q98 0 146 -55t32 -146l-77 -362h-327zM260 140l88 1l17 81h-88q-23 0 -38.5 -8t-18.5 -26l-1 -6q-3 -18 7.5 -30t33.5 -12zM285 607l-144 23
q19 76 61 120.5t106 44.5q39 0 64.5 -8t44 -16.5t35.5 -8.5q14 0 26 10.5t17 28.5l147 -22q-21 -76 -63.5 -120.5t-107.5 -44.5q-34 0 -60.5 9t-47 17.5t-38.5 8.5q-13 0 -23.5 -11t-16.5 -31z" />
    <glyph glyph-name="ae.ss02" 
d="M160 0q-61 0 -102.5 23t-58.5 67t-4 106l4 19q16 74 68 111t150 37h29l3 12q5 23 -4.5 35.5t-38.5 12.5h-135l30 140h141q94 0 133.5 -51.5t24.5 -148.5l-77 -363h-163zM180 141h19l17 81h-24q-23 0 -35.5 -7.5t-15.5 -25.5l-1 -6q-4 -22 9 -32t31 -10zM387 -12
q-52 0 -89.5 22t-57.5 64t-20 100q0 49 10 104t30 107.5t51 95.5t72.5 68.5t94.5 25.5q72 0 110 -43.5t46.5 -116t-6.5 -158.5h-274l26 111h105q3 19 0.5 35.5t-9.5 27t-21 10.5q-16 0 -29 -17.5t-23 -46t-16.5 -61t-10 -62.5t-3.5 -51q0 -31 8.5 -49.5t25.5 -18.5
t32.5 14.5t24.5 45.5h154q-25 -98 -87.5 -152.5t-143.5 -54.5z" />
    <glyph glyph-name="aeacute.ss02" 
d="M160 0q-61 0 -102.5 23t-58.5 67t-4 106l4 19q16 74 68 111t150 37h29l3 12q5 23 -4.5 35.5t-38.5 12.5h-135l30 140h141q94 0 133.5 -51.5t24.5 -148.5l-77 -363h-163zM180 141h19l17 81h-24q-23 0 -35.5 -7.5t-15.5 -25.5l-1 -6q-4 -22 9 -32t31 -10zM387 -12
q-52 0 -89.5 22t-57.5 64t-20 100q0 49 10 104t30 107.5t51 95.5t72.5 68.5t94.5 25.5q72 0 110 -43.5t46.5 -116t-6.5 -158.5h-274l26 111h105q3 19 0.5 35.5t-9.5 27t-21 10.5q-16 0 -29 -17.5t-23 -46t-16.5 -61t-10 -62.5t-3.5 -51q0 -31 8.5 -49.5t25.5 -18.5
t32.5 14.5t24.5 45.5h154q-25 -98 -87.5 -152.5t-143.5 -54.5zM279 614l120 173h197l-153 -173h-164z" />
    <glyph glyph-name="b.ss03" 
d="M-15 0l157 740h216l-37 -177h114q73 0 118.5 -29.5t61.5 -85.5t-1 -137l-23 -111q-13 -64 -50.5 -109t-95 -68t-130.5 -23h-330zM238 172h65q31 0 50.5 15t25.5 41l21 97q6 29 -7 47.5t-44 18.5h-65z" />
    <glyph glyph-name="d.ss03" 
d="M545 0h-319q-71 0 -120 29.5t-68.5 83t-4.5 126.5l24 112q16 72 50 119t88 70t130 23h124l37 177h216zM366 172l46 219h-79q-25 0 -41.5 -15t-21.5 -41l-19 -91q-8 -40 5 -56t45 -16h65z" />
    <glyph glyph-name="eth.ss03" 
d="M540 0h-310q-70 0 -120.5 32.5t-71.5 91t-4 137.5l13 60q20 92 84.5 147t169.5 55h134l46 217h216zM361 172l38 179h-75q-25 0 -44 -15t-24 -40l-12 -57q-7 -31 8 -49t44 -18h65zM300 578l25 120h409l-26 -120h-408z" />
    <glyph glyph-name="dcaron.ss03" 
d="M548 0h-319q-71 0 -120 29.5t-68.5 83t-4.5 126.5l24 112q16 72 50 119t88 70t130 23h124l37 177h216zM369 172l46 219h-79q-25 0 -41.5 -15t-21.5 -41l-19 -91q-8 -40 5 -56t45 -16h65zM704 516l53 223h168l-90 -223h-131z" />
    <glyph glyph-name="dcroat.ss03" 
d="M540 0h-310q-70 0 -120.5 32.5t-71.5 91t-4 137.5l13 60q20 92 84.5 147t169.5 55h134l46 217h216zM361 172l38 179h-75q-25 0 -44 -15t-24 -40l-12 -57q-7 -31 8 -49t44 -18h65zM300 578l25 120h409l-26 -120h-408z" />
    <glyph glyph-name="p.ss03" 
d="M105 563h330q83 0 126.5 -34t55.5 -88.5t-1 -117.5l-24 -118q-16 -77 -58.5 -122t-100 -64t-118.5 -19h-114l-37 -177h-216zM284 391l-46 -219h64q33 0 52.5 16t25.5 44l20 94q7 32 -6 48.5t-45 16.5h-65z" />
    <glyph glyph-name="thorn.ss03" 
d="M314 563h114q68 0 114.5 -27t64.5 -82.5t0 -141.5l-24 -114q-12 -59 -47.5 -104t-92.5 -69.5t-135 -24.5h-114l-37 -178h-216l194 918h216zM375 237l18 89q7 32 -6 48.5t-45 16.5h-65l-46 -219h65q32 0 52 16.5t27 48.5z" />
    <glyph glyph-name="q.ss03" 
d="M657 563l-157 -740h-216l37 177h-104q-70 0 -118 29.5t-67.5 83.5t-4.5 125l26 124q12 57 42.5 102.5t85 72t136.5 26.5h340zM405 391h-75q-30 0 -46 -15.5t-22 -44.5l-19 -91q-7 -33 5.5 -50.5t44.5 -17.5h66z" />
    <glyph glyph-name="c.ss04" 
d="M317 0q-81 0 -141.5 30.5t-94 86.5t-33.5 131q0 96 42 166.5t118.5 109.5t178.5 39h258l-37 -172h-198q-42 0 -74 -15t-49.5 -42t-17.5 -64q0 -45 28.5 -72t76.5 -27h188l-37 -171h-208z" />
    <glyph glyph-name="cacute.ss04" 
d="M317 0q-81 0 -141.5 30.5t-94 86.5t-33.5 131q0 96 42 166.5t118.5 109.5t178.5 39h258l-37 -172h-198q-42 0 -74 -15t-49.5 -42t-17.5 -64q0 -45 28.5 -72t76.5 -27h188l-37 -171h-208zM348 615l120 173h197l-153 -173h-164z" />
    <glyph glyph-name="ccaron.ss04" 
d="M317 0q-81 0 -141.5 30.5t-94 86.5t-33.5 131q0 96 42 166.5t118.5 109.5t178.5 39h258l-37 -172h-198q-42 0 -74 -15t-49.5 -42t-17.5 -64q0 -45 28.5 -72t76.5 -27h188l-37 -171h-208zM255 788h172l31 -88l60 88h183l-141 -173h-234z" />
    <glyph glyph-name="ccedilla.ss04" 
d="M317 0q-81 0 -141.5 30.5t-94 86.5t-33.5 131q0 96 42 166.5t118.5 109.5t178.5 39h258l-37 -172h-198q-42 0 -74 -15t-49.5 -42t-17.5 -64q0 -45 28.5 -72t76.5 -27h188l-37 -171h-208zM296 -222q-27 0 -49.5 4t-48.5 13l16 77q13 -4 30.5 -9t36.5 -5q17 0 27 5t10 13
t-8 11.5t-20 3.5q-10 0 -19 -1.5t-18 -4.5l-16 45l86 103l81 -26l-42 -47h4h3q36 0 64 -20t28 -56q0 -39 -24.5 -62.5t-62.5 -33.5t-78 -10z" />
    <glyph glyph-name="ccircumflex.ss04" 
d="M317 0q-81 0 -141.5 30.5t-94 86.5t-33.5 131q0 96 42 166.5t118.5 109.5t178.5 39h258l-37 -172h-198q-42 0 -74 -15t-49.5 -42t-17.5 -64q0 -45 28.5 -72t76.5 -27h188l-37 -171h-208zM210 615l151 173h234l81 -173h-191l-26 78l-51 -78h-198z" />
    <glyph glyph-name="cdotaccent.ss04" 
d="M317 0q-81 0 -141.5 30.5t-94 86.5t-33.5 131q0 96 42 166.5t118.5 109.5t178.5 39h258l-37 -172h-198q-42 0 -74 -15t-49.5 -42t-17.5 -64q0 -45 28.5 -72t76.5 -27h188l-37 -171h-208zM337 617l36 168h218l-36 -168h-218z" />
    <glyph glyph-name="g.ss06" 
d="M165 -190q-62 0 -103.5 18.5t-61.5 48t-20 62.5q0 42 28 75t78 54l110 -58q-12 -7 -16 -15.5t-4 -16.5q0 -11 9 -18t31 -7h118q13 0 21 5.5t8 15.5q0 7 -6 11.5t-17 5.5l-170 14q-59 5 -93.5 36.5t-34.5 77.5q0 23 11.5 47.5t33 49t50.5 45.5l131 -64q-10 -7 -15.5 -14.5
t-5.5 -15.5q0 -7 5 -11t15 -5l136 -11q52 -4 85.5 -23t49.5 -50.5t16 -71.5q0 -56 -27 -97.5t-76 -64.5t-114 -23h-172zM313 187q-69 0 -121.5 22t-82.5 61t-30 89q0 64 34.5 112.5t95 76.5t139.5 28q70 0 123 -23t83 -64t30 -94q0 -61 -34.5 -108t-95.5 -73.5t-141 -26.5z
M324 332q32 0 51.5 14.5t19.5 36.5q0 17 -16 28t-42 11q-31 0 -51 -14t-20 -37q0 -17 16.5 -28t41.5 -11zM494 397l-92 152l171 159l119 -140z" />
    <glyph glyph-name="gbreve.ss06" 
d="M165 -190q-62 0 -103.5 18.5t-61.5 48t-20 62.5q0 42 28 75t78 54l110 -58q-12 -7 -16 -15.5t-4 -16.5q0 -11 9 -18t31 -7h118q13 0 21 5.5t8 15.5q0 7 -6 11.5t-17 5.5l-170 14q-59 5 -93.5 36.5t-34.5 77.5q0 23 11.5 47.5t33 49t50.5 45.5l131 -64q-10 -7 -15.5 -14.5
t-5.5 -15.5q0 -7 5 -11t15 -5l136 -11q52 -4 85.5 -23t49.5 -50.5t16 -71.5q0 -56 -27 -97.5t-76 -64.5t-114 -23h-172zM313 187q-69 0 -121.5 22t-82.5 61t-30 89q0 64 34.5 112.5t95 76.5t139.5 28q70 0 123 -23t83 -64t30 -94q0 -61 -34.5 -108t-95.5 -73.5t-141 -26.5z
M324 332q32 0 51.5 14.5t19.5 36.5q0 17 -16 28t-42 11q-31 0 -51 -14t-20 -37q0 -17 16.5 -28t41.5 -11zM494 397l-92 152l171 159l119 -140zM365 607q-63 0 -106 23t-62.5 63.5t-14.5 93.5h154q-3 -25 7 -41t31 -16t34.5 16t16.5 41h157q-5 -53 -33 -93.5t-74.5 -63.5
t-109.5 -23z" />
    <glyph glyph-name="gcircumflex.ss06" 
d="M165 -190q-62 0 -103.5 18.5t-61.5 48t-20 62.5q0 42 28 75t78 54l110 -58q-12 -7 -16 -15.5t-4 -16.5q0 -11 9 -18t31 -7h118q13 0 21 5.5t8 15.5q0 7 -6 11.5t-17 5.5l-170 14q-59 5 -93.5 36.5t-34.5 77.5q0 23 11.5 47.5t33 49t50.5 45.5l131 -64q-10 -7 -15.5 -14.5
t-5.5 -15.5q0 -7 5 -11t15 -5l136 -11q52 -4 85.5 -23t49.5 -50.5t16 -71.5q0 -56 -27 -97.5t-76 -64.5t-114 -23h-172zM313 187q-69 0 -121.5 22t-82.5 61t-30 89q0 64 34.5 112.5t95 76.5t139.5 28q70 0 123 -23t83 -64t30 -94q0 -61 -34.5 -108t-95.5 -73.5t-141 -26.5z
M324 332q32 0 51.5 14.5t19.5 36.5q0 17 -16 28t-42 11q-31 0 -51 -14t-20 -37q0 -17 16.5 -28t41.5 -11zM494 397l-92 152l171 159l119 -140zM140 615l151 173h234l81 -173h-191l-26 78l-51 -78h-198z" />
    <glyph glyph-name="uni0123.ss06" 
d="M162 -190q-62 0 -103.5 18.5t-61.5 48t-20 62.5q0 42 28 75t78 54l110 -58q-12 -7 -16 -15.5t-4 -16.5q0 -11 9 -18t31 -7h118q13 0 21 5.5t8 15.5q0 7 -6 11.5t-17 5.5l-170 14q-59 5 -93.5 36.5t-34.5 77.5q0 23 11.5 47.5t33 49t50.5 45.5l131 -64q-10 -7 -15.5 -14.5
t-5.5 -15.5q0 -7 5 -11t15 -5l136 -11q52 -4 85.5 -23t49.5 -50.5t16 -71.5q0 -56 -27 -97.5t-76 -64.5t-114 -23h-172zM310 187q-69 0 -121.5 22t-82.5 61t-30 89q0 64 34.5 112.5t95 76.5t139.5 28q70 0 123 -23t83 -64t30 -94q0 -61 -34.5 -108t-95.5 -73.5t-141 -26.5z
M321 332q32 0 51.5 14.5t19.5 36.5q0 17 -16 28t-42 11q-31 0 -51 -14t-20 -37q0 -17 16.5 -28t41.5 -11zM491 397l-92 152l171 159l119 -140zM487 779l-33 -154h-209l79 154h163z" />
    <glyph glyph-name="gdotaccent.ss06" 
d="M165 -190q-62 0 -103.5 18.5t-61.5 48t-20 62.5q0 42 28 75t78 54l110 -58q-12 -7 -16 -15.5t-4 -16.5q0 -11 9 -18t31 -7h118q13 0 21 5.5t8 15.5q0 7 -6 11.5t-17 5.5l-170 14q-59 5 -93.5 36.5t-34.5 77.5q0 23 11.5 47.5t33 49t50.5 45.5l131 -64q-10 -7 -15.5 -14.5
t-5.5 -15.5q0 -7 5 -11t15 -5l136 -11q52 -4 85.5 -23t49.5 -50.5t16 -71.5q0 -56 -27 -97.5t-76 -64.5t-114 -23h-172zM313 187q-69 0 -121.5 22t-82.5 61t-30 89q0 64 34.5 112.5t95 76.5t139.5 28q70 0 123 -23t83 -64t30 -94q0 -61 -34.5 -108t-95.5 -73.5t-141 -26.5z
M324 332q32 0 51.5 14.5t19.5 36.5q0 17 -16 28t-42 11q-31 0 -51 -14t-20 -37q0 -17 16.5 -28t41.5 -11zM494 397l-92 152l171 159l119 -140zM240 616l36 168h218l-36 -168h-218z" />
    <glyph glyph-name="g.ss07" 
d="M47 296l14 62q14 63 45.5 109t85.5 71t135 25h339l-108 -512q-15 -70 -54.5 -121.5t-97.5 -79.5t-129 -28h-286l37 172h244q27 0 45.5 17t27.5 43l1 3h-107q-79 0 -126.5 33.5t-63.5 88t-2 117.5zM264 294q-6 -32 5.5 -48.5t42.5 -16.5h68l34 162h-77q-28 0 -44 -15.5
t-21 -40.5z" />
    <glyph glyph-name="gbreve.ss07" 
d="M47 296l14 62q14 63 45.5 109t85.5 71t135 25h339l-108 -512q-15 -70 -54.5 -121.5t-97.5 -79.5t-129 -28h-286l37 172h244q27 0 45.5 17t27.5 43l1 3h-107q-79 0 -126.5 33.5t-63.5 88t-2 117.5zM264 294q-6 -32 5.5 -48.5t42.5 -16.5h68l34 162h-77q-28 0 -44 -15.5
t-21 -40.5zM427 608q-63 0 -106 23t-62.5 63.5t-14.5 93.5h154q-3 -25 7 -41t31 -16t34.5 16t16.5 41h157q-5 -53 -33 -93.5t-74.5 -63.5t-109.5 -23z" />
    <glyph glyph-name="gcircumflex.ss07" 
d="M47 296l14 62q14 63 45.5 109t85.5 71t135 25h339l-108 -512q-15 -70 -54.5 -121.5t-97.5 -79.5t-129 -28h-286l37 172h244q27 0 45.5 17t27.5 43l1 3h-107q-79 0 -126.5 33.5t-63.5 88t-2 117.5zM264 294q-6 -32 5.5 -48.5t42.5 -16.5h68l34 162h-77q-28 0 -44 -15.5
t-21 -40.5zM175 615l151 173h234l81 -173h-191l-26 78l-51 -78h-198z" />
    <glyph glyph-name="uni0123.ss07" 
d="M47 296l14 62q14 63 45.5 109t85.5 71t135 25h339l-108 -512q-15 -70 -54.5 -121.5t-97.5 -79.5t-129 -28h-286l37 172h244q27 0 45.5 17t27.5 43l1 3h-107q-79 0 -126.5 33.5t-63.5 88t-2 117.5zM264 294q-6 -32 5.5 -48.5t42.5 -16.5h68l34 162h-77q-28 0 -44 -15.5
t-21 -40.5zM531 778l-33 -154h-209l79 154h163z" />
    <glyph glyph-name="gdotaccent.ss07" 
d="M47 296l14 62q14 63 45.5 109t85.5 71t135 25h339l-108 -512q-15 -70 -54.5 -121.5t-97.5 -79.5t-129 -28h-286l37 172h244q27 0 45.5 17t27.5 43l1 3h-107q-79 0 -126.5 33.5t-63.5 88t-2 117.5zM264 294q-6 -32 5.5 -48.5t42.5 -16.5h68l34 162h-77q-28 0 -44 -15.5
t-21 -40.5zM302 617l36 168h218l-36 -168h-218z" />
    <glyph glyph-name="h.ss08" 
d="M-16 0l157 740h216l-37 -177h94q76 0 127 -26t71.5 -77.5t4.5 -127.5l-71 -332h-216l69 326q7 32 -6 48.5t-45 16.5h-65l-83 -391h-216z" />
    <glyph glyph-name="hbar.ss08" horiz-adv-x="672" 
d="M11 0l157 740h216l-46 -217h94q76 0 127.5 -25.5t72 -77.5t3.5 -130l-62 -290h-216l61 286q7 32 -6 48.5t-45 16.5h-65l-75 -351h-216zM71 580l26 120h408l-26 -120h-408z" />
    <glyph glyph-name="hcircumflex.ss08" 
d="M-16 0l157 740h216l-37 -177h94q76 0 127 -26t71.5 -77.5t4.5 -127.5l-71 -332h-216l69 326q7 32 -6 48.5t-45 16.5h-65l-83 -391h-216zM11 793l151 173h234l81 -173h-191l-26 78l-51 -78h-198z" />
    <glyph glyph-name="m.ss08" 
d="M-39 0l120 563h368q76 0 124.5 -26.5t66 -79.5t0.5 -134l-69 -323h-166l69 326q7 32 -2 48.5t-35 16.5h-9l-83 -391h-158l83 391h-60l-83 -391h-166z" />
    <glyph glyph-name="n.ss08" 
d="M407 563q76 0 127 -26t71.5 -77.5t4.5 -127.5l-71 -332h-216l69 326q7 32 -6 48.5t-45 16.5h-65l-83 -391h-216l120 563h310z" />
    <glyph glyph-name="nacute.ss08" 
d="M407 563q76 0 127 -26t71.5 -77.5t4.5 -127.5l-71 -332h-216l69 326q7 32 -6 48.5t-45 16.5h-65l-83 -391h-216l120 563h310zM287 615l120 173h197l-153 -173h-164z" />
    <glyph glyph-name="ncaron.ss08" 
d="M407 563q76 0 127 -26t71.5 -77.5t4.5 -127.5l-71 -332h-216l69 326q7 32 -6 48.5t-45 16.5h-65l-83 -391h-216l120 563h310zM194 788h172l31 -88l60 88h183l-141 -173h-234z" />
    <glyph glyph-name="uni0146.ss08" 
d="M407 563q76 0 127 -26t71.5 -77.5t4.5 -127.5l-71 -332h-216l69 326q7 32 -6 48.5t-45 16.5h-65l-83 -391h-216l120 563h310zM125 -198l33 154h209l-79 -154h-163z" />
    <glyph glyph-name="ntilde.ss08" 
d="M407 563q76 0 127 -26t71.5 -77.5t4.5 -127.5l-71 -332h-216l69 326q7 32 -6 48.5t-45 16.5h-65l-83 -391h-216l120 563h310zM292 607l-144 23q19 76 61 120.5t106 44.5q39 0 64.5 -8t44 -16.5t35.5 -8.5q14 0 26 10.5t17 28.5l147 -22q-21 -76 -63.5 -120.5
t-107.5 -44.5q-34 0 -60.5 9t-47 17.5t-38.5 8.5q-13 0 -23.5 -11t-16.5 -31z" />
    <glyph glyph-name="eng.ss08" 
d="M98 563h311q76 0 127 -26t71 -77.5t4 -127.5l-67 -316q-20 -96 -84 -145t-162 -49h-72l37 172h25q18 0 29 11.5t15 28.5l61 292q7 32 -6 48.5t-45 16.5h-65l-83 -391h-216z" />
    <glyph glyph-name="r.ss10" 
d="M423 563q73 0 121 -30t67 -84t3 -127l-16 -75h-216l16 79q8 32 -5.5 48.5t-45.5 16.5h-45l-83 -391h-216l120 563h300z" />
    <glyph glyph-name="racute.ss10" 
d="M423 563q73 0 121 -30t67 -84t3 -127l-16 -75h-216l16 79q8 32 -5.5 48.5t-45.5 16.5h-45l-83 -391h-216l120 563h300zM282 615l120 173h197l-153 -173h-164z" />
    <glyph glyph-name="rcaron.ss10" 
d="M423 563q73 0 121 -30t67 -84t3 -127l-16 -75h-216l16 79q8 32 -5.5 48.5t-45.5 16.5h-45l-83 -391h-216l120 563h300zM189 788h172l31 -88l60 88h183l-141 -173h-234z" />
    <glyph glyph-name="uni0157.ss10" 
d="M423 563q73 0 121 -30t67 -84t3 -127l-16 -75h-216l16 79q8 32 -5.5 48.5t-45.5 16.5h-45l-83 -391h-216l120 563h300zM-40 -198l33 154h209l-79 -154h-163z" />
    <glyph glyph-name="s.ss11" 
d="M20 0l33 156h302q17 0 25.5 6.5t8.5 16.5t-7 15.5t-20 5.5h-102q-60 0 -102 24t-63.5 62t-21.5 80q0 61 31 105t82.5 68t113.5 24h324l-33 -156h-304q-12 0 -19 -5t-7 -15q0 -8 6.5 -13.5t19.5 -5.5h124q55 0 92 -23t55.5 -59.5t18.5 -79.5q0 -61 -30.5 -107.5t-82 -72.5
t-114.5 -26h-330z" />
    <glyph glyph-name="sacute.ss11" 
d="M20 0l33 156h302q17 0 25.5 6.5t8.5 16.5t-7 15.5t-20 5.5h-102q-60 0 -102 24t-63.5 62t-21.5 80q0 61 31 105t82.5 68t113.5 24h324l-33 -156h-304q-12 0 -19 -5t-7 -15q0 -8 6.5 -13.5t19.5 -5.5h124q55 0 92 -23t55.5 -59.5t18.5 -79.5q0 -61 -30.5 -107.5t-82 -72.5
t-114.5 -26h-330zM304 615l120 173h197l-153 -173h-164z" />
    <glyph glyph-name="scaron.ss11" 
d="M20 0l33 156h302q17 0 25.5 6.5t8.5 16.5t-7 15.5t-20 5.5h-102q-60 0 -102 24t-63.5 62t-21.5 80q0 61 31 105t82.5 68t113.5 24h324l-33 -156h-304q-12 0 -19 -5t-7 -15q0 -8 6.5 -13.5t19.5 -5.5h124q55 0 92 -23t55.5 -59.5t18.5 -79.5q0 -61 -30.5 -107.5t-82 -72.5
t-114.5 -26h-330zM211 788h172l31 -88l60 88h183l-141 -173h-234z" />
    <glyph glyph-name="scedilla.ss11" 
d="M20 0l33 156h302q17 0 25.5 6.5t8.5 16.5t-7 15.5t-20 5.5h-102q-60 0 -102 24t-63.5 62t-21.5 80q0 61 31 105t82.5 68t113.5 24h324l-33 -156h-304q-12 0 -19 -5t-7 -15q0 -8 6.5 -13.5t19.5 -5.5h124q55 0 92 -23t55.5 -59.5t18.5 -79.5q0 -61 -30.5 -107.5t-82 -72.5
t-114.5 -26h-330zM227 -222q-27 0 -49.5 4t-48.5 13l16 77q13 -4 30.5 -9t36.5 -5q17 0 27 5t10 13t-8 11.5t-20 3.5q-10 0 -19 -1.5t-18 -4.5l-16 45l86 103l81 -26l-42 -47h4h3q36 0 64 -20t28 -56q0 -39 -24.5 -62.5t-62.5 -33.5t-78 -10z" />
    <glyph glyph-name="scircumflex.ss11" 
d="M20 0l33 156h302q17 0 25.5 6.5t8.5 16.5t-7 15.5t-20 5.5h-102q-60 0 -102 24t-63.5 62t-21.5 80q0 61 31 105t82.5 68t113.5 24h324l-33 -156h-304q-12 0 -19 -5t-7 -15q0 -8 6.5 -13.5t19.5 -5.5h124q55 0 92 -23t55.5 -59.5t18.5 -79.5q0 -61 -30.5 -107.5t-82 -72.5
t-114.5 -26h-330zM166 615l151 173h234l81 -173h-191l-26 78l-51 -78h-198z" />
    <glyph glyph-name="uni0219.ss11" 
d="M20 0l33 156h302q17 0 25.5 6.5t8.5 16.5t-7 15.5t-20 5.5h-102q-60 0 -102 24t-63.5 62t-21.5 80q0 61 31 105t82.5 68t113.5 24h324l-33 -156h-304q-12 0 -19 -5t-7 -15q0 -8 6.5 -13.5t19.5 -5.5h124q55 0 92 -23t55.5 -59.5t18.5 -79.5q0 -61 -30.5 -107.5t-82 -72.5
t-114.5 -26h-330zM122 -198l33 154h209l-79 -154h-163z" />
    <glyph glyph-name="t.ss12" 
d="M140 0l151 710h216l-151 -710h-216zM82 391l37 172h528l-37 -172h-528z" />
    <glyph glyph-name="tbar.ss12" 
d="M49 235l23 110h508l-23 -110h-508zM140 0l151 710h216l-151 -710h-216zM82 391l37 172h528l-37 -172h-528z" />
    <glyph glyph-name="tcaron.ss12" 
d="M140 0l151 710h216l-151 -710h-216zM82 391l37 172h528l-37 -172h-528zM529 595l53 223h168l-90 -223h-131z" />
    <glyph glyph-name="uni0163.ss12" 
d="M140 0l151 710h216l-151 -710h-216zM82 391l37 172h528l-37 -172h-528zM202 -222q-27 0 -49.5 4t-48.5 13l16 77q13 -4 30.5 -9t36.5 -5q17 0 27 5t10 13t-8 11.5t-20 3.5q-10 0 -19 -1.5t-18 -4.5l-16 45l86 103l81 -26l-42 -47h4h3q36 0 64 -20t28 -56
q0 -39 -24.5 -62.5t-62.5 -33.5t-78 -10z" />
    <glyph glyph-name="uni021B.ss12" 
d="M140 0l151 710h216l-151 -710h-216zM82 391l37 172h528l-37 -172h-528zM97 -198l33 154h209l-79 -154h-163z" />
    <glyph glyph-name="u.ss14" 
d="M244 0q-76 0 -127 26t-71.5 77.5t-4.5 127.5l71 332h216l-69 -326q-7 -32 6 -48.5t45 -16.5h65l83 391h216l-120 -563h-310z" />
    <glyph glyph-name="uacute.ss14" 
d="M244 0q-76 0 -127 26t-71.5 77.5t-4.5 127.5l71 332h216l-69 -326q-7 -32 6 -48.5t45 -16.5h65l83 391h216l-120 -563h-310zM303 614l120 173h197l-153 -173h-164z" />
    <glyph glyph-name="ubreve.ss14" 
d="M244 0q-76 0 -127 26t-71.5 77.5t-4.5 127.5l71 332h216l-69 -326q-7 -32 6 -48.5t45 -16.5h65l83 391h216l-120 -563h-310zM417 607q-63 0 -106 23t-62.5 63.5t-14.5 93.5h154q-3 -25 7 -41t31 -16t34.5 16t16.5 41h157q-5 -53 -33 -93.5t-74.5 -63.5t-109.5 -23z" />
    <glyph glyph-name="ucircumflex.ss14" 
d="M244 0q-76 0 -127 26t-71.5 77.5t-4.5 127.5l71 332h216l-69 -326q-7 -32 6 -48.5t45 -16.5h65l83 391h216l-120 -563h-310zM165 614l151 173h234l81 -173h-191l-26 78l-51 -78h-198z" />
    <glyph glyph-name="udieresis.ss14" 
d="M244 0q-76 0 -127 26t-71.5 77.5t-4.5 127.5l71 332h216l-69 -326q-7 -32 6 -48.5t45 -16.5h65l83 391h216l-120 -563h-310zM434 623l34 158h188l-34 -158h-188zM180 623l34 158h188l-34 -158h-188z" />
    <glyph glyph-name="ugrave.ss14" 
d="M244 0q-76 0 -127 26t-71.5 77.5t-4.5 127.5l71 332h216l-69 -326q-7 -32 6 -48.5t45 -16.5h65l83 391h216l-120 -563h-310zM493 615h-144l-83 173h177z" />
    <glyph glyph-name="uhungarumlaut.ss14" 
d="M244 0q-76 0 -127 26t-71.5 77.5t-4.5 127.5l71 332h216l-69 -326q-7 -32 6 -48.5t45 -16.5h65l83 391h216l-120 -563h-310zM229 614l100 173h180l-132 -173h-148zM428 614l111 173h180l-143 -173h-148z" />
    <glyph glyph-name="umacron.ss14" 
d="M244 0q-76 0 -127 26t-71.5 77.5t-4.5 127.5l71 332h216l-69 -326q-7 -32 6 -48.5t45 -16.5h65l83 391h216l-120 -563h-310zM210 633l29 137h392l-29 -137h-392z" />
    <glyph glyph-name="uogonek.ss14" 
d="M244 0q-76 0 -127 26t-71.5 77.5t-4.5 127.5l71 332h216l-69 -326q-7 -32 6 -48.5t45 -16.5h65l83 391h216l-120 -563h-310zM506 -226q-10 -1 -19.5 -2t-17.5 -1q-91 0 -120 32t-18 87q5 23 22 49.5t44.5 52t65.5 45.5l91 -37q-17 -10 -31.5 -21.5t-23.5 -23.5t-12 -24
q-4 -16 4 -25.5t24 -9.5h9.5t8.5 1z" />
    <glyph glyph-name="uring.ss14" 
d="M244 0q-76 0 -127 26t-71.5 77.5t-4.5 127.5l71 332h216l-69 -326q-7 -32 6 -48.5t45 -16.5h65l83 391h216l-120 -563h-310zM406 585q-55 0 -89.5 31t-34.5 80q0 59 41.5 97t106.5 38q54 0 89 -31t35 -80q0 -59 -41.5 -97t-106.5 -38zM413 669q20 0 32.5 12.5t12.5 31.5
q0 15 -10 24.5t-25 9.5q-19 0 -32 -12t-13 -32q0 -15 10 -24.5t25 -9.5z" />
    <glyph glyph-name="utilde.ss14" 
d="M244 0q-76 0 -127 26t-71.5 77.5t-4.5 127.5l71 332h216l-69 -326q-7 -32 6 -48.5t45 -16.5h65l83 391h216l-120 -563h-310zM308 606l-144 23q19 76 61 120.5t106 44.5q39 0 64.5 -8t44 -16.5t35.5 -8.5q14 0 26 10.5t17 28.5l147 -22q-21 -76 -63.5 -120.5t-107.5 -44.5
q-34 0 -60.5 9t-47 17.5t-38.5 8.5q-13 0 -23.5 -11t-16.5 -31z" />
    <glyph glyph-name="y.ss15" 
d="M320 282l148 281h230l-466 -741h-233l167 256l-98 485h217z" />
    <glyph glyph-name="yacute.ss15" 
d="M320 282l148 281h230l-466 -741h-233l167 256l-98 485h217zM306 615l120 173h197l-153 -173h-164z" />
    <glyph glyph-name="ycircumflex.ss15" 
d="M320 282l148 281h230l-466 -741h-233l167 256l-98 485h217zM168 615l151 173h234l81 -173h-191l-26 78l-51 -78h-198z" />
    <glyph glyph-name="ydieresis.ss15" 
d="M320 282l148 281h230l-466 -741h-233l167 256l-98 485h217zM437 624l34 158h188l-34 -158h-188zM183 624l34 158h188l-34 -158h-188z" />
    <glyph glyph-name="ygrave.ss15" 
d="M320 282l148 281h230l-466 -741h-233l167 256l-98 485h217zM496 616h-144l-83 173h177z" />
    <glyph glyph-name="f_b.dlig" horiz-adv-x="1300" 
d="M123 0l130 609q15 70 55 122t99 81t129 29h186l-37 -172h-144q-27 0 -47 -16.5t-25 -43.5l-130 -609h-216zM72 391l37 172h674l-37 -172h-674zM-2 0l37 172h535l-37 -172h-535zM1078 575q65 0 110.5 -29t69 -80.5t23.5 -119.5t-18 -132t-55 -115t-93 -81t-131 -30
q-43 0 -76 15t-56 43l-13 -46h-211l157 740h216l-47 -221q23 25 56.5 40.5t67.5 15.5zM961 163q33 0 55 22.5t33 56t11 66.5q0 44 -18 68t-50 24q-20 0 -38 -12t-36 -38l-24 -122q3 -30 19.5 -47.5t47.5 -17.5z" />
    <glyph glyph-name="f_f_l.dlig" horiz-adv-x="1950" 
d="M138 0l130 609q15 70 55 122t99 81t129 29h186l-37 -172h-144q-27 0 -47 -16.5t-25 -43.5l-130 -609h-216zM788 0l130 609q15 70 55 122t99 81t129 29h186l-37 -172h-144q-27 0 -47 -16.5t-25 -43.5l-130 -609h-216zM87 391l37 172h1204l-37 -172h-1204zM13 0l37 172h535
l-37 -172h-535zM663 0l37 172h535l-37 -172h-535zM1438 0l157 740h216l-157 -740h-216zM1313 0l37 172h513l-37 -172h-513zM1449 568l36 172h218l-36 -172h-218z" />
    <glyph glyph-name="f_k.dlig" horiz-adv-x="1300" 
d="M123 0l130 609q15 70 55 122t99 81t129 29h186l-37 -172h-144q-27 0 -47 -16.5t-25 -43.5l-130 -609h-216zM72 391l37 172h674l-37 -172h-674zM-2 0l37 172h535l-37 -172h-535zM630 0l157 740h216l-32 -153l-61 -182l136 139l22 19h272l-451 -362l-43 -201h-216zM987 0
l-83 322l190 89l115 -411h-222z" />
    <glyph glyph-name="f_l.dlig" horiz-adv-x="1300" 
d="M138 0l130 609q15 70 55 122t99 81t129 29h186l-37 -172h-144q-27 0 -46.5 -16.5t-25.5 -43.5l-130 -609h-216zM87 391l37 172h554l-37 -172h-554zM13 0l37 172h535l-37 -172h-535zM788 0l157 740h216l-157 -740h-216zM663 0l37 172h513l-37 -172h-513zM799 568l36 172
h218l-36 -172h-218z" />
    <glyph glyph-name="f_f_t.dlig.ss12" horiz-adv-x="1950" 
d="M153 0l130 609q15 70 55 122t99 81t129 29h186l-37 -172h-144q-27 0 -47 -16.5t-25 -43.5l-130 -609h-216zM102 391l37 172h694l-37 -172h-694zM28 0l37 172h535l-37 -172h-535zM803 0l130 609q15 70 55 122t99 81t129 29h186l-37 -172h-144q-27 0 -47 -16.5t-25 -43.5
l-130 -609h-216zM752 391l37 172h754l-37 -172h-754zM678 0l37 172h535l-37 -172h-535zM1453 0l151 710h216l-151 -710h-216zM1395 391l37 172h528l-37 -172h-528z" />
    <glyph glyph-name="f_t.dlig.ss12" horiz-adv-x="1300" 
d="M153 0l130 609q15 70 55 122t99 81t129 29h186l-37 -172h-144q-27 0 -47 -16.5t-25 -43.5l-130 -609h-216zM102 391l37 172h754l-37 -172h-754zM28 0l37 172h535l-37 -172h-535zM803 0l151 710h216l-151 -710h-216zM745 391l37 172h528l-37 -172h-528z" />
    <glyph glyph-name="ordfeminine.ss01" 
d="M309 313q-64 0 -102 44.5t-38 117.5q0 68 26 120.5t72 82.5t107 30q40 0 66.5 -14t41.5 -33.5t17 -38.5l-45 -194q-10 -19 -27.5 -46.5t-46 -48t-71.5 -20.5zM360 423q26 0 43.5 18.5t26 45.5t8.5 54q0 23 -12.5 39t-35.5 16t-41 -14t-27.5 -39t-9.5 -59q0 -28 13 -44.5
t35 -16.5zM387 318l82 380h149l-82 -380h-149z" />
    <glyph glyph-name="ordfeminine.ss02" 
d="M308 318q-46 0 -78.5 15t-47.5 43t-10 65l1 7q7 47 45 75.5t101 28.5h110l3 11q2 9 -1 14.5t-15 5.5h-185l25 115h209q56 0 83 -33t15 -88l-55 -259h-200zM320 420h81l7 31h-88q-10 0 -15.5 -4t-5.5 -11v-1q0 -7 5.5 -11t15.5 -4z" />
    <glyph glyph-name="zero.zero" 
d="M134 75l313 549h99l-311 -549h-101zM262 -12q-111 0 -171.5 67.5t-60.5 184.5q0 89 28 173t79 151t122 106.5t156 39.5q112 0 172.5 -66.5t60.5 -182.5q0 -72 -18 -141t-51.5 -129t-81 -105.5t-107 -71.5t-128.5 -26zM300 155q29 0 53 19.5t42 51.5t30 71t18 78.5t6 73.5
q0 48 -17 71.5t-49 23.5q-30 0 -54 -19t-42 -51t-30.5 -70.5t-18.5 -78t-6 -73.5q0 -49 17 -73t51 -24z" />
    <glyph glyph-name="zero.tf" 
d="M262 -12q-111 0 -171.5 67.5t-60.5 184.5q0 89 28 173t79 151t122 106.5t156 39.5q112 0 172.5 -66.5t60.5 -182.5q0 -90 -28 -174.5t-79 -152t-122 -107t-157 -39.5zM299 170q22 0 40.5 20.5t33 53.5t24.5 71.5t15 76t5 65.5q0 36 -10.5 53.5t-31.5 17.5t-39 -21
t-32 -54.5t-24 -73t-15 -76.5t-5 -64q0 -35 10 -52t29 -17z" />
    <glyph glyph-name="one.tf" 
d="M175 0l97 455l-232 -146l50 234l277 155h187l-149 -698h-230zM-26 0l39 184h582l-39 -184h-582z" />
    <glyph glyph-name="two.tf" 
d="M-9 0l33 154q70 35 140 75t128 82.5t93.5 84.5t35.5 81q0 23 -13 36t-35 13q-23 0 -40 -12t-25.5 -32t-8.5 -45h-224q8 79 48 140.5t111 97t170 35.5q122 0 190 -55.5t68 -148.5q0 -55 -23.5 -101.5t-63.5 -85.5t-91 -72.5t-107 -62.5h220l-39 -184h-567z" />
    <glyph glyph-name="three.tf" 
d="M309 -12q-95 0 -159.5 37.5t-93.5 99t-19 134.5h224q-3 -24 1.5 -43.5t18 -31.5t35.5 -12q31 0 46.5 17.5t15.5 42.5q0 24 -18 40.5t-48 16.5h-32l28 135h37q20 0 34 8t22 22t8 31q0 20 -12.5 30.5t-30.5 10.5q-25 0 -39 -16t-16 -44h-224q6 70 47 125t107.5 87t148.5 32
q76 0 132 -21.5t86.5 -61t30.5 -93.5q0 -59 -36.5 -106.5t-95.5 -63.5q30 -11 53.5 -31.5t37 -50t13.5 -68.5q0 -66 -38.5 -117t-106.5 -80t-157 -29z" />
    <glyph glyph-name="four.tf" 
d="M271 0l29 136h-308l33 154l331 408h285l-83 -388h77l-37 -174h-77l-29 -136h-221zM234 310h103l41 194z" />
    <glyph glyph-name="five.tf" 
d="M288 -10q-79 0 -136.5 29t-88.5 78.5t-31 110.5h220q2 -11 7.5 -19t15.5 -12t23 -4q19 0 34 10t24 27.5t9 40.5q0 18 -6 30t-16.5 18.5t-23.5 6.5q-25 0 -40 -10t-27 -25h-210l155 427h451l-40 -184h-272l-30 -79q35 22 57.5 28.5t59.5 6.5q55 0 95.5 -21.5t63 -64.5
t22.5 -107q0 -81 -39.5 -146t-110.5 -103t-166 -38z" />
    <glyph glyph-name="six.tf" 
d="M424 456q54 0 94.5 -25.5t63.5 -70t23 -102.5q0 -82 -39 -143t-109.5 -94.5t-163.5 -33.5q-77 0 -136 33.5t-91.5 94.5t-32.5 142q0 73 17.5 140t50 124t79 99.5t104.5 66t126 23.5q76 0 130.5 -28t85 -77.5t31.5 -115.5h-214q-3 17 -14 30.5t-38 13.5t-47 -16
t-31.5 -40.5t-16.5 -50.5q33 18 68 24t60 6zM309 172q18 0 32 9.5t21.5 26t7.5 36.5q0 30 -14 42.5t-35 12.5q-14 0 -28.5 -6.5t-27.5 -17.5q-8 -46 4.5 -74.5t39.5 -28.5z" />
    <glyph glyph-name="seven.tf" 
d="M125 0q15 90 47 171t73 148t84 117t80 78h-327l39 184h596l-33 -154q-97 -78 -159.5 -152t-98 -143t-52 -131.5t-23.5 -117.5h-226zM121 698h200l-57 -264h-200z" />
    <glyph glyph-name="eight.tf" 
d="M289 -12q-79 0 -136.5 25t-89 69t-31.5 101q0 38 17 72t50 62.5t81 48.5h327q26 -13 45.5 -37t30 -54t10.5 -64q0 -67 -37 -117.5t-105 -78t-162 -27.5zM306 168q21 0 35.5 7t22 19.5t7.5 30.5t-14.5 30.5t-37.5 13.5q-20 0 -35 -7.5t-22.5 -20t-7.5 -29.5q0 -20 15 -32
t37 -12zM360 428q20 2 34 9.5t22 20.5t8 29q0 20 -13.5 32t-35.5 12q-26 0 -43 -15.5t-17 -40.5q0 -17 11 -31t34 -16zM183 345q-25 13 -43.5 35t-29 49.5t-10.5 56.5q0 68 35.5 118.5t101 78t154.5 27.5q76 0 133 -22.5t89.5 -63.5t32.5 -97q0 -40 -19 -76.5t-53 -63.5
t-80 -42h-311z" />
    <glyph glyph-name="nine.tf" 
d="M248 242q-54 0 -94.5 25.5t-63.5 70t-23 102.5q0 82 39 143t109.5 94.5t163.5 33.5q77 0 136 -33.5t91.5 -94.5t32.5 -142q0 -73 -17.5 -140t-50 -124t-79 -99.5t-104.5 -66t-126 -23.5q-76 0 -130.5 28t-85 77.5t-31.5 115.5h214q3 -17 14 -30.5t38 -13.5t47 16
t31.5 40.5t16.5 50.5q-33 -18 -68 -24t-60 -6zM363 526q-18 0 -32 -9.5t-21.5 -26t-7.5 -36.5q0 -30 14 -42.5t35 -12.5q14 0 28.5 6.5t27.5 17.5q8 46 -4.5 74.5t-39.5 28.5z" />
    <glyph glyph-name="zero.sinf" 
d="M237 -186q-76 0 -124 47t-48 126q0 62 18 114.5t51.5 91.5t79.5 60.5t101 21.5q75 0 122.5 -46.5t47.5 -126.5q0 -62 -18 -114.5t-51 -91.5t-78.5 -60.5t-100.5 -21.5zM253 -61q19 0 33.5 16t24.5 41t15.5 51t5.5 47q0 26 -8.5 40.5t-25.5 14.5q-19 0 -34 -16
t-25.5 -40.5t-15.5 -51.5t-5 -48q0 -26 9 -40t26 -14z" />
    <glyph glyph-name="one.sinf" 
d="M185 -178l63 294l-171 -103l31 147l186 109h136l-95 -447h-150zM62 -58h413l-26 -120h-413z" />
    <glyph glyph-name="two.sinf" 
d="M48 -178l22 102q43 24 86.5 50.5t80 53.5t58.5 52t22 46q0 14 -7 22.5t-21 8.5q-19 0 -29.5 -15t-12.5 -40h-147q11 87 61.5 131t141.5 43q51 0 89 -17t59 -46.5t21 -70.5q0 -38 -25.5 -75.5t-65 -69.5t-80.5 -55h137l-26 -120h-364z" />
    <glyph glyph-name="three.sinf" 
d="M251 -187q-84 0 -132 48t-44 127h147q-4 -24 6 -38.5t30 -14.5q16 0 25 9.5t9 25.5q0 14 -10 22t-27 8h-20l21 96h21q16 0 25 9.5t9 25.5q0 11 -7 17t-18 6q-15 0 -23.5 -9t-10.5 -26h-147q7 71 59.5 113.5t135.5 42.5q51 0 89 -16.5t59.5 -44t21.5 -61.5
q0 -36 -21 -62.5t-57 -41.5q26 -13 41.5 -38t15.5 -54q0 -65 -54 -104.5t-144 -39.5z" />
    <glyph glyph-name="four.sinf" 
d="M215 -178l18 83h-205l26 121l221 243h185l-52 -244h79l-25 -120h-79l-18 -83h-150zM192 25h66l22 104z" />
    <glyph glyph-name="five.sinf" 
d="M246 -186q-55 0 -92.5 20t-55.5 53.5t-16 71.5h145q-1 -13 7 -21.5t21 -8.5q20 0 30.5 16.5t10.5 42.5q0 16 -7 26t-21 10q-13 0 -22 -7t-14 -19h-145l97 270h294l-25 -120h-178l-17 -43q20 13 38 17.5t40 4.5q49 0 83 -35.5t34 -94.5q0 -55 -25 -96t-71.5 -64
t-110.5 -23z" />
    <glyph glyph-name="six.sinf" 
d="M329 112q56 0 92 -34t36 -91q0 -52 -25 -91.5t-70.5 -61t-107.5 -21.5q-80 0 -129 50.5t-49 134.5q0 48 14.5 97t43.5 90t74.5 65.5t106.5 24.5q52 0 88 -20t56 -52t23 -69h-147q-1 8 -8.5 18t-23.5 10q-14 0 -24.5 -9t-17 -23.5t-10.5 -31.5q23 11 42 12.5t36 1.5z
M266 -70q17 0 28 12t11 31q0 15 -8.5 25t-22.5 10q-8 0 -17 -1t-23 -6q-4 -30 2.5 -50.5t29.5 -20.5z" />
    <glyph glyph-name="seven.sinf" 
d="M154 -178q16 68 44.5 132t63 115.5t67.5 80.5h-225l25 120h395l-23 -108q-63 -54 -99.5 -103t-55.5 -92.5t-27.5 -79.5t-15.5 -65h-149zM129 270h145l-34 -161h-145z" />
    <glyph glyph-name="eight.sinf" 
d="M229 -186q-73 0 -117 36t-44 85q0 50 30 76.5t73 47.5h212q26 -18 42 -43t16 -54q0 -47 -30.5 -80t-79 -50.5t-102.5 -17.5zM250 -71q19 0 30.5 10t11.5 28q0 11 -8.5 19t-22.5 8q-19 0 -31 -10t-12 -27q0 -12 9 -20t23 -8zM281 95q17 2 29 13t12 27q0 12 -8.5 19.5
t-20.5 7.5q-18 0 -28 -10t-10 -27q0 -10 6.5 -19t19.5 -11zM172 40q-27 17 -42.5 39.5t-15.5 50.5q0 46 24 78t67.5 49.5t101.5 17.5q46 0 82.5 -15t57.5 -42.5t21 -63.5q0 -45 -26.5 -68t-67.5 -46h-202z" />
    <glyph glyph-name="nine.sinf" 
d="M222 -23q-56 0 -92 34t-36 91q0 52 25 91.5t70.5 61t107.5 21.5q80 0 129 -50.5t49 -134.5q0 -48 -14.5 -97t-43.5 -90t-74.5 -65.5t-106.5 -24.5q-52 0 -88 20t-56 52t-23 69h147q1 -8 8.5 -18t23.5 -10q14 0 24.5 9t17 23.5t10.5 31.5q-23 -11 -42 -12.5t-36 -1.5z
M285 159q-17 0 -28 -12t-11 -31q0 -15 8.5 -25t22.5 -10q8 0 17 1t23 6q4 30 -2.5 50.5t-29.5 20.5z" />
    <glyph glyph-name="zero.dnom" 
d="M275 -7q-76 0 -124 47t-48 126q0 62 18 114.5t51.5 91.5t79.5 60.5t101 21.5q75 0 122.5 -46.5t47.5 -126.5q0 -62 -18 -114.5t-51 -91.5t-78.5 -60.5t-100.5 -21.5zM291 118q19 0 33.5 16t24.5 41t15.5 51t5.5 47q0 26 -8.5 40.5t-25.5 14.5q-19 0 -34 -16t-25.5 -40.5
t-15.5 -51.5t-5 -48q0 -26 9 -40t26 -14z" />
    <glyph glyph-name="one.dnom" 
d="M223 0l63 294l-171 -103l31 147l186 109h136l-95 -447h-150zM100 120h413l-26 -120h-413z" />
    <glyph glyph-name="two.dnom" 
d="M86 0l22 102q43 24 86.5 50.5t80 53.5t58.5 52t22 46q0 14 -7 22.5t-21 8.5q-19 0 -29.5 -15t-12.5 -40h-147q11 87 61.5 131t141.5 43q51 0 89 -17t59 -46.5t21 -70.5q0 -38 -25.5 -75.5t-65 -69.5t-80.5 -55h137l-26 -120h-364z" />
    <glyph glyph-name="three.dnom" 
d="M289 -8q-84 0 -132 48t-44 127h147q-4 -24 6 -38.5t30 -14.5q16 0 25 9.5t9 25.5q0 14 -10 22t-27 8h-20l21 96h21q16 0 25 9.5t9 25.5q0 11 -7 17t-18 6q-15 0 -23.5 -9t-10.5 -26h-147q7 71 59.5 113.5t135.5 42.5q51 0 89 -16.5t59.5 -44t21.5 -61.5q0 -36 -21 -62.5
t-57 -41.5q26 -13 41.5 -38t15.5 -54q0 -65 -54 -104.5t-144 -39.5z" />
    <glyph glyph-name="four.dnom" 
d="M253 0l18 83h-205l26 121l221 243h185l-52 -244h79l-25 -120h-79l-18 -83h-150zM230 203h66l22 104z" />
    <glyph glyph-name="five.dnom" 
d="M284 -7q-55 0 -92.5 20t-55.5 53.5t-16 71.5h145q-1 -13 7 -21.5t21 -8.5q20 0 30.5 16.5t10.5 42.5q0 16 -7 26t-21 10q-13 0 -22 -7t-14 -19h-145l97 270h294l-25 -120h-178l-17 -43q20 13 38 17.5t40 4.5q49 0 83 -35.5t34 -94.5q0 -55 -25 -96t-71.5 -64t-110.5 -23z
" />
    <glyph glyph-name="six.dnom" 
d="M367 291q56 0 92 -34t36 -91q0 -52 -25 -91.5t-70.5 -61t-107.5 -21.5q-80 0 -129 50.5t-49 134.5q0 48 14.5 97t43.5 90t74.5 65.5t106.5 24.5q52 0 88 -20t56 -52t23 -69h-147q-1 8 -8.5 18t-23.5 10q-14 0 -24.5 -9t-17 -23.5t-10.5 -31.5q23 11 42 12.5t36 1.5z
M304 109q17 0 28 12t11 31q0 15 -8.5 25t-22.5 10q-8 0 -17 -1t-23 -6q-4 -30 2.5 -50.5t29.5 -20.5z" />
    <glyph glyph-name="seven.dnom" 
d="M192 0q16 68 44.5 132t63 115.5t67.5 80.5h-225l25 120h395l-23 -108q-63 -54 -99.5 -103t-55.5 -92.5t-27.5 -79.5t-15.5 -65h-149zM167 448h145l-34 -161h-145z" />
    <glyph glyph-name="eight.dnom" 
d="M267 -7q-73 0 -117 36t-44 85q0 50 30 76.5t73 47.5h212q26 -18 42 -43t16 -54q0 -47 -30.5 -80t-79 -50.5t-102.5 -17.5zM288 108q19 0 30.5 10t11.5 28q0 11 -8.5 19t-22.5 8q-19 0 -31 -10t-12 -27q0 -12 9 -20t23 -8zM319 274q17 2 29 13t12 27q0 12 -8.5 19.5
t-20.5 7.5q-18 0 -28 -10t-10 -27q0 -10 6.5 -19t19.5 -11zM210 219q-27 17 -42.5 39.5t-15.5 50.5q0 46 24 78t67.5 49.5t101.5 17.5q46 0 82.5 -15t57.5 -42.5t21 -63.5q0 -45 -26.5 -68t-67.5 -46h-202z" />
    <glyph glyph-name="nine.dnom" 
d="M261 156q-56 0 -92 34t-36 91q0 52 25 91.5t70.5 61t107.5 21.5q80 0 129 -50.5t49 -134.5q0 -48 -14.5 -97t-43.5 -90t-74.5 -65.5t-106.5 -24.5q-52 0 -88 20t-56 52t-23 69h147q1 -8 8.5 -18t23.5 -10q14 0 24.5 9t17 23.5t10.5 31.5q-23 -11 -42 -12.5t-36 -1.5z
M324 338q-17 0 -28 -12t-11 -31q0 -15 8.5 -25t22.5 -10q8 0 17 1t23 6q4 30 -2.5 50.5t-29.5 20.5z" />
    <glyph glyph-name="zero.numr" 
d="M328 243q-76 0 -124 47t-48 126q0 62 18 114.5t51.5 91.5t79.5 60.5t101 21.5q75 0 122.5 -46.5t47.5 -126.5q0 -62 -18 -114.5t-51 -91.5t-78.5 -60.5t-100.5 -21.5zM344 368q19 0 33.5 16t24.5 41t15.5 51t5.5 47q0 26 -8.5 40.5t-25.5 14.5q-19 0 -34 -16t-25.5 -40.5
t-15.5 -51.5t-5 -48q0 -26 9 -40t26 -14z" />
    <glyph glyph-name="one.numr" 
d="M276 251l63 294l-171 -103l31 147l186 109h136l-95 -447h-150zM153 371h413l-26 -120h-413z" />
    <glyph glyph-name="two.numr" 
d="M140 252l22 102q43 24 86.5 50.5t80 53.5t58.5 52t22 46q0 14 -7 22.5t-21 8.5q-19 0 -29.5 -15t-12.5 -40h-147q11 87 61.5 131t141.5 43q51 0 89 -17t59 -46.5t21 -70.5q0 -38 -25.5 -75.5t-65 -69.5t-80.5 -55h137l-26 -120h-364z" />
    <glyph glyph-name="three.numr" 
d="M342 243q-84 0 -132 48t-44 127h147q-4 -24 6 -38.5t30 -14.5q16 0 25 9.5t9 25.5q0 14 -10 22t-27 8h-20l21 96h21q16 0 25 9.5t9 25.5q0 11 -7 17t-18 6q-15 0 -23.5 -9t-10.5 -26h-147q7 71 59.5 113.5t135.5 42.5q51 0 89 -16.5t59.5 -44t21.5 -61.5q0 -36 -21 -62.5
t-57 -41.5q26 -13 41.5 -38t15.5 -54q0 -65 -54 -104.5t-144 -39.5z" />
    <glyph glyph-name="four.numr" 
d="M306 251l18 83h-205l26 121l221 243h185l-52 -244h79l-25 -120h-79l-18 -83h-150zM283 454h66l22 104z" />
    <glyph glyph-name="five.numr" 
d="M337 244q-55 0 -92.5 20t-55.5 53.5t-16 71.5h145q-1 -13 7 -21.5t21 -8.5q20 0 30.5 16.5t10.5 42.5q0 16 -7 26t-21 10q-13 0 -22 -7t-14 -19h-145l97 270h294l-25 -120h-178l-17 -43q20 13 38 17.5t40 4.5q49 0 83 -35.5t34 -94.5q0 -55 -25 -96t-71.5 -64t-110.5 -23
z" />
    <glyph glyph-name="six.numr" 
d="M420 542q56 0 92 -34t36 -91q0 -52 -25 -91.5t-70.5 -61t-107.5 -21.5q-80 0 -129 50.5t-49 134.5q0 48 14.5 97t43.5 90t74.5 65.5t106.5 24.5q52 0 88 -20t56 -52t23 -69h-147q-1 8 -8.5 18t-23.5 10q-14 0 -24.5 -9t-17 -23.5t-10.5 -31.5q23 11 42 12.5t36 1.5z
M357 360q17 0 28 12t11 31q0 15 -8.5 25t-22.5 10q-8 0 -17 -1t-23 -6q-4 -30 2.5 -50.5t29.5 -20.5z" />
    <glyph glyph-name="seven.numr" 
d="M245 250q16 68 44.5 132t63 115.5t67.5 80.5h-225l25 120h395l-23 -108q-63 -54 -99.5 -103t-55.5 -92.5t-27.5 -79.5t-15.5 -65h-149zM220 698h145l-34 -161h-145z" />
    <glyph glyph-name="eight.numr" 
d="M320 243q-73 0 -117 36t-44 85q0 50 30 76.5t73 47.5h212q26 -18 42 -43t16 -54q0 -47 -30.5 -80t-79 -50.5t-102.5 -17.5zM341 358q19 0 30.5 10t11.5 28q0 11 -8.5 19t-22.5 8q-19 0 -31 -10t-12 -27q0 -12 9 -20t23 -8zM372 524q17 2 29 13t12 27q0 12 -8.5 19.5
t-20.5 7.5q-18 0 -28 -10t-10 -27q0 -10 6.5 -19t19.5 -11zM263 469q-27 17 -42.5 39.5t-15.5 50.5q0 46 24 78t67.5 49.5t101.5 17.5q46 0 82.5 -15t57.5 -42.5t21 -63.5q0 -45 -26.5 -68t-67.5 -46h-202z" />
    <glyph glyph-name="nine.numr" 
d="M313 404q-56 0 -92 34t-36 91q0 52 25 91.5t70.5 61t107.5 21.5q80 0 129 -50.5t49 -134.5q0 -48 -14.5 -97t-43.5 -90t-74.5 -65.5t-106.5 -24.5q-52 0 -88 20t-56 52t-23 69h147q1 -8 8.5 -18t23.5 -10q14 0 24.5 9t17 23.5t10.5 31.5q-23 -11 -42 -12.5t-36 -1.5z
M376 586q-17 0 -28 -12t-11 -31q0 -15 8.5 -25t22.5 -10q8 0 17 1t23 6q4 30 -2.5 50.5t-29.5 20.5z" />
    <glyph glyph-name="zero.sinf.zero" 
d="M226 -186q-76 0 -119 43.5t-43 119.5q0 59 19 112.5t53.5 95t82 66t105.5 24.5q76 0 118 -43.5t42 -119.5q0 -58 -19 -111.5t-53 -95.5t-81.5 -66.5t-104.5 -24.5zM249 -77q23 0 40.5 18t29.5 45.5t18.5 58t6.5 55.5q0 32 -11 49.5t-32 17.5q-24 0 -42 -17.5t-30 -45.5
t-18.5 -58t-6.5 -56q0 -32 11.5 -49.5t33.5 -17.5zM186 -156h-54l234 402l47 -13z" />
    <glyph glyph-name="zero.dnom.zero" 
d="M264 -7q-76 0 -119 43.5t-43 119.5q0 59 19 112.5t53.5 95t82 66t105.5 24.5q76 0 118 -43.5t42 -119.5q0 -58 -19 -111.5t-53 -95.5t-81.5 -66.5t-104.5 -24.5zM287 102q23 0 40.5 18t29.5 45.5t18.5 58t6.5 55.5q0 32 -11 49.5t-32 17.5q-24 0 -42 -17.5t-30 -45.5
t-18.5 -58t-6.5 -56q0 -32 11.5 -49.5t33.5 -17.5zM224 23h-54l234 402l47 -13z" />
    <glyph glyph-name="zero.numr.zero" 
d="M317 241q-76 0 -119 43.5t-43 119.5q0 59 19 112.5t53.5 95t82 66t105.5 24.5q76 0 118 -43.5t42 -119.5q0 -58 -19 -111.5t-53 -95.5t-81.5 -66.5t-104.5 -24.5zM340 350q23 0 40.5 18t29.5 45.5t18.5 58t6.5 55.5q0 32 -11 49.5t-32 17.5q-24 0 -42 -17.5t-30 -45.5
t-18.5 -58t-6.5 -56q0 -32 11.5 -49.5t33.5 -17.5zM277 271h-54l234 402l47 -13z" />
    <glyph glyph-name="uni2070.zero" 
d="M328 291q-76 0 -119 43.5t-43 119.5q0 59 19 112.5t53.5 95t82 66t105.5 24.5q76 0 118 -43.5t42 -119.5q0 -58 -19 -111.5t-53 -95.5t-81.5 -66.5t-104.5 -24.5zM351 400q23 0 40.5 18t29.5 45.5t18.5 58t6.5 55.5q0 32 -11 49.5t-32 17.5q-24 0 -42 -17.5t-30 -45.5
t-18.5 -58t-6.5 -56q0 -32 11.5 -49.5t33.5 -17.5zM288 321h-54l234 402l47 -13z" />
    <glyph glyph-name="hyphen.case" 
d="M117 255l40 185h387l-40 -185h-387z" />
    <glyph glyph-name="uni00AD.case" 
d="M117 255l40 185h387l-40 -185h-387z" />
    <glyph glyph-name="endash.case" 
d="M22 254l40 185h576l-40 -185h-576z" />
    <glyph glyph-name="emdash.case" horiz-adv-x="1300" 
d="M68 253l39 185h1153l-40 -185h-1152z" />
    <glyph glyph-name="parenleft.case" 
d="M194 -41q-26 59 -39 132.5t-13 138.5q0 146 51.5 277.5t160.5 248.5h215q-109 -115 -165 -249.5t-56 -282.5q0 -66 13 -137.5t38 -127.5h-205z" />
    <glyph glyph-name="parenright.case" 
d="M280 -41h-215q103 118 161.5 251t58.5 279q0 66 -12.5 138.5t-37.5 128.5h205q26 -60 38.5 -133.5t12.5 -139.5q0 -149 -55.5 -278.5t-155.5 -245.5z" />
    <glyph glyph-name="colon.case" 
d="M255 415l42 195h201l-42 -195h-201zM185 88l42 195h201l-42 -195h-201z" />
    <glyph glyph-name="at.case" 
d="M275 -76q-65 0 -113.5 24.5t-80 70.5t-47 110.5t-15.5 143.5q0 71 13.5 146.5t42.5 145.5t74.5 126t110 89t148.5 33q86 0 146.5 -41t93 -110t32.5 -155q0 -43 -8.5 -90.5t-26.5 -93.5t-46 -83t-67 -59.5t-89 -22.5h-117v50q-13 -24 -33 -41.5t-43 -17.5
q-31 0 -48.5 41.5t-17.5 114.5q0 29 5.5 66t17 75t29 70t41.5 51.5t54 19.5q24 0 42 -19t19 -45l14 56h117l-66 -310h11q15 0 28 15.5t23 40.5t17 55.5t10.5 61t3.5 55.5q0 62 -19 106t-52.5 67.5t-77.5 23.5q-52 0 -92 -27.5t-69 -73t-48 -100t-28 -109.5t-9 -101
q0 -82 15.5 -138t48.5 -84t85 -28h127l-95 -109h-61zM328 311q11 0 17.5 10t8.5 22l11 50q2 7 -2 20t-15 13q-9 0 -15.5 -8t-10.5 -20.5t-6 -26.5t-2 -27q0 -17 3.5 -25t10.5 -8z" />
    <glyph glyph-name="registered.alt" 
d="M251 283v85h84q15 0 25 10.5t10 26.5q0 17 -10 27t-26 10h-83v85h80q59 0 96.5 -34.5t37.5 -87.5t-37 -87.5t-95 -34.5h-82zM205 174v353h94v-353h-94zM369 174q-2 21 -10 46t-28 48t-58 36l99 33q47 -30 67 -68t30 -95h-100zM325 -12q-88 0 -157 46t-108 127.5
t-39 186.5q0 106 39 187.5t108 128t157 46.5q89 0 158 -46.5t108 -128t39 -187.5q0 -105 -39 -186.5t-108 -127.5t-158 -46zM323 74q59 0 104.5 35t71.5 97t26 142q0 81 -26 143t-71.5 97.5t-104.5 35.5q-57 0 -102 -35.5t-70.5 -97.5t-25.5 -143q0 -80 25.5 -142t70.5 -97
t102 -35z" />
    <glyph glyph-name="bar.alt" 
d="M142 295l25 120h371l-25 -120h-371z" />
    <glyph glyph-name="dollar.ss11" 
d="M314 680l25 117h214l-25 -117h-214zM150 -92l23 112h214l-23 -112h-214zM-5 0l39 184h273q23 0 36.5 12t13.5 31q0 18 -14 28.5t-37 10.5h-28q-85 0 -134.5 48t-49.5 139q0 72 33.5 127.5t95.5 86.5t147 31h305l-40 -184h-271q-17 0 -27.5 -9t-10.5 -24q0 -14 10.5 -22.5
t29.5 -8.5h30q89 0 140.5 -49.5t51.5 -143.5q0 -76 -35 -134t-99.5 -90.5t-153.5 -32.5h-305z" />
    <glyph glyph-name="multiply.case" 
d="M148 92l-98 125l467 386l98 -125zM415 92l-308 393l143 118l308 -393z" />
    <glyph glyph-name="circle.alt" 
d="M325 115q-72 0 -127 31t-86 84t-31 119t31 119.5t86 84.5t127 31q73 0 128 -31t85.5 -84.5t30.5 -119.5t-31 -119t-85.5 -84t-127.5 -31zM324 175q52 0 91 21.5t61 60.5t22 92t-22 92.5t-61 61t-91 21.5q-51 0 -90 -21.5t-60.5 -61t-21.5 -92.5t21.5 -92t60.5 -60.5
t90 -21.5z" />
    <glyph glyph-name="uni030C.alt" horiz-adv-x="0" 
d="M312 595l53 223h168l-90 -223h-131z" />
    <glyph glyph-name="uni0336.case" horiz-adv-x="0" 
d="M-35 461l34 160h797l-34 -160h-797z" />
    <glyph glyph-name="Tereza" horiz-adv-x="1300" 
d="M784 -174q18 -9 37 -8t29 8t18 12.5t15 11.5q31 28 47.5 61.5t7.5 78.5q-10 41 -34.5 61t-63.5 30q-17 5 -34 22t-29 33q-10 14 -13 32t-8 34q-12 34 -43 54t-71 20q-43 0 -66.5 -16.5t-36.5 -57.5q-13 -42 -38 -72.5t-72 -41.5q-43 -9 -65.5 -38t-27.5 -71
q-6 -45 14.5 -77.5t55.5 -54.5t68 -13.5t65 30.5q53 38 94.5 37t96.5 -39q12 -9 25.5 -17.5t28.5 -18.5zM535 817q-4 -26 -7 -49.5t-8 -43.5q-4 -11 -7.5 -23t-11.5 -17q-29 -19 -45.5 -57t-21 -84t5 -91t33.5 -77q27 -37 63.5 -37t64.5 37q20 27 30 64.5t10 78.5
t-10.5 77.5t-33.5 60.5q-25 28 -35 57t-15 62q-1 8 -4 17t-8 25zM761 779q-2 -11 -5 -29.5t-7 -37.5q-2 -7 -5.5 -15.5t-8.5 -12.5q-41 -39 -62 -89t-18.5 -103.5t30.5 -102.5q11 -17 32 -35.5t40 -19.5q18 0 41.5 16t33.5 35q33 62 32 124.5t-32 126.5q-18 36 -36 72.5
t-35 70.5zM1013 568q-3 -1 -2.5 -1t-7.5 -2q-1 -23 -2 -42t-7 -39q-4 -11 -13 -21.5t-20 -13.5q-32 -11 -59 -37t-46 -59.5t-25.5 -70t2.5 -68.5q9 -33 35 -46.5t53 6.5q27 21 54.5 48.5t36.5 58.5q14 55 17 113.5t6 116.5q1 14 -7.5 28.5t-14.5 28.5zM289 563q-2 1 -3 1
t-10 2q-4 -15 -12 -30.5t-9 -34.5q-1 -57 5 -120t39 -124q12 -22 33.5 -42.5t43.5 -34.5q24 -16 47.5 -5t32.5 34q11 27 6.5 63.5t-21 72t-40.5 61t-53 31.5q-32 7 -42 24.5t-13 42.5q-1 12 -2 28t-2 31z" />
  </font>
</defs>
</svg>
